<svg xmlns="http://www.w3.org/2000/svg" width="84" height="83" viewBox="0 0 84 83"><g><g><g><path fill="#1b62ac" d="M83.15 41.25c0 22.644-18.58 41-41.5 41S.15 63.894.15 41.25s18.58-41 41.5-41 41.5 18.356 41.5 41z"/></g></g><g><g/><g><path fill="#fff" d="M45.125 51.829c.88.105 1.697.105 2.452.317 1.655.464 2.745 1.943 2.787 3.675.02.887.02 1.753 0 2.64-.021 1.035-.44 1.521-1.446 1.521-4.862.021-9.702 0-14.564 0-.943 0-1.404-.507-1.404-1.457v-2.43c.021-2.492 1.676-4.14 4.17-4.182h1.048c.293-.971.105-1.584-.713-2.197-1.613-1.225-2.43-2.957-2.493-5.006a74.586 74.586 0 0 1 0-4.33c.104-3.38 2.724-5.936 6.077-5.978 1.194-.021 2.368.021 3.562-.021.796-.021 1.216.275 1.132 1.098-.126 1.057.104 1.775 1.215 2.282.985.443 1.425 1.52 1.446 2.64.02 1.479.042 2.957-.021 4.436-.084 2.007-.922 3.696-2.515 4.9-.817.592-.964 1.226-.733 2.092zm1.865-7.605c0-1.816-.65-2.196-2.41-2.049-1.928.19-3.877.148-5.804-.042-1.803-.169-2.494.275-2.473 2.134.02 3.253 2.284 5.618 5.364 5.618 3.08-.02 5.323-2.387 5.323-5.66zm-2.724-8.407c-1.341 0-2.599-.084-3.835.022-2.577.232-4.338 2.534-4.065 4.985h2.787c1.697.02 3.394.147 5.07.02.944-.063 1.845-.654 2.704.36.105-1.563-.272-2.43-1.341-2.598-1.257-.19-1.383-.909-1.278-1.923.02-.232-.021-.464-.042-.866zM40.62 58.63c-.692-1.753-1.362-3.4-2.033-5.027a.67.67 0 0 0-.377-.296c-1.509-.464-3.395.38-3.751 1.838-.273 1.12-.189 2.324-.252 3.485h6.413zm8.424 0c0-.908.042-1.753 0-2.577-.168-2.429-2.054-2.978-3.961-2.746-.147.021-.314.17-.377.296-.67 1.648-1.32 3.295-2.033 5.027h6.37zm-5.512-7.456H39.74c-.188 1.584.19 1.922 1.593 1.5.189-.064.42-.064.608-.021 1.488.422 1.865.084 1.592-1.48zm-1.886 6.252c.357-.887.671-1.478.839-2.09.083-.275-.042-.888-.168-.91-.44-.105-.943-.062-1.404.043-.105.021-.189.592-.105.845.189.634.461 1.225.838 2.112z"/></g><g><path fill="#fff" d="M61.602 42.002c-.775.824-1.55 1.521-2.2 2.324-.272.338-.251.887-.419 1.52.629 0 1.069-.02 1.509 0 1.53.085 2.598 1.205 2.64 2.725.021.782-.02 1.542 0 2.324.021.697-.23 1.056-.964 1.056-3.834-.021-7.67-.021-11.504 0-.65 0-.964-.275-.964-.95.021-.676 0-1.331 0-2.007 0-2.091 1.006-3.126 3.06-3.169h.817c.251-.866.084-1.415-.629-1.943-1.278-.993-1.907-2.408-1.949-4.034-.042-1.754-.02-3.528 0-5.281.021-1.415.692-2.303 1.991-2.767a6.931 6.931 0 0 0 1.132-.528c1.886-1.162 3.855-1.226 5.783-.19 2.033 1.098 3.143 2.872 3.185 5.217.042 2.112 0 4.224.021 6.337 0 .528.084 1.204-.65 1.162-.25 0-.502-.655-.712-1.035-.084-.233-.084-.528-.146-.76zm.105-2.767c0-1.415.126-2.535-.02-3.633-.294-2.134-2.2-3.76-4.36-3.866-1.948-.105-2.933.824-2.933 2.746 0 .36-.021.697 0 1.056.042 1.078.566 1.648 1.634 1.585 2.138-.106 4.024.317 5.68 2.112zm-8.298-1.33c-1.048.612-1.048.612-.964 2.112.105 2.006 1.656 3.612 3.667 3.823 1.823.19 3.646-1.14 4.191-3 .21-.739.063-1.33-.607-1.563-1.027-.359-2.117-.591-3.186-.845-.943-.19-1.865-.317-3.1-.528zm4.044 12.694c1.027 0 1.844.021 2.662 0 1.802-.042 1.676.402 1.676-1.753 0-.169 0-.36-.063-.528-.188-.697-.628-1.077-1.362-1.056-.691.042-1.55-.338-1.865.76-.21.803-.608 1.542-1.048 2.577zm-2.137-.02c-.168-.466-.23-.719-.335-.973-.273-.633-.545-1.288-.839-1.922-.062-.148-.21-.38-.314-.38-.817.106-1.97 0-2.368.486-.46.57-.272 1.69-.335 2.577 0 .063.272.211.42.211 1.194.021 2.409 0 3.771 0zm-.21-5.408c.021.401.042.718.063.866h2.473v-.866h-2.536zm-2.158-11.64c-.587.592-.733 1.733-.335 3.085zm3.206 15.674c.189 0 .398 0 .587-.021.042-.55.084-1.098.105-1.669-.294 0-.587.021-.88.021.062.55.125 1.099.188 1.67z"/></g><g><path fill="#fff" d="M29.7 45.767c.126.02.252.042.377.063 2.766.127 3.52.908 3.5 3.654 0 2.746.293 2.45-2.473 2.45-3.206 0-6.412-.02-9.618.022-1.006.02-1.425-.317-1.32-1.331.063-.55 0-1.12.02-1.69 0-2.007 1.048-3.063 3.018-3.084h.86c.25-.824.041-1.31-.566-1.943-.797-.824-1.404-1.901-1.845-2.979-.502-1.204-.23-2.556-.712-3.886-.566-1.606.42-3.296 1.76-4.478 1.781-1.585 3.835-2.007 6.035-1.078 2.159.909 3.332 2.62 3.52 4.943.106 1.225.085 2.471 0 3.697-.083 1.542-.775 2.83-1.948 3.823-.775.655-.775.655-.608 1.817zm-6.79-7.394c0 .486-.062 1.226.022 1.944.272 2.598 3.06 4.224 5.448 3.21 1.907-.802 2.62-2.26 2.494-5.048-.063-1.183-1.11-1.922-2.242-1.605-1.824.507-3.668.971-5.721 1.5zm-.67-1.964c3.374.76 6.392-.528 7.041-3-1.362-1.077-2.892-1.31-4.484-.612-1.488.655-2.39 1.838-2.557 3.612zm3.605 14.174c-.336-.803-.692-1.395-.839-2.028-.272-1.247-1.068-1.542-2.116-1.289-.44.106-1.09.444-1.195.782-.188.74-.083 1.563-.062 2.366 0 .063.293.147.46.147 1.174.043 2.348.022 3.752.022zm2.074.02c1.027 0 1.844.022 2.661 0 1.824-.042 1.677.402 1.677-1.752 0-.17 0-.36-.042-.529-.189-.697-.65-1.098-1.362-1.056-.692.043-1.55-.338-1.865.76-.252.803-.629 1.543-1.069 2.578zm.21-5.407H25.55c.021.38.042.718.063.845h2.515v-.845zm-1.51 4.014h.588c.041-.55.062-1.12.104-1.67-.293 0-.586.022-.88.022.063.528.126 1.077.189 1.648z"/></g><g><path fill="#fff" d="M51.013 23.942c-1.09.359-1.99.633-2.85.992-.23.106-.46.507-.46.782-.064 1.098 0 2.176-.022 3.274-.02 1.268-.775 2.028-2.032 2.049-2.662.021-5.302.021-7.963 0-1.258-.021-2.012-.782-2.033-2.049-.02-.908-.063-1.838 0-2.746.063-.866-.189-1.352-1.069-1.563-1.006-.254-1.99-.634-2.975-1.014-.273-.106-.629-.444-.629-.676 0-.232.356-.591.629-.676 3.206-1.098 6.412-2.197 9.618-3.232.335-.105.775-.042 1.11.085 3.081 1.014 6.162 2.049 9.242 3.063.629.21.901.549.86 1.225-.043 1.056.041 2.112-.043 3.168-.042.38-.44.718-.691 1.056-.23-.359-.608-.718-.65-1.12-.105-.823-.042-1.626-.042-2.618zm-14.06 1.563v3.253c0 .654.314.971.963.971 2.515 0 5.008.021 7.523-.042.314 0 .86-.465.88-.76.105-1.099.042-2.197.042-3.422-1.341.443-2.515.887-3.73 1.204-.608.148-1.3.169-1.886.02-1.257-.316-2.452-.78-3.793-1.224zm-2.83-2.662c0 .085.021.17.021.254 2.41.802 4.82 1.626 7.209 2.429a.711.711 0 0 0 .419.021c1.74-.57 3.458-1.14 5.176-1.711-1.656-.211-3.27-.169-4.862-.232-.377-.021-.733-.423-1.09-.655.378-.211.734-.465 1.132-.613.252-.084.545-.02.838-.02h3.898c-1.635-.804-3.31-1.353-4.987-1.902-.147-.042-.357-.021-.503.021-2.431.803-4.84 1.606-7.25 2.408z"/></g></g></g></svg>