<svg xmlns="http://www.w3.org/2000/svg" width="84" height="83" viewBox="0 0 84 83"><g><g><g><path fill="#1b62ac" d="M83.27 41.25c0 22.644-18.58 41-41.5 41S.27 63.894.27 41.25s18.58-41 41.5-41 41.5 18.356 41.5 41z"/></g></g><g><g/><g><path fill="#fff" d="M41.258 58.072H28.88c-2.226 0-3.669-1.376-3.687-3.622-.017-8.476-.017-16.97 0-25.445 0-2.21 1.425-3.568 3.634-3.568 4.541-.018 9.083-.018 13.625 0 .587 0 .944-.163 1.318-.67 2.671-3.804 7.747-4.782 11.54-2.264 3.866 2.572 4.988 7.48 2.708 11.627a3.976 3.976 0 0 0-.481 1.865c-.036 5.977-.071 11.953 0 17.93.036 2.77-1.656 4.256-4.079 4.201-4.078-.144-8.139-.054-12.2-.054zm1.283-30.824c-.25-.036-.392-.09-.535-.09-4.417 0-8.834-.019-13.25 0-1.247 0-1.817.67-1.817 2.046v24.974c0 .218.053.435.089.797l17.864-18.437c-1.853-2.644-3.491-5.596-2.351-9.29zM50.68 43.62c.41-.87.695-1.648 1.086-2.336 1.586-2.753 3.26-5.47 4.81-8.24 1.691-3.007.854-6.774-1.853-8.82-2.707-2.047-6.483-1.757-8.87.67-2.119 2.173-2.6 5.523-1.086 8.167 1.585 2.79 3.26 5.542 4.862 8.313.392.67.66 1.395 1.051 2.246zM28.47 56.243h22.228L39.602 44.797A6760.46 6760.46 0 0 0 28.47 56.243zm27.25-18.256c-2.422 3.387-3.811 7.063-5.04 10.849-1.193-3.695-2.53-7.245-4.684-10.36-1.674 1.703-3.33 3.369-5.005 5.071.036.037.09.145.16.236l12.04 12.188c.517.525 1.407.58 1.906-.018.356-.434.641-1.105.641-1.684.054-5.125.036-10.25.018-15.376.018-.254-.018-.471-.036-.906z"/></g><g><path fill="#fff" d="M34.572 36.611v-1.666h5.842c.303 2.59-1.532 5.18-4.078 5.778-2.904.688-5.646-.852-6.59-3.659-.909-2.662.338-5.596 2.885-6.828 2.511-1.231 5.557-.29 7.089 2.282-.446.272-.873.544-1.372.852-.837-1.069-1.817-1.956-3.206-1.866-.801.055-1.656.272-2.333.688-1.425.852-1.96 2.626-1.478 4.275.463 1.575 1.977 2.698 3.615 2.716 1.585.018 3.01-.996 3.509-2.572h-3.883z"/></g><g><path fill="#fff" d="M50.68 26.31a3.41 3.41 0 0 1 3.42 3.405 3.426 3.426 0 0 1-3.42 3.423 3.41 3.41 0 0 1-3.42-3.405 3.426 3.426 0 0 1 3.42-3.423zm1.692 3.369a1.679 1.679 0 0 0-1.746-1.648c-.926.036-1.656.833-1.62 1.774.053.906.8 1.63 1.691 1.63.927-.018 1.692-.815 1.675-1.756z"/></g></g></g></svg>