<svg xmlns="http://www.w3.org/2000/svg" width="84" height="83" viewBox="0 0 84 83"><g><g><g><path fill="#1b62ac" d="M83.15 41.73c0 22.644-18.58 41-41.5 41S.15 64.374.15 41.73s18.58-41 41.5-41 41.5 18.356 41.5 41z"/></g><g><g/><g><path fill="#fff" d="M54.486 39.203c-.737.359-1.348.587-1.896.945-.188.13-.298.538-.298.815-.015 2.575-.047 5.15 0 7.742.016 1.45-.532 2.575-1.566 3.471-1.755 1.5-3.823 2.184-6.016 2.51-3.854.57-7.66.49-11.295-1.19-.799-.358-1.55-.896-2.24-1.466-.987-.815-1.457-1.923-1.441-3.276.03-2.575-.016-5.15.015-7.742 0-.586-.172-.847-.673-1.092-1.74-.782-3.431-1.63-5.139-2.46-.532-.261-1.065-.587-.924-1.24.11-.44.501-.977.893-1.173A1672.149 1672.149 0 0 1 40.23 27.16c.438-.212 1.112-.212 1.535 0a1077.542 1077.542 0 0 1 16.308 7.92c.407.196.799.718.909 1.174.156.636-.36 1.06-.925 1.223-1.05.293-1.347.961-1.3 2.07.094 1.89.031 3.797.031 5.704 0 .978-.407 1.548-1.112 1.564-.72.017-1.175-.57-1.175-1.58-.031-1.973-.015-3.928-.015-6.03zm-27.588-2.966c.22.13.345.228.486.293 4.37 2.119 8.741 4.254 13.128 6.357.282.13.72.114 1.018-.017 1.457-.668 2.882-1.385 4.324-2.086.814-.391 1.425-.244 1.754.424.33.668.032 1.32-.799 1.727-1.707.832-3.383 1.695-5.122 2.445-.392.18-.972.163-1.379-.016-1.16-.473-2.272-1.092-3.415-1.63-1.582-.766-3.165-1.516-4.888-2.347v1.01c0 1.793.125 3.602-.031 5.379-.173 1.907.752 2.868 2.24 3.537.423.195.877.374 1.316.505a17.982 17.982 0 0 0 8.209.635c1.833-.277 3.65-.7 5.217-1.825.72-.522 1.08-1.157 1.065-2.119-.047-2.722.031-5.427-.031-8.149-.032-1.124.297-1.825 1.347-2.249 1.269-.521 2.475-1.19 3.728-1.809-.094-.13-.125-.195-.157-.212-4.511-2.2-9.023-4.4-13.55-6.568-.235-.114-.611-.032-.862.082-4.308 2.07-8.616 4.172-12.909 6.258-.219.114-.407.228-.689.375z"/></g></g></g></g></svg>