<svg xmlns="http://www.w3.org/2000/svg" width="84" height="83" viewBox="0 0 84 83"><g><g><g><path fill="#1b62ac" d="M83.08 41.73c0 22.644-18.58 41-41.5 41S.08 64.374.08 41.73s18.58-41 41.5-41 41.5 18.356 41.5 41z"/></g><g><g/><g><path fill="#fff" d="M35.76 46.788v-3.25c0-1.182.243-1.448 1.388-1.448h8.878c1.131 0 1.375.266 1.375 1.448v4.55H55.72c1.088 0 1.36.28 1.36 1.389v5.318c0 1.02-.258 1.3-1.217 1.3H27.31c-.959 0-1.217-.28-1.217-1.285-.014-2.201-.014-4.388-.014-6.574 0-1.167.258-1.448 1.375-1.448h8.305zm9.622 7.254v-9.884H37.75v9.884h7.632zm-13.589.044c1.103 0 2.19-.014 3.293.015.473.015.688-.103.673-.65a92.604 92.604 0 0 1 0-3.989c0-.458-.1-.665-.6-.65-2.192.03-4.382.015-6.588 0-.458 0-.572.177-.558.606.014 1.359.029 2.703 0 4.063-.014.502.186.635.63.62 1.06-.03 2.105-.015 3.15-.015zm23.34-3.974c-2.52 0-4.912-.015-7.317.015-.143 0-.387.28-.387.443a35.57 35.57 0 0 0 0 3.029c0 .162.287.458.444.458 2.262.03 4.525.03 6.787 0 .158 0 .444-.237.458-.384.029-1.138.015-2.29.015-3.56z"/></g><g><path fill="#fff" d="M36.241 38.87c.215-1.226.401-2.541.673-3.841.115-.532-.029-.872-.4-1.226-.86-.813-1.72-1.64-2.507-2.527-.257-.28-.515-.827-.415-1.108.129-.34.602-.694.974-.783 1.088-.25 2.205-.399 3.322-.517.644-.074 1.016-.354 1.274-.96.444-1.034.917-2.068 1.446-3.043.186-.325.587-.636.945-.74.502-.132.802.267 1.017.74.501 1.093 1.045 2.157 1.518 3.25.2.473.5.65.96.724 1.13.147 2.276.28 3.393.532.415.088.902.369 1.116.724.287.487-.042.96-.43 1.344a56.364 56.364 0 0 0-2.419 2.511c-.186.207-.315.606-.272.872.172 1.315.458 2.615.616 3.93.043.355-.1.901-.344 1.078-.286.207-.845.237-1.174.09-1.117-.503-2.19-1.094-3.25-1.7-.459-.251-.817-.236-1.26.015a62.248 62.248 0 0 1-3.25 1.714c-.831.428-1.59-.089-1.533-1.079zm.33-7.741c.63.68 1.13 1.27 1.675 1.817.444.428.572.916.472 1.536-.143.842-.257 1.685-.415 2.704.83-.428 1.546-.753 2.205-1.138.673-.398 1.26-.428 1.933.015.659.429 1.36.768 2.205 1.226-.129-.842-.172-1.536-.344-2.186-.243-.99-.014-1.758.76-2.408.515-.429.945-.975 1.503-1.552-.945-.177-1.733-.369-2.534-.443-.688-.059-1.074-.384-1.346-1.004-.315-.74-.702-1.463-1.132-2.32-.372.872-.716 1.551-.973 2.26-.287.813-.83 1.123-1.618 1.197-.73.03-1.49.163-2.392.296z"/></g></g></g></g></svg>