<svg xmlns="http://www.w3.org/2000/svg" width="84" height="83" viewBox="0 0 84 83"><g><g><g><path fill="#1b62ac" d="M83.27 41.73c0 22.644-18.58 41-41.5 41S.27 64.374.27 41.73s18.58-41 41.5-41 41.5 18.356 41.5 41z"/></g><g><g/><g><path fill="#fff" d="M41.225 52.807a675.009 675.009 0 0 1-4.926 3.516c-1.324.935-2.524.996-3.621.224-1.118-.793-1.428-1.951-.952-3.435.538-1.667 1.076-3.354 1.676-5 .207-.57.062-.855-.393-1.18a347.37 347.37 0 0 1-4.45-3.15c-1.241-.895-1.634-1.993-1.22-3.253.413-1.24 1.448-1.91 2.959-1.931 1.759 0 3.518-.04 5.277.02.787.02 1.076-.264 1.283-.935a136.906 136.906 0 0 1 1.614-4.919c.476-1.382 1.408-2.094 2.711-2.094 1.346-.02 2.298.692 2.794 2.135.58 1.687 1.16 3.394 1.677 5.102.165.549.434.732 1.014.711 1.82-.04 3.663-.02 5.484 0 1.49 0 2.525.712 2.938 1.952.394 1.24.021 2.317-1.158 3.191-1.387 1.016-2.753 2.053-4.202 2.968-.827.508-.869 1.016-.558 1.83.58 1.585 1.097 3.19 1.614 4.817.435 1.342.041 2.48-1.035 3.232-1.035.711-2.214.711-3.373-.081-1.718-1.24-3.394-2.46-5.153-3.72zm-7.45-12.156c-1.076 0-2.132-.04-3.208.02-.414.02-.807.326-1.2.509.227.366.351.853.662 1.097 1.676 1.24 3.373 2.44 5.09 3.639.704.488.87 1.037.58 1.83-.662 1.87-1.303 3.78-1.883 5.67-.124.448.041.976.083 1.464.455-.122.993-.142 1.345-.386a119.324 119.324 0 0 0 4.925-3.517c.725-.548 1.304-.548 2.028 0a165.8 165.8 0 0 0 4.926 3.517c.372.244.89.264 1.345.386.041-.488.228-1.016.083-1.463-.559-1.87-1.18-3.74-1.842-5.59-.331-.874-.145-1.464.642-1.992a123.411 123.411 0 0 0 5.008-3.578c.33-.244.455-.732.662-1.098-.393-.183-.807-.508-1.2-.508-2.07-.06-4.14-.06-6.209 0-.972.02-1.428-.366-1.697-1.24-.6-1.931-1.22-3.862-1.924-5.773-.125-.366-.58-.63-.87-.935-.269.305-.662.59-.786.935a150.035 150.035 0 0 0-1.945 5.875c-.249.793-.683 1.179-1.552 1.138-.994-.04-2.029 0-3.063 0z"/></g><g><path fill="#fff" d="M27.85 54.614c.27.854-.02 1.545-.703 2.074-.703.528-1.47.569-2.214.101-.828-.528-1.635-1.138-2.483-1.748-.746.529-1.511 1.057-2.256 1.586-.766.549-1.573.67-2.4.122-.87-.59-1.118-1.504-.684-2.338 1.056-1.972.58-3.273-1.428-4.228-.828-.407-1.159-1.24-.869-2.175.29-.915 1.014-1.504 1.945-1.362 2.277.346 3.498-.447 3.808-2.744.124-.894.91-1.362 1.821-1.362.911 0 1.573.447 1.884 1.321.248.712.434 1.423.745 2.094.124.285.538.57.848.61.745.101 1.51.02 2.277.04.91.041 1.614.427 1.883 1.322.269.894.02 1.667-.787 2.236-.393.264-.786.549-1.18.833-.372.264-.724.529-1.117.813.331 1.017.621 1.911.91 2.805zm-8.608-.101c.062.04.124.06.207.101.641-.447 1.304-.874 1.904-1.382.765-.65 1.448-.569 2.214.02.62.488 1.283.935 2.152 1.566-.352-1.098-.558-1.931-.89-2.704-.33-.813-.103-1.341.6-1.809.683-.468 1.346-.976 2.029-1.464-.932-.223-1.78-.243-2.629-.223-.807.02-1.283-.285-1.51-1.078-.228-.813-.538-1.626-.91-2.703-.353 1.057-.642 1.85-.87 2.643-.228.813-.724 1.158-1.573 1.138-.828-.04-1.656 0-2.483 0a7.706 7.706 0 0 0 1.945 1.667c.745.467.87 1.057.6 1.83-.29.812-.538 1.605-.786 2.398z"/></g><g><path fill="#fff" d="M55.496 51.81c-.787-.57-1.532-1.119-2.277-1.647-.807-.57-1.055-1.322-.807-2.216.249-.894.994-1.464 1.863-1.3 2.421.426 3.56-.59 3.932-2.867.145-.833.952-1.24 1.8-1.24.87 0 1.677.427 1.8 1.26.353 2.318 1.553 3.253 3.953 2.846.87-.142 1.573.468 1.842 1.342.29.874-.041 1.585-.745 2.134-.538.407-1.076.854-1.676 1.179-.6.346-.683.732-.414 1.342.249.528.373 1.077.559 1.626.31.955.228 1.83-.662 2.44-.849.589-1.677.426-2.484-.164-.683-.508-1.386-.996-2.152-1.544-.745.528-1.49 1.036-2.235 1.565-.807.59-1.656.69-2.484.081-.807-.61-.972-1.403-.641-2.358.269-.752.517-1.565.828-2.48zm4.49-6.932c-.33.975-.6 1.687-.786 2.398-.248 1.037-.828 1.484-1.904 1.382-.745-.06-1.51-.02-2.276-.02.683.773 1.407 1.28 2.11 1.789.58.407.746.894.497 1.585-.31.834-.558 1.688-.91 2.806.952-.671 1.676-1.18 2.38-1.708.6-.447 1.18-.467 1.78 0 .703.529 1.427 1.017 2.38 1.687-.332-1.016-.539-1.788-.828-2.54-.332-.854-.207-1.484.641-1.972.683-.407 1.283-.935 1.925-1.403a6.02 6.02 0 0 0-2.215-.203c-1.096.081-1.759-.285-1.986-1.403-.145-.732-.456-1.402-.807-2.398z"/></g><g><path fill="#fff" d="M25.145 19.61c.414.285.766.447 1.014.711 1.676 1.606 3.311 3.253 4.987 4.879.518.508.849 1.057.249 1.667-.6.61-1.18.325-1.697-.183-1.697-1.687-3.436-3.334-5.091-5.041-.27-.285-.393-.854-.331-1.24.062-.305.538-.508.869-.793z"/></g><g><path fill="#fff" d="M58.44 20.743c-.269.386-.434.732-.682.976a1148.912 1148.912 0 0 1-5.03 4.96c-.517.508-1.096.772-1.696.162-.56-.57-.29-1.118.207-1.585 1.697-1.667 3.394-3.375 5.132-5.001.31-.285.91-.366 1.366-.325.248.02.455.508.703.813z"/></g><g><path fill="#fff" d="M42.233 23.533c0 .65.124 1.32-.042 1.91-.103.387-.558.834-.952.935-.62.163-1.034-.304-1.055-.935-.02-1.28-.083-2.56.041-3.841.042-.346.56-.854.952-.935.6-.143 1.035.304 1.056.935.041.65.02 1.28 0 1.93z"/></g><g><path fill="#fff" d="M40.04 16.76c.415-.244.89-.732 1.242-.651.373.081.849.65.89 1.057.021.264-.62.833-.972.833-.394 0-.787-.487-1.18-.772 0-.163.02-.325.02-.467z"/></g></g></g></g></svg>