<svg xmlns="http://www.w3.org/2000/svg" width="84" height="83" viewBox="0 0 84 83"><g><g><g><path fill="#1b62ac" d="M83.08 41.25c0 22.644-18.58 41-41.5 41S.08 63.894.08 41.25s18.58-41 41.5-41 41.5 18.356 41.5 41z"/></g><g><g/><g><path fill="#fff" d="M57.064 60.474c0 1.076-.308 1.376-1.41 1.376h-6.399c-3.418-.016-6.285-2.308-6.966-5.55-.113-.474-.21-.522-.68-.522h-.016c-2.058.016-4.245.016-7.064.016h-6.286c-2.883 0-4.163-1.265-4.163-4.08V36.82v-8.096c0-2.53 1.377-3.874 3.953-3.874h18.792c1.329 0 1.555.221 1.555 1.534v1.692c0 2.324 0 4.727-.016 7.083 0 .427.114.696.438.997 2.17 2.04 4.341 4.158 6.658 6.467 1.07 1.06 1.62 2.419 1.62 4.016 0 4.522 0 8.95-.016 13.835zm-15.018-6.609a.908.908 0 0 1-.065-.11c-.194-.317-.356-.586-.55-.791a73.192 73.192 0 0 0-1.944-1.914c-.535-.521-1.102-1.059-1.637-1.612-1.49-1.487-1.506-3.495-.048-4.87.648-.601 1.458-.933 2.316-.933.94 0 1.863.395 2.625 1.122.729.696 1.458 1.408 2.154 2.087l1.507 1.471v-21.6c-.178 0-.324-.015-.47-.015H27.968c-1.458 0-1.96.49-1.96 1.945v23.307c0 1.502.502 1.976 2.025 1.976 4.504 0 9.007-.016 13.51-.016.147 0 .309 0 .503-.047zm13.106-6.894c.016-1.407-.453-2.53-1.49-3.51a344.195 344.195 0 0 1-3.467-3.352c-.6-.585-1.199-1.186-1.815-1.771l-.032-.032v.332c0 .933.016 1.866.016 2.799.016 2.277.016 4.617-.048 6.925-.049 1.297.162 2.309 1.263 3.084.39.269.6.569.616.885.016.19-.033.459-.34.728-.195.174-.405.268-.632.268-.405 0-.713-.3-.956-.537l-1.053-1.028c-1.312-1.28-2.657-2.593-3.97-3.89-.193-.19-.307-.41-.453-.664-.016 0-.016-.016-.016-.016l-1.506-1.201a1.364 1.364 0 0 0-1.021-.427c-.113 0-.26.016-.389.047-.632.127-1.02.506-1.134 1.107-.113.553.032 1.012.421 1.391 0 0 1.442 1.36 1.393 1.424.146.126.276.268.422.395.47.443.907.87 1.36 1.265 1.15 1.012 1.702 2.182 1.702 3.7.016 2.609 1.879 4.743 4.325 4.98.794.08 1.652.111 2.69.111.712 0 1.409-.016 2.154-.031.632-.016 1.28-.032 1.944-.032v-4.048c0-2.91 0-5.914.016-8.902z"/></g><g><path fill="#fff" d="M36.196 41.829c-1.766-.016-3.402-.68-4.617-1.882a6.33 6.33 0 0 1-1.879-4.538c.016-3.542 2.9-6.309 6.561-6.309h.049c3.58.016 6.496 2.878 6.48 6.372-.016 3.495-2.949 6.357-6.545 6.357zm1.02-2.514c.698-.838.957-1.787 1.07-2.862h-1.07zm-3.06-2.862c.145 1.043.372 1.992 1.052 2.846v-2.846zm5.702 1.802c.47-.553.745-1.138.858-1.787h-.421zm-8.133-1.818a4.01 4.01 0 0 0 .875 1.802l-.438-1.802zm9.007-1.96c-.13-.633-.42-1.218-.858-1.756l.437 1.755zm-8.553 0l.42-1.772c-.453.554-.728 1.123-.858 1.771zm6.123-.033c-.13-1.106-.405-2.023-1.053-2.814v2.814zm-3.078 0V31.63c-.696.885-.923 1.834-1.053 2.814z"/></g><g><path fill="#fff" d="M27.547 32.72c-.292 0-.519-.078-.68-.236-.276-.269-.26-.664-.26-.98v-.206c-.016-.19 0-.38 0-.57v-.474-.474c.016-1.708.843-2.514 2.592-2.53h1.717c.405 0 1.232.016 1.264.917 0 .285-.065.506-.227.664-.275.285-.729.285-1.004.285h-1.944c-.357 0-.47.11-.47.458v1.898c0 .395 0 1.217-.923 1.233z"/></g><g><path fill="#fff" d="M29.376 53.344h-.307c-1.669-.032-2.463-.807-2.479-2.436V49.17c0-.395 0-1.233.923-1.249h.033c.94 0 .94.838.956 1.25v.315c0 .459.016.917 0 1.376-.017.253.032.443.13.538.08.095.242.142.485.142h.259c.276-.016.551-.016.827-.016.372 0 .68.016.972.048.372.047.89.395.972.774a.73.73 0 0 1-.13.664c-.178.222-.486.333-.907.333H29.895z"/></g></g></g></g></svg>