<svg xmlns="http://www.w3.org/2000/svg" width="84" height="83" viewBox="0 0 84 83"><g><g><g><path fill="#1b62ac" d="M83.09 41.73c0 22.644-18.58 41-41.5 41S.09 64.374.09 41.73s18.58-41 41.5-41 41.5 18.356 41.5 41z"/></g><g><g/><g><path fill="#fff" d="M49.286 59.73h-17.38c0-1.693-.13-3.385.04-5.04.182-1.795 1.704-2.984 3.551-3.049.43-.012.859 0 1.392 0 0-.917.026-1.796-.026-2.661-.013-.155-.273-.336-.455-.452-1.054-.66-2.186-1.215-3.174-1.964-1.12-.84-1.887-2.003-2.42-3.295-.143-.35-.338-.465-.716-.504-3.109-.284-4.995-2.339-5.008-5.414v-5.866h4.878v-4.742c7.09-.013 14.115-.013 21.205-.013v4.716h4.865c.013.194.039.31.039.44 0 1.963.026 3.914-.013 5.878a5.036 5.036 0 0 1-4.631 4.95c-.638.05-.963.258-1.236.852-1.04 2.274-2.823 3.837-5.126 4.794-.637.258-.884.607-.819 1.292.065.633.013 1.279.013 1.938.728.051 1.405.051 2.055.155 1.6.258 2.862 1.563 2.94 3.165.091 1.577.026 3.166.026 4.82zm-6.972-8.127c0-1.254.013-2.43-.013-3.618 0-.349.104-.543.429-.685a33.136 33.136 0 0 0 1.821-.853c3.07-1.473 4.644-3.889 4.657-7.287.013-3.295 0-6.59 0-9.885 0-.206-.026-.413-.039-.62H31.972c0 3.747-.078 7.456.026 11.151.09 2.946 1.639 5.09 4.254 6.473.663.35 1.352.66 2.055.944.43.167.572.413.56.878-.04 1.15-.014 2.313-.014 3.489 1.184.013 2.277.013 3.46.013zm5.034 6.189c0-.866.013-1.667 0-2.468-.013-1.02-.663-1.718-1.704-1.731a660.845 660.845 0 0 0-10.134 0c-.846 0-1.548.53-1.613 1.317-.091.944-.026 1.913-.026 2.882h13.477zM27.054 33.436v.724c0 1.253-.026 2.493.013 3.747.052 1.55 1.561 2.946 2.914 2.816v-7.287h-2.927zm27.059 0h-2.914v7.326c1.496-.052 2.849-1.318 2.9-2.804.053-1.486.014-2.972.014-4.522z"/></g></g></g></g></svg>