<svg xmlns="http://www.w3.org/2000/svg" width="84" height="83" viewBox="0 0 84 83"><g><g><g><path fill="#1b62ac" d="M83.09 41.25c0 22.644-18.58 41-41.5 41S.09 63.894.09 41.25s18.58-41 41.5-41 41.5 18.356 41.5 41z"/></g><g><g/><g><path fill="#fff" d="M44.082 57.813c-.468 0-.872-.34-1.194-.662l-.517-.516a396.93 396.93 0 0 1-4.502-4.518c-.225-.242-.355-.258-.451-.258a.89.89 0 0 0-.259.048c-.5.161-1.016.307-1.516.436-.452.129-.904.242-1.34.387-.21.065-.403.097-.597.097-.42 0-.79-.178-1.13-.517a68.86 68.86 0 0 0-2.662-2.662c-.532-.5-.661-1.081-.435-1.807.113-.339.21-.694.29-1.049.13-.468.258-.968.436-1.452.194-.533.129-.823-.307-1.243-1.258-1.194-2.5-2.452-3.695-3.663-.37-.37-.742-.758-1.113-1.13-.371-.37-.71-.79-.678-1.29.032-.5.404-.871.807-1.194 1.517-1.226 3.163-1.84 4.905-1.84.84 0 1.71.146 2.598.436.13.049.242.065.323.065.064 0 .161 0 .387-.307 4.776-6.05 10.295-10.053 16.862-12.182a28.203 28.203 0 0 1 8.713-1.372c.533 0 .952.065 1.243.355.29.29.355.694.339 1.21-.016 3.905-.807 7.762-2.372 11.473-.113.274-.436 1.033-1.21 1.033-.162 0-.34-.033-.5-.113-.727-.29-.92-.92-.55-1.856.291-.726.55-1.468.84-2.243.064-.161.129-.323.193-.5-3.017-.84-4.921-2.743-5.776-5.777-.275.113-.549.21-.823.307-.936.339-1.807.677-2.646 1.08-6.778 3.293-12.135 8.505-15.927 15.507-.193.34-.16.436.13.727.758.726 1.5 1.468 2.259 2.259.21.21.42.42.629.645l.484-.5c.887-.904 1.726-1.775 2.582-2.646.048-.049.08-.097.129-.146.161-.193.355-.42.645-.516.275-.08.549-.097.823-.097h.387l.533-.032-.032.532c0 .081 0 .194.016.307.032.355.048.742-.21 1.049-.58.678-1.226 1.307-1.856 1.92-.161.161-.322.307-.484.468-.37.371-.742.726-1.145 1.097-.065.065-.146.13-.21.21l.532.532c.646.646 1.259 1.275 1.872 1.888.404.404.71.71.84.71.16 0 .5-.193.951-.452 4.438-2.468 8.278-5.792 11.424-9.875l.081-.097c.113-.16.242-.306.355-.467.323-.436.694-.662 1.097-.662.258 0 .517.097.759.29.339.259.435.565.468.775.032.339-.081.694-.371 1.049-.243.306-.5.629-.743.952-.565.726-1.13 1.484-1.79 2.146-1.582 1.581-3.228 3.05-5.051 4.663-.323.29-.34.339-.226.678.92 2.727.435 5.276-1.42 7.568-.29.355-.678.742-1.194.742zm-2.517-5.309c.403.371.79.726 1.161 1.081s.743.726 1.098 1.081l.08.081c.79-1.259 1.033-3.001.597-4.147l-3.033 1.823a.427.427 0 0 0 .097.081zm-9.279-5.68c-.21.613-.322 1-.258 1.275.081.371.517.79 1.291 1.549l.194.194c.113.113.226.242.339.306.08.065.161.097.193.113a40.9 40.9 0 0 0 1.323-.37zm-2.372-6.309l1.679-2.824a4.824 4.824 0 0 0-1.469-.21c-.968 0-1.904.259-2.533.694zm23.72-15.926c.371 2 2.114 3.744 3.986 3.986l.58-4.567z"/></g><g><path fill="#fff" d="M46 41.754a5.589 5.589 0 0 1-5.55-5.583c0-3.066 2.501-5.551 5.567-5.551 3.13 0 5.567 2.453 5.55 5.567 0 3.066-2.5 5.55-5.55 5.55H46zm.017-8.681c-1.71 0-3.082 1.323-3.13 3.017-.033.84.274 1.63.87 2.26.582.612 1.356.967 2.195.983h.065A3.1 3.1 0 0 0 49.13 36.3a3.05 3.05 0 0 0-.855-2.26 3.136 3.136 0 0 0-2.195-.967z"/></g><g><path fill="#fff" d="M23.83 59.614c-.274 0-.694-.096-.936-.338-.306-.323-.387-1-.177-1.404 1.065-2.066 2.227-4.292 3.453-6.47.565-1.001 1.597-1.582 2.84-1.582 1.5 0 2.791.968 3.243 2.404.468 1.485-.08 3.018-1.34 3.744-2.097 1.226-4.291 2.356-6.405 3.453l-.21.113c-.129.048-.29.08-.468.08zm5.131-7.39a.796.796 0 0 0-.677.371c-.597.936-1.162 1.937-1.695 2.889-.048.08-.096.177-.145.258a2.43 2.43 0 0 0 .275-.161c.968-.55 1.984-1.13 2.92-1.743a.719.719 0 0 0 .323-.549c.032-.29-.097-.58-.323-.807a1.096 1.096 0 0 0-.678-.258z"/></g><g><path fill="#fff" d="M55.39 38.491h-.065c-.387-.032-.645-.339-.839-.597-.064-.08-.129-.161-.177-.21l-.339-.338.339-.34c.048-.048.113-.128.177-.209.194-.242.436-.549.823-.597h.097c.323 0 .581.194.871.42.13.096.259.193.404.29l.58.387-.548.404c-.145.113-.274.21-.387.322-.355.242-.597.468-.936.468z"/></g></g></g></g></svg>