<svg xmlns="http://www.w3.org/2000/svg" width="27" height="27" viewBox="0 0 27 27"><g><g><g><path fill="#1b62ac" d="M26.319 13.29c0 7.074-5.735 12.809-12.81 12.809C6.435 26.099.7 20.364.7 13.289.7 6.215 6.435.48 13.51.48c7.074 0 12.809 5.735 12.809 12.81z"/></g><g><g/><g><path fill="#fff" d="M14.217 18.34H12.54v-.272-3.473c0-.246-.02-.492-.029-.738-.224-.009-.443-.018-.667-.022-.216-.005-.431 0-.655 0v-1.798h1.355v-.255c0-.404-.017-.809.004-1.209.016-.303.044-.62.13-.905.256-.893.866-1.34 1.704-1.407.452-.035.908.022 1.36.044.032 0 .064.022.1.035v1.587h-.711c-.744 0-.92.193-.92.998v1.103h1.51c-.045.4-.09.77-.13 1.134-.017.154-.053.304-.053.457 0 .194-.086.225-.24.22-.35-.009-.704-.004-1.078-.004-.004 1.512-.004 3.002-.004 4.505z"/></g></g></g></g></svg>