<svg xmlns="http://www.w3.org/2000/svg" width="27" height="27" viewBox="0 0 27 27"><g><g><g><path fill="#f1387b" d="M26.539 13.29c0 7.074-5.735 12.809-12.81 12.809C6.655 26.099.92 20.364.92 13.289.92 6.215 6.655.48 13.73.48c7.074 0 12.809 5.735 12.809 12.81z"/></g><g><g/><g><path fill="#fff" d="M13.72 17.559h-2.104c-1.225-.005-2.162-.942-2.166-2.162 0-1.408 0-2.816.004-4.224.004-1.208.946-2.146 2.158-2.15 1.404-.004 2.816-.004 4.224 0a2.132 2.132 0 0 1 2.154 2.15c.004 1.408.004 2.816 0 4.224-.005 1.22-.942 2.157-2.167 2.162-.7.004-1.403 0-2.103 0zm1.774-4.279a1.773 1.773 0 1 0-3.549.017c.004.979.8 1.77 1.783 1.766a1.77 1.77 0 0 0 1.766-1.783zm1.07-2.299a.538.538 0 0 0-.524-.533.535.535 0 0 0-.533.525.53.53 0 0 0 .525.533.538.538 0 0 0 .533-.525z"/></g></g></g></g></svg>