<svg xmlns="http://www.w3.org/2000/svg" width="296" height="79" viewBox="0 0 296 79"><g><g><g/><g><g><path fill="#575756" d="M77.72 33.213c0-3.055 1.588-4.643 4.032-4.643 1.344 0 2.077.244 2.688.61v1.59h-1.222c-.244-.978-.488-1.467-1.466-1.467-1.344 0-2.077.978-2.077 3.91 0 3.055.855 3.788 2.2 3.788.977 0 1.343-.489 1.588-1.466h1.1v1.588c-.49.367-1.467.733-2.689.733-2.81-.122-4.154-1.833-4.154-4.643z"/></g><g><path fill="#575756" d="M88.345 37.73c-1.833 0-3.055-1.222-3.055-3.299s1.222-3.421 3.177-3.421c1.833 0 3.055 1.222 3.055 3.299-.123 2.322-1.467 3.421-3.177 3.421zm0-5.987c-.978 0-1.344.855-1.344 2.566 0 1.833.366 2.688 1.466 2.688.855 0 1.344-.855 1.344-2.688-.122-1.833-.611-2.566-1.466-2.566z"/></g><g><path fill="#575756" d="M94.456 36.142c0 .733.122.855.855.978v.488h-3.299v-.488c.733 0 .856-.123.856-.856v-5.987c0-.977-.245-1.1-.978-1.1v-.61l2.077-.367h.245c.122.244.244.61.244 1.222v6.72z"/></g><g><path fill="#575756" d="M102.03 37.363a2.44 2.44 0 0 1-1.1.244c-.856 0-1.1-.366-1.222-.855-.245.366-.733.977-1.71.977-1.223 0-2.078-.61-2.078-1.833 0-1.466 1.222-2.077 3.177-2.077h.489v-.61c0-.978-.245-1.467-.978-1.467-.855 0-1.1.489-1.222 1.222h-1.1v-1.222c.611-.366 1.589-.733 2.566-.733 1.467 0 2.322.611 2.322 2.2v2.687c0 .856.122.978.855.978zm-4.888-7.454l2.321-2.199.856 1.344-2.933 1.222zm2.077 4.521c-1.1 0-1.71.367-1.71 1.222s.366 1.1.977 1.1c.489 0 .855-.245 1.222-.733V34.43h-.489z"/></g><g><path fill="#575756" d="M102.4 37.127c.733 0 .855-.122.855-.855v-3.055c0-.977-.122-1.1-.855-1.1v-.488l2.2-.61h.244v5.13c0 .734.122.856.855.856v.489H102.4zm1.588-6.842c-.488 0-.977-.489-.977-.978 0-.488.489-.977.977-.977.611 0 .978.489.978.977 0 .49-.489.978-.978.978z"/></g><g><path fill="#575756" d="M106.31 37.242v-1.345h1.1c.122.856.488 1.222 1.344 1.222.733 0 1.222-.244 1.222-.977 0-.611-.367-.855-.978-.978l-.855-.244c-.978-.244-1.589-.855-1.589-1.833 0-1.344 1.1-2.077 2.444-2.077 1.1 0 1.71.244 2.077.489v1.222h-.977c-.122-.734-.489-.978-1.222-.978-.611 0-1.1.367-1.1.855 0 .49.245.734.856.856l.855.244c1.222.244 1.833.855 1.833 1.955 0 1.344-.978 2.077-2.688 2.077-1.345 0-2.078-.366-2.322-.488z"/></g><g><path fill="#575756" d="M115.356 31.99h-1.344v3.666c0 .977.122 1.222.733 1.222.244 0 .488 0 .733-.122l.122.61a3.253 3.253 0 0 1-1.466.367c-1.1 0-1.71-.489-1.71-1.833v-3.91h-.734v-.61l.855-.367c.122-.611.245-1.222.611-1.71l.978-.123c-.122.489-.122 1.222-.122 1.833h1.588z"/></g><g><path fill="#575756" d="M121.458 36.753c-.61.61-1.466.977-2.443.977-1.955 0-3.055-1.222-3.055-3.421 0-2.077 1.222-3.299 2.932-3.299 1.833 0 2.689 1.1 2.689 3.055v.488h-4.033c0 1.589.611 2.2 1.833 2.2.733 0 1.344-.122 1.833-.489zm-1.466-2.933c0-1.588-.366-2.077-1.1-2.077-.733 0-1.1.489-1.221 2.077z"/></g><g><path fill="#575756" d="M131.362 36.15c0 .733.122.855.733.855v.489h-3.177v-.367c.733 0 .855-.122.855-.855v-3.055c0-.733-.366-1.1-.855-1.1-.611 0-1.1.245-1.466.611v3.422c0 .61.122.855.855.855v.489h-3.177v-.367c.733 0 .855-.122.855-.855v-3.055c0-.977-.122-1.1-.855-1.1v-.488l1.833-.489h.244c.122.122.245.61.245 1.1.61-.611 1.221-1.1 2.199-1.1.977 0 1.833.61 1.833 1.833v3.177z"/></g><g><path fill="#575756" d="M138.81 37.364a2.44 2.44 0 0 1-1.1.244c-.856 0-1.1-.366-1.222-.855-.245.366-.733.977-1.71.977-1.223 0-2.078-.61-2.078-1.833 0-1.466 1.222-2.077 3.177-2.077h.489v-.61c0-.978-.245-1.467-.978-1.467-.855 0-1.1.489-1.222 1.222h-1.1v-1.222c.611-.366 1.589-.733 2.566-.733 1.467 0 2.322.61 2.322 2.2v2.687c0 .856.122.978.855.978zm-2.933-2.933c-1.1 0-1.71.367-1.71 1.222s.366 1.1.977 1.1c.488 0 .855-.245 1.222-.733V34.43h-.49z"/></g><g><path fill="#575756" d="M148.705 28.69l.122 2.2h-.733c-.245-1.1-.367-1.467-1.1-1.467h-.855v6.598c0 .733.244.978 1.1.978v.488h-3.788V37c.855 0 1.1-.123 1.1-.978v-6.598h-.856c-.855 0-.855.367-1.1 1.466h-.855l.122-2.199z"/></g><g><path fill="#575756" d="M152.984 31.01c.123 0 .367 0 .49.122l-.367 1.589c-.123-.123-.367-.123-.611-.123-.978 0-1.344.367-1.344 1.467v2.077c0 .733.122.855 1.1.855v.489h-3.422v-.367c.733 0 .855-.122.855-.855v-3.055c0-.977-.122-1.1-.855-1.1v-.488l1.833-.489h.244c.122.245.245.733.367 1.589.244-1.1.977-1.711 1.71-1.711z"/></g><g><path fill="#575756" d="M153.6 37.607v-.489c.733 0 .855-.122.855-.855v-3.055c0-.977-.122-1.1-.855-1.1v-.488l2.2-.489h.244v5.132c0 .733.122.855.855.855v.49zm0-7.698l2.322-2.199.855 1.344-2.933 1.222z"/></g><g><path fill="#575756" d="M160.565 37.73c-1.833 0-3.055-1.222-3.055-3.299s1.222-3.421 3.177-3.421c1.833 0 3.054 1.222 3.054 3.299 0 2.322-1.466 3.421-3.176 3.421zm0-5.987c-.978 0-1.344.855-1.344 2.566 0 1.833.366 2.688 1.466 2.688.855 0 1.344-.855 1.344-2.688 0-1.833-.489-2.566-1.466-2.566z"/></g><g><path fill="#575756" d="M170.702 36.15c0 .733.122.855.733.855v.489h-3.177v-.367c.733 0 .855-.122.855-.855v-3.055c0-.733-.366-1.1-.855-1.1-.611 0-1.1.245-1.466.611v3.422c0 .61.122.855.855.855v.489h-3.177v-.367c.733 0 .855-.122.855-.855v-3.055c0-.977-.122-1.1-.855-1.1v-.488l1.833-.489h.244c.122.122.245.61.245 1.1.61-.611 1.221-1.1 2.199-1.1.977 0 1.833.61 1.833 1.833v3.177z"/></g><g><path fill="#575756" d="M175.105 37.73c-1.833 0-3.055-1.223-3.055-3.3s1.222-3.421 3.177-3.421c1.833 0 3.055 1.222 3.055 3.3 0 2.32-1.345 3.42-3.177 3.42zm-1.467-7.82l2.322-2.2.855 1.344-2.932 1.222zm1.467 1.832c-.978 0-1.344.855-1.344 2.566 0 1.833.366 2.688 1.466 2.688.855 0 1.344-.855 1.344-2.688 0-1.833-.489-2.566-1.466-2.566z"/></g><g><path fill="#575756" d="M178.89 37.616v-.489c.733 0 .855-.122.855-.855v-3.055c0-.977-.122-1.1-.855-1.1v-.488l2.2-.489h.244v5.132c0 .733.122.855.855.855v.49zm1.588-7.331c-.488 0-.977-.489-.977-.978 0-.488.489-.977.977-.977.611 0 .978.489.978.977 0 .49-.367.978-.978.978z"/></g><g><path fill="#575756" d="M185.366 37.73c-1.466 0-2.566-.977-2.566-3.298 0-2.2 1.1-3.422 2.81-3.422.611 0 1.222.245 1.589.733v-1.588c0-.978-.245-1.1-.856-1.1v-.488l2.2-.367h.244v7.576c0 .977.122 1.1.855 1.1v.488l-1.832.489h-.245c0-.122-.244-.489-.366-1.1-.367.489-1.1.978-1.833.978zm.489-.977c.488 0 .977-.244 1.344-.733v-3.543c-.367-.367-.856-.611-1.344-.611-.856 0-1.467.488-1.467 2.321.123 1.955.49 2.566 1.467 2.566z"/></g><g><path fill="#575756" d="M195.748 36.753c-.61.61-1.466.977-2.443.977-1.955 0-3.055-1.222-3.055-3.421 0-2.077 1.222-3.299 2.932-3.299 1.833 0 2.689 1.1 2.689 3.055v.488h-4.033c0 1.589.611 2.2 1.833 2.2.611 0 1.222-.122 1.833-.489zm-1.588-2.933c0-1.588-.367-2.077-1.1-2.077-.733 0-1.1.489-1.222 2.077z"/></g><g><path fill="#575756" d="M196.967 39.448l-.367-.489c.855-.244 1.222-.61 1.222-.977 0-.245-.122-.367-.489-.49-.244-.121-.61-.366-.61-.855 0-.488.488-.977.977-.977.733 0 1.222.61 1.222 1.466.122 1.1-.611 1.955-1.955 2.322z"/></g><g><path fill="#575756" d="M202.35 36.999c.733 0 .978-.245.978-.978v-5.865c0-.733-.123-.977-.978-.977v-.489h3.666c2.077 0 3.054.733 3.054 2.322 0 1.1-.61 1.71-1.71 1.955 1.466.244 2.199 1.1 2.199 2.199 0 1.588-1.222 2.321-3.055 2.321h-4.154zm3.666-4.399c1.1 0 1.466-.367 1.466-1.588 0-1.222-.367-1.589-1.589-1.589h-.977V32.6zm.244 4.276c1.222 0 1.588-.488 1.588-1.71s-.366-1.71-1.71-1.71h-1.222v3.42z"/></g><g><path fill="#575756" d="M216.52 37.364a2.44 2.44 0 0 1-1.1.244c-.856 0-1.1-.366-1.222-.855-.245.366-.733.977-1.71.977-1.223 0-2.078-.61-2.078-1.833 0-1.466 1.222-2.077 3.299-2.077h.489v-.61c0-.978-.245-1.467-.978-1.467-.855 0-1.1.489-1.222 1.222h-1.1v-1.222c.612-.366 1.59-.733 2.567-.733 1.466 0 2.321.61 2.321 2.2v2.687c-.122.856 0 .978.733.978zm-2.811-2.933c-1.1 0-1.71.367-1.71 1.222s.366 1.1.977 1.1c.489 0 .855-.245 1.222-.733V34.43h-.489z"/></g><g><path fill="#575756" d="M217.01 37.616v-.489c.733 0 .855-.122.855-.855v-3.055c0-.977-.122-1.1-.855-1.1v-.488l2.2-.489h.244v5.132c0 .733.122.855.855.855v.49zm1.466-7.331c-.489 0-.977-.489-.977-.978 0-.488.488-.977.977-.977.611 0 .978.489.978.977 0 .49-.367.978-.978.978z"/></g><g><path fill="#575756" d="M223.116 36.142c0 .733.122.855.855.978v.488h-3.299v-.488c.733 0 .855-.123.855-.856v-5.987c0-.977-.244-1.1-.977-1.1v-.61l2.077-.367h.245c.122.244.244.61.244 1.222z"/></g><g><path fill="#575756" d="M230.088 36.753c-.61.61-1.466.977-2.443.977-1.955 0-3.055-1.222-3.055-3.421 0-2.077 1.222-3.299 2.932-3.299 1.833 0 2.689 1.1 2.689 3.055v.488h-4.033c0 1.589.611 2.2 1.833 2.2.611 0 1.344-.122 1.833-.489zm-1.466-2.933c0-1.588-.366-2.077-1.1-2.077-.733 0-1.221.489-1.221 2.077z"/></g><g><path fill="#575756" d="M238.274 35.042h-2.81l-.367 1.222c0 .122-.122.244-.122.366 0 .367.244.367.855.367v.489h-2.81v-.49c.61 0 .733-.244.977-.977l2.444-7.33h1.344l2.444 7.33c.244.611.367.978.977.978v.489h-3.42v-.49c.61 0 .855-.121.855-.488 0-.122 0-.244-.123-.366zm-2.566-.856h2.322l-.611-2.077c-.245-.855-.489-1.588-.489-1.955h-.122c-.122.367-.245.978-.489 1.955zm0-6.353L238.274 26l.733 1.466-2.932.856z"/></g><g><path fill="#575756" d="M244.866 31.99h-1.344v3.666c0 .977.122 1.222.733 1.222.244 0 .488 0 .733-.122l.122.61a3.253 3.253 0 0 1-1.466.367c-1.1 0-1.71-.489-1.71-1.833v-3.91h-.734v-.61l.855-.367c.122-.611.245-1.222.611-1.71l.978-.123c-.122.489-.122 1.222-.122 1.833h1.588z"/></g><g><path fill="#575756" d="M247.92 32.11c.61-.611 1.221-1.1 2.199-1.1.977 0 1.833.611 1.833 1.833v3.3c0 .732.122.854.733.854v.49h-3.177v-.367c.733 0 .855-.123.855-.856V33.21c0-.733-.366-1.1-.855-1.1-.611 0-1.1.244-1.466.61v3.422c0 .611.122.855.855.855v.49h-3.177v-.367c.733 0 .855-.123.855-.856v-5.987c0-.977-.244-1.1-.855-1.1v-.61l2.077-.367h.245c.122.244.244.61.244 1.222v2.688z"/></g><g><path fill="#575756" d="M259.29 37.364a2.44 2.44 0 0 1-1.1.244c-.856 0-1.1-.366-1.222-.855-.245.366-.733.977-1.71.977-1.223 0-2.078-.61-2.078-1.833 0-1.466 1.222-2.077 3.299-2.077h.489v-.61c0-.978-.245-1.467-.978-1.467-.855 0-1.1.489-1.222 1.222h-1.1v-1.222c.612-.366 1.59-.733 2.567-.733 1.466 0 2.321.61 2.321 2.2v2.687c-.122.856 0 .978.733.978zm-2.933-2.933c-1.1 0-1.71.367-1.71 1.222s.366 1.1.977 1.1c.488 0 .855-.245 1.222-.733V34.43h-.49z"/></g><g><path fill="#575756" d="M262.34 33.213c0-3.055 1.588-4.643 4.032-4.643 1.344 0 2.077.244 2.688.61v1.59h-1.222c-.244-.978-.488-1.467-1.466-1.467-1.344 0-2.077.978-2.077 3.91 0 3.055.855 3.788 2.2 3.788.977 0 1.343-.489 1.588-1.466h1.1v1.588c-.49.367-1.467.733-2.689.733-2.81-.122-4.154-1.833-4.154-4.643z"/></g><g><path fill="#575756" d="M272.116 36.142c0 .733.122.855.855.978v.488h-3.299v-.488c.733 0 .855-.123.855-.856v-5.987c0-.977-.244-1.1-.977-1.1v-.61l2.077-.367h.245c.122.244.244.61.244 1.222z"/></g><g><path fill="#575756" d="M273.46 37.127c.733 0 .855-.122.855-.855v-3.055c0-.977-.122-1.1-.855-1.1v-.488l2.2-.61h.244v5.13c0 .734.122.856.855.856v.489h-3.299zm1.466-6.842c-.489 0-.977-.489-.977-.978 0-.488.488-.977.977-.977.611 0 .978.489.978.977 0 .49-.367.978-.978.978z"/></g><g><path fill="#575756" d="M283.36 37.364a2.44 2.44 0 0 1-1.1.244c-.856 0-1.1-.366-1.222-.855-.245.366-.733.977-1.71.977-1.223 0-2.078-.61-2.078-1.833 0-1.466 1.222-2.077 3.177-2.077h.489v-.61c0-.978-.245-1.467-.978-1.467-.855 0-1.1.489-1.222 1.222h-1.1v-1.222c.611-.366 1.589-.733 2.566-.733 1.467 0 2.322.61 2.322 2.2v2.687c0 .856.122.978.855.978zm-2.811-2.933c-1.1 0-1.71.367-1.71 1.222s.366 1.1.977 1.1c.489 0 .855-.245 1.222-.733V34.43h-.489z"/></g><g><path fill="#575756" d="M287.386 31.99h-1.344v3.666c0 .977.122 1.222.733 1.222.244 0 .488 0 .733-.122l.122.61a3.253 3.253 0 0 1-1.466.367c-1.1 0-1.71-.489-1.71-1.833v-3.91h-.734v-.61l.855-.367c.122-.611.245-1.222.611-1.71l.978-.123c-.122.489-.122 1.222-.122 1.833h1.588z"/></g><g><path fill="#575756" d="M290.32 32.11c.61-.611 1.221-1.1 2.199-1.1.977 0 1.833.611 1.833 1.833v3.3c0 .732.122.854.733.854v.49h-3.177v-.367c.733 0 .855-.123.855-.856V33.21c0-.733-.366-1.1-.855-1.1-.611 0-1.1.244-1.466.61v3.422c0 .611.122.855.855.855v.49h-3.177v-.367c.733 0 .855-.123.855-.856v-5.987c0-.977-.244-1.1-.855-1.1v-.61l2.077-.367h.245c.122.244.244.61.244 1.222v2.688z"/></g><g><path fill="#575756" d="M87.488 4.01l.244 3.666h-1.466c-.367-1.833-.611-2.444-1.955-2.444h-1.222V16.35c0 1.344.489 1.588 1.833 1.588v.856h-6.354v-.856c1.344 0 1.833-.244 1.833-1.588V5.354h-1.222c-1.344 0-1.466.611-1.955 2.444H75.88l.244-3.666h11.364z"/></g><g><path fill="#575756" d="M95.195 7.92c.244 0 .61 0 .733.122l-.489 2.81c-.244-.122-.489-.122-.977-.122-1.711 0-2.2.611-2.2 2.444v3.543c0 1.222.245 1.467 1.833 1.467v.855H88.23v-.855c1.222-.122 1.466-.245 1.466-1.467v-5.254c0-1.588-.244-1.832-1.466-1.832v-.856l3.177-.855h.366c.123.367.49 1.344.49 2.688.61-1.71 1.71-2.688 2.932-2.688z"/></g><g><path fill="#575756" d="M96.9 18.182c1.222-.122 1.466-.244 1.466-1.466v-5.254c0-1.588-.244-1.833-1.466-1.833v-.855l3.666-.855h.366v8.675c0 1.222.122 1.466 1.344 1.466v.856H96.9zm2.566-11.485c-.855 0-1.589-.733-1.589-1.589 0-.855.734-1.588 1.711-1.588.978 0 1.589.733 1.589 1.588 0 .856-.734 1.589-1.711 1.589z"/></g><g><path fill="#575756" d="M114.492 16.595c0 1.222.245 1.467 1.344 1.467v.855h-5.376v-.855c1.222 0 1.466-.245 1.466-1.467v-5.01c0-1.343-.488-1.832-1.466-1.832-1.1 0-1.833.489-2.566 1.1v5.864c0 1.1.123 1.345 1.344 1.467v.855h-5.498v-.855c1.222-.122 1.466-.245 1.466-1.467v-5.254c0-1.588-.244-1.832-1.466-1.832v-.856l3.177-.855h.366c.123.244.49 1.1.49 1.955.977-.977 2.076-1.955 3.787-1.955 1.71 0 3.055.978 3.055 3.055v5.62z"/></g><g><path fill="#575756" d="M117.18 18.182c1.222-.122 1.466-.244 1.466-1.466v-5.254c0-1.588-.244-1.833-1.466-1.833v-.855l3.666-.855h.366v8.675c0 1.222.122 1.466 1.344 1.466v.856h-5.376zm2.566-11.485c-.855 0-1.589-.733-1.589-1.589 0-.855.734-1.588 1.711-1.588.978 0 1.589.733 1.589 1.588 0 .856-.734 1.589-1.711 1.589z"/></g><g><path fill="#575756" d="M130.131 9.633h-2.321v6.11c0 1.588.244 2.199 1.344 2.199.367 0 .733-.122 1.222-.245l.244.978c-.733.489-1.588.733-2.566.733-1.832 0-2.81-.733-2.81-3.055v-6.72H123.9v-.977l1.466-.49a8.315 8.315 0 0 1 .978-2.932l1.71-.244a22.439 22.439 0 0 0-.244 3.177h2.566z"/></g><g><path fill="#575756" d="M132.706 21.723c1.833-.367 3.177-.856 3.91-2.81l-.977.122c-.245-1.1-.611-2.078-1.222-3.91l-1.71-4.643c-.367-1.1-.612-1.345-1.467-1.467V8.16h5.376v.855c-.977 0-1.344.245-1.344.611 0 .122.122.367.122.489l1.467 4.52c.366 1.1.488 1.956.61 2.322h.123c0-.244.244-1.1.488-2.077l1.467-4.765c.122-.244.122-.367.122-.489 0-.489-.245-.61-1.344-.733V8.16h4.276v.855c-.855.123-1.1.245-1.588 1.344l-3.055 8.676c-.977 2.566-2.077 4.032-4.52 4.398z"/></g><g><path fill="#575756" d="M148.95 11.712c0-5.254 2.688-7.942 6.72-7.942 2.2 0 3.544.489 4.521.977v2.689h-1.955c-.366-1.589-.977-2.444-2.566-2.444-2.2 0-3.543 1.588-3.543 6.476 0 5.254 1.466 6.353 3.665 6.353 1.711 0 2.322-.733 2.689-2.443h1.832v2.566c-.855.61-2.443 1.1-4.52 1.1-4.521.244-6.843-2.567-6.843-7.332z"/></g><g><path fill="#575756" d="M167.284 19.283c-3.177 0-5.254-2.077-5.254-5.62 0-3.544 2.077-5.743 5.254-5.743 3.177 0 5.254 2.077 5.254 5.62.122 3.788-2.322 5.743-5.254 5.743zm0-10.141c-1.71 0-2.322 1.344-2.322 4.399 0 3.176.611 4.52 2.444 4.52 1.589 0 2.322-1.466 2.322-4.52 0-3.177-.856-4.4-2.444-4.4z"/></g><g><path fill="#575756" d="M178.274 16.59c0 1.222.245 1.467 1.467 1.589v.855h-5.499v-.855c1.222-.122 1.466-.244 1.466-1.466V6.449c0-1.588-.366-1.833-1.588-1.833v-.855l3.543-.611h.367c.122.367.367.977.367 2.2v11.24z"/></g><g><path fill="#575756" d="M185.237 16.59c0 1.222.244 1.467 1.466 1.589v.855h-5.62v-.855c1.221-.122 1.465-.244 1.465-1.466V6.449c0-1.588-.366-1.833-1.588-1.833v-.855l3.543-.611h.367c.122.367.367.977.367 2.2z"/></g><g><path fill="#575756" d="M197.586 17.695c-1.1.977-2.444 1.588-4.154 1.588-3.177 0-5.132-2.077-5.132-5.742 0-3.544 2.077-5.621 4.887-5.621 3.055 0 4.521 1.955 4.521 5.254v.733h-6.72c.122 2.81.978 3.788 3.177 3.788.977 0 2.077-.367 2.932-.855zm-2.444-5.132c0-2.566-.488-3.543-1.955-3.543-1.221.122-1.955.855-2.077 3.543z"/></g><g><path fill="#575756" d="M199.42 20.876c0-.733.61-1.222 1.1-1.466h1.588a2.44 2.44 0 0 0-.244 1.1c0 1.1.61 1.71 2.443 1.71 2.078 0 2.81-.733 2.81-1.833 0-1.222-.61-1.466-3.054-1.588-.855 0-1.833-.122-2.2-.122-1.099-.122-1.466-.855-1.466-1.833s.856-1.71 2.2-2.077c-1.71-.367-2.688-1.589-2.688-3.177 0-2.2 1.71-3.543 4.398-3.543.734 0 1.344.122 1.955.244.49.122.978.244 1.467.244.733 0 1.344-.366 1.955-.855l.977 1.71c-.489.367-.977.49-1.588.49-.489 0-.978-.123-1.467-.367.611.489 1.1 1.1 1.1 2.077 0 2.566-2.444 3.299-4.643 3.299h-.122c-.611.244-.978.489-.978.977 0 .245.123.49.734.49l2.077.121c2.688.123 4.154.734 4.154 3.055 0 2.444-2.2 3.666-5.132 3.666-3.543 0-5.376-.978-5.376-2.322zm6.354-9.408c0-1.71-.49-2.444-1.71-2.444-1.1 0-1.712.611-1.712 2.322 0 1.588.611 2.321 1.711 2.321 1.222.122 1.71-.61 1.71-2.2z"/></g><g><path fill="#575756" d="M220.426 17.695c-1.1.977-2.444 1.588-4.154 1.588-3.3 0-5.132-2.077-5.132-5.742 0-3.544 2.077-5.621 5.01-5.621 3.054 0 4.52 1.955 4.52 5.254v.733h-6.72c.122 2.81.978 3.788 3.177 3.788.733 0 1.833-.367 2.81-.855zm-2.566-5.132c0-2.566-.488-3.543-1.955-3.543-1.222.122-1.955.855-2.077 3.543z"/></g><g><path fill="#575756" d="M227.4 18.184c1.344 0 1.588-.367 1.588-1.589V6.575c0-1.221-.244-1.588-1.588-1.588V4.01h5.865c4.399 0 7.209 2.2 7.209 7.576 0 4.52-2.2 7.453-7.21 7.453H227.4zm5.865-.49c2.932 0 4.277-1.099 4.277-5.986 0-5.01-1.345-6.354-4.155-6.354h-1.466v12.34z"/></g><g><path fill="#575756" d="M252.688 15.862c0 1.589.244 1.833 1.466 1.833v.733l-3.054.733h-.367c-.244-.366-.489-.977-.489-1.833-.855 1.1-1.955 1.833-3.665 1.833-1.833 0-3.055-.855-3.055-2.932v-4.766c0-1.588-.244-1.832-1.344-1.832v-.856l3.543-.855h.49v7.698c0 1.222.488 1.71 1.465 1.71.978 0 1.589-.366 2.322-1.1v-4.765c0-1.588-.244-1.832-1.344-1.832v-.856l3.543-.855h.489z"/></g><g><path fill="#575756" d="M256.352 19.034c.244-.489.244-1.1.244-2.566V6.45c0-1.588-.366-1.833-1.466-1.833v-.855l3.421-.611h.367c.122.367.366 1.1.366 2.2v4.276c.611-.855 1.711-1.71 3.3-1.71 2.565 0 4.154 1.832 4.154 5.498 0 3.91-1.833 5.742-4.643 5.742-1.589 0-2.688-.733-3.3-1.588-.122.489-.488 1.1-.733 1.466zm5.254-9.286c-.978 0-1.833.489-2.322 1.1v5.865c.611.61 1.222.977 2.322.977 1.466 0 2.321-.855 2.321-4.032-.122-3.055-.855-3.91-2.321-3.91z"/></g><g><path fill="#575756" d="M272.364 16.59c0 1.222.245 1.467 1.467 1.589v.855h-5.499v-.855c1.222-.122 1.466-.244 1.466-1.466V6.449c0-1.588-.366-1.833-1.588-1.833v-.855l3.543-.611h.367c.122.367.367.977.367 2.2v11.24z"/></g><g><path fill="#575756" d="M275.17 18.182c1.222-.122 1.466-.244 1.466-1.466v-5.254c0-1.588-.244-1.833-1.466-1.833v-.855l3.666-.855h.366v8.675c0 1.222.122 1.466 1.344 1.466v.856h-5.376zm2.688-11.485c-.855 0-1.588-.733-1.588-1.589 0-.855.733-1.588 1.71-1.588.978 0 1.589.733 1.589 1.588-.122.856-.856 1.589-1.71 1.589z"/></g><g><path fill="#575756" d="M292.765 16.595c0 1.222.244 1.467 1.344 1.467v.855h-5.377v-.855c1.222 0 1.344-.245 1.344-1.467v-5.01c0-1.343-.488-1.832-1.466-1.832-1.1 0-1.833.489-2.566 1.1v5.864c0 1.1.123 1.345 1.344 1.467v.855h-5.498v-.855c1.222-.122 1.466-.245 1.466-1.467v-5.254c0-1.588-.244-1.832-1.466-1.832v-.856l3.177-.855h.366c.123.244.49 1.1.49 1.955.977-.977 2.076-1.955 3.787-1.955 1.71 0 3.055.978 3.055 3.055z"/></g><g><path fill="#0069b4" d="M80.768 48.115H78.08v-.855h6.598v.855H81.99v8.065h-1.222z"/></g><g><path fill="#0069b4" d="M86.15 46.41h1.1v4.032c.61-.61 1.344-1.1 2.199-1.1 1.344 0 1.955.856 1.955 2.566v4.155h-1.1V52.03c0-1.222-.366-1.711-1.222-1.711-.733 0-1.1.367-1.832.977v4.766h-1.1z"/></g><g><path fill="#0069b4" d="M96.042 49.34c1.711 0 2.689 1.222 2.689 3.055v.61h-4.4c.123 1.467.978 2.322 2.2 2.322.611 0 1.1-.244 1.589-.489l.366.734c-.61.366-1.222.733-2.2.733-1.71 0-3.176-1.344-3.176-3.422 0-2.199 1.344-3.543 2.932-3.543zm1.589 3.055c0-1.344-.611-2.078-1.589-2.078-.977 0-1.71.734-1.955 2.078z"/></g><g><path fill="#0069b4" d="M103.13 47.26h1.1v5.254c0 2.2.855 2.81 2.077 2.81s2.077-.733 2.077-2.81V47.26h1.1v5.254c0 2.81-1.344 3.788-3.177 3.788s-3.177-.978-3.177-3.788z"/></g><g><path fill="#0069b4" d="M111.81 49.582h.977l.123.978c.61-.611 1.344-1.1 2.199-1.1 1.344 0 1.955.855 1.955 2.566v4.154h-1.1v-4.032c0-1.222-.366-1.71-1.222-1.71-.733 0-1.1.366-1.832.977v4.765h-1.1v-6.598z"/></g><g><path fill="#0069b4" d="M119.753 48.246c.367 0 .733-.366.733-.733 0-.489-.366-.733-.733-.733-.366 0-.733.244-.733.733 0 .367.367.733.733.733zm-.489 7.942h1.1V49.59h-1.1z"/></g><g><path fill="#0069b4" d="M121.58 49.59h1.1l1.222 3.788c.244.61.366 1.344.61 1.955.245-.611.367-1.344.611-1.955l1.222-3.788h1.1l-2.322 6.598h-1.344z"/></g><g><path fill="#0069b4" d="M131.352 49.34c1.711 0 2.689 1.222 2.689 3.055v.61h-4.4c.123 1.467.978 2.322 2.2 2.322.611 0 1.1-.244 1.589-.489l.366.734c-.61.366-1.222.733-2.2.733-1.71 0-3.176-1.344-3.176-3.422 0-2.199 1.466-3.543 2.932-3.543zm1.711 3.055c0-1.344-.61-2.078-1.588-2.078-.978 0-1.71.734-1.955 2.078z"/></g><g><path fill="#0069b4" d="M135.63 49.582h.977l.123 1.222c.488-.855 1.1-1.344 1.832-1.344.245 0 .49 0 .734.122l-.245.978c-.244-.123-.366-.123-.61-.123-.612 0-1.223.367-1.711 1.467v4.276h-1.1v-6.598z"/></g><g><path fill="#0069b4" d="M140.037 54.594c.61.489 1.1.733 1.955.733s1.344-.489 1.344-.977c0-.733-.734-.978-1.467-1.222-.977-.367-1.955-.733-1.955-1.955 0-1.1.856-1.833 2.322-1.833.855 0 1.588.367 2.077.733l-.489.733c-.488-.366-.977-.61-1.466-.61-.855 0-1.222.488-1.222.977 0 .61.733.855 1.466 1.1.978.366 1.955.733 1.955 1.954 0 1.1-.855 1.955-2.443 1.955a3.936 3.936 0 0 1-2.444-.855z"/></g><g><path fill="#0069b4" d="M146.383 48.246c.367 0 .733-.366.733-.733 0-.489-.244-.733-.733-.733-.366 0-.733.244-.733.733 0 .367.367.611.733.733zm-.489 7.942h1.1V49.59h-1.1z"/></g><g><path fill="#0069b4" d="M149.437 50.44h-.977v-.855l.977-.122.123-1.833h.977v1.833h1.833v.855h-1.833v3.666c0 .855.245 1.222.978 1.222.244 0 .488-.123.733-.123l.244.856c-.366.122-.855.244-1.222.244-1.466 0-1.833-.855-1.833-2.2z"/></g><g><path fill="#0069b4" d="M153.84 58.013c.733 0 1.222-.61 1.466-1.466l.122-.489-2.688-6.598h1.1l1.344 3.666c.244.61.488 1.221.61 1.832.245-.61.367-1.221.612-1.832l1.221-3.666h1.1l-2.444 7.209c-.488 1.344-1.1 2.322-2.443 2.322-.245 0-.611 0-.733-.123l.244-.855h.489z"/></g><g><path fill="#0069b4" d="M165.445 49.34c1.588 0 3.054 1.222 3.054 3.421 0 2.2-1.466 3.421-3.054 3.421-1.589 0-3.055-1.221-3.055-3.42 0-2.078 1.466-3.422 3.055-3.422zm0 5.987c1.1 0 1.955-.977 1.955-2.566 0-1.466-.733-2.566-1.955-2.566-1.1 0-1.955.978-1.955 2.566.122 1.589.855 2.566 1.955 2.566z"/></g><g><path fill="#0069b4" d="M173.266 47.382c-.245-.122-.49-.122-.734-.122-.61 0-.977.488-.977 1.222v1.1h1.344v.855h-1.344v5.742h-1.1v-5.742h-.855v-.856l.855-.122v-1.1c0-1.344.611-2.199 1.955-2.199.367 0 .856.122 1.1.244z"/></g><g><path fill="#0069b4" d="M179.372 47.26c2.688 0 4.154 1.588 4.154 4.399 0 2.81-1.466 4.52-4.154 4.52h-2.322V47.26zm-.123 7.942c2.078 0 3.177-1.344 3.177-3.543 0-2.2-1.1-3.544-3.177-3.544h-.977v7.087z"/></g><g><path fill="#0069b4" d="M185.242 49.59h1.1v4.032c0 1.222.366 1.71 1.222 1.71.733 0 1.1-.366 1.833-1.099V49.59h1.1v6.598h-.978l-.122-.977c-.611.733-1.222 1.221-2.2 1.221-1.344 0-2.077-.855-2.077-2.565V49.59z"/></g><g><path fill="#0069b4" d="M193.92 46.41v3.91c.61-.489 1.344-.978 2.077-.978 1.71 0 2.566 1.345 2.566 3.3 0 2.199-1.344 3.543-2.81 3.543-.611 0-1.345-.244-1.833-.855l-.123.61h-.855v-9.53zm1.588 8.92c1.1 0 1.833-.978 1.833-2.566 0-1.467-.489-2.444-1.71-2.444-.612 0-1.1.367-1.711.855v3.421c.61.611 1.222.734 1.588.734z"/></g><g><path fill="#0069b4" d="M200.27 46.41h1.1v8.43c0 .367.122.49.366.49h.245l.122.855c-.122.122-.367.122-.611.122-.855 0-1.222-.489-1.222-1.466z"/></g><g><path fill="#0069b4" d="M204.303 48.246c.367 0 .733-.366.733-.733 0-.489-.366-.733-.733-.733-.366 0-.733.244-.733.733 0 .367.367.733.733.733zm-.489 7.942h1.1V49.59h-1.1z"/></g><g><path fill="#0069b4" d="M207.11 49.582h.978l.122.978c.61-.611 1.344-1.1 2.2-1.1 1.343 0 1.954.855 1.954 2.566v4.154h-1.1v-4.032c0-1.222-.366-1.71-1.222-1.71-.733 0-1.1.366-1.832.977v4.765h-1.1z"/></g><g><g><path fill="#0069b4" d="M61.344 2.058V48c0 25.293-30.302 30.303-30.302 30.303S.74 73.293.74 48V2.058S13.325.47 31.042.47s30.302 1.588 30.302 1.588z"/></g><g><path fill="#fff" d="M8.93 8.044c.244.489.61.978 1.344.978.733 0 1.344-.367 1.588-.856-.733.245-1.344-.244-1.588-.61C9.907 7.188 9.54 6.7 8.93 6.7c-.245 0-.733 0-1.1.244.489.123.855.734 1.1 1.1zm1.832.489c-1.1.366-1.466-1.222-1.955-1.466"/></g><g><path fill="#fff" d="M22.366 6.58c1.1.042 2.199-.1 3.299-.123.936-.019 1.877.08 2.81 0 .988-.084 2.166.139 2.933-.489.439-.359-1.033-.5-1.589-.61-.68-.137-1.384-.088-2.077-.123-.136-.006-5.684-.248-5.743-.244-1.07.064-2.29-.112-3.177.489-.695.47-1.248 1.526-.977 2.321.446 1.31 1.526 2.541 2.81 3.055 3.503 1.4 4.215-2.273 7.698-.122.666.411 1.042 1.924.367 2.321-1.3.765-3.014.14-4.521.122-2.038-.023-4.079-.416-6.11-.244-1.35.114-1.888 3.058-2.2 3.421-.33.386-3.63 1.472-3.909 1.71-.482.414-.238 2.324-1.588 2.078-.33-.06-.007-.74-.245-.977-.173-.173-.489 0-.733 0s-.56-.173-.733 0c-.129.128.38.098.489.244.054.073-.2.197-.123.244.213.128.499.044.734.123.038.012.035.1 0 .122-.39.234-.852.346-1.222.61-.212.152-.552.359-.489.612.05.201.405-.148.61-.123.147.019.222.226.367.245.207.025.426-.03.611-.122.052-.026-.173-.097-.122-.123.11-.054.312-.109.367 0 .416.833-.824.333-.856.49-.086.43.335.81.49 1.221.09.241-.014.733.244.733.247 0 .003-.515.122-.733.138-.253.353-.482.61-.611.476-.237.49.733.612.733.207 0 .045-.418.122-.61.015-.039.106.037.122 0 .117-.273.055-.628.244-.856.246-.295.607-.51.978-.611.551-.15 1.253.22 1.71-.122.255-.191-.901-.341-.733-.611.247-.394.95-.12 1.344-.367.125-.078-.484-.156-.366-.244.381-.286.963-.203 1.344-.489.117-.088-.432-.113-.367-.244 1.189-2.377 4.088-2.582 6.11-3.91.198-.13-.48-.17-.611-.367-.072-.107.013-.435.122-.366.685.428 1.232 1.047 1.833 1.588.62.56 1.09 1.327 1.832 1.71.508.263 1.2-.133 1.711.123.618.309 1.144.855 1.466 1.466.138.263.041.774-.244.856-.484.138-.964-.331-1.466-.367-.115-.008-.139.199-.245.244-.19.082-.518-.063-.61.123-.076.15.37.003.488.122.119.118-.037.435.122.488.312.104.653-.168.978-.122.09.013-.055.183-.122.245-.386.35-.933.543-1.222.977-.101.152.226.308.244.489.025.246-.344.622-.122.733.233.117.378-.372.611-.489.265-.132.564-.299.855-.244.412.077.768.355 1.1.61.207.16.255.728.489.612.23-.115-.245-.476-.245-.733 0-.416.031-.866.245-1.222.37-.617.682.539.855.366.147-.147-.106-.404-.122-.61-.025-.326-.103-.669 0-.978.11-.332.567-.508.61-.855.022-.167-.512.044-.488-.123.045-.315.637-.416.61-.733-.028-.344-.698-.389-.732-.733-.026-.26.61-.228.61-.489 0-.26-.426-.304-.61-.488-.185-.185-.228-.611-.489-.611-.26 0-.26.484-.489.61a.652.652 0 0 1-.61 0c-.954-.564-1.82-1.267-2.689-1.954-.115-.091-.39-.345-.244-.367 1.53-.227 4.996.77 5.498-2.077.146-.826-.828-1.459-1.222-2.2-.299-.562-.232-1.576-.855-1.71-.52-.111-.324 1.344-.855 1.344-.58 0-.521-1.344-1.1-1.344-.53 0-.325 1.31-.855 1.344-.547.034-.553-1.256-1.1-1.222-.53.033-.325 1.311-.855 1.344-.547.034-.552-1.244-1.1-1.222-.757.032-1.088 1.484-1.833 1.344C17 9.17 18.96 7.958 19.19 6.58c.019-.113-.308-.148-.244-.244.093-.14.32-.134.488-.122.983.07 1.948.328 2.933.366z"/></g><g><path fill="#fff" d="M23.105 17.08c-.367-.244-.856-.977-1.1-1.71-.244 0-.611.122-.855.244-.245.245-.611 1.1-.611 1.1s-.733.122-.978 1.222l.245-.122c-.245.855 0 1.466.244 1.955a2.66 2.66 0 0 0-.978.61c-.244 0-.244-.488-.488-.732-.122-.123-.489-.245-.733 0h-.611l.488.244s0 .122-.122.122c.245.122.489.244.611.367l-.122.244c-.733-.367-1.466-.244-1.466.244v.123l-.489.488.61-.122c.123.122.245.244.49.244-.611.49-.122 1.222.366 1.345l.367.733v-.733c.489-.123.61-.49.733-.734.122.123.244.123.366.123l.245.61.122-.61s.122 0 .122-.123c.367-.244.245-.733.245-.733s.61.123.977-.366a2.51 2.51 0 0 0 1.344 0l-.366-.367s.61 0 .977-.244c-.122-.367-.122-.489-.122-.733h.122c.244 0 .611-.122.611-.489 0-.244-.244-.489-.489-.489h-.244c-.244-.855 0-1.466.489-1.71z"/></g><g><path fill="#fff" d="M9.66 14.76c-.245-.61-.245-1.466 0-2.2h-.856c0-.854-1.344-.977-1.344-1.221.245-.489.611-.244.978-.61a.59.59 0 0 0 0-.856l.244-.489-1.1.733-.122-.122c.122-.122.733-.61.489-.978-.122-.122-.244-.244-.367-.244l-.244-.733-.122.61c-.244.123-.367.245-.489.367.245.123.367.611.245.856 0 .122-.245.366-.245.489h.122a.263.263 0 0 1-.244.244c-.122 0-.122-.367 0-.489.122-.244.244-.489 0-.855-.122-.245-.489-.245-.733-.122l-.489-.245.244.733c-.122.611.123.978.123.978-.123 0-.245.122-.367.244l-.733-.366.489.733v.244c.122.367.61.489.733.489-.122.367.122.977.489.977 0 .367.122.978.61 1.345l.123-.611c.122.122.61.855.733.977l.122-.489s.489.856 1.71.611z"/></g><g><path fill="#fff" d="M11.127 6.333c-.734.244-.856-.245-.734-.611.611-.245 1.467-.245 1.467-.245l.488-.61c.367-.367 1.222-.123 1.833 0 .367 0 .856.122.856.122 0-.245.122-.489.61-.489.49 0 .611.367.611.489s.123.366-.122.61h.733c0 .734-.244.978-.488 1.1.244.123.61.856.122 1.1.244.244.366 1.1-.367 1.344.245.367.245.855.245 1.344.122.855.244 1.589 1.1 1.589.244.366.121.855-.245 1.1-.367.121-.733.121-1.1-.123-.366-.367-.366-.977-.244-1.344h-.367c-.488 1.466.856 1.71 1.1 2.688.244.733-.122 1.344-.733 1.344 0-1.833-1.955-1.833-1.466-4.154l-.367-.122c-.855 2.199 1.466 3.177 1.222 4.398 0 .611-.489.978-.855.978-.123 0-.245 0-.367-.122-.122-.123-.122-.367-.122-.49.122 0 .244.123.244.123 0 .122 0 .122.122 0 .123-.122.123-.244 0-.367-1.466-.855-1.955-2.81-1.588-3.91l-.244-.122c-.733 1.711.122 3.3.977 4.032v.611c.122.49-.244.978-.733 1.1a.779.779 0 0 1-.733 0 .263.263 0 0 1-.244-.244c0-.122 0-.367.122-.489s.244-.244.366-.244v.122c-.122 0-.122.122 0 .122a.263.263 0 0 0 .245-.244c.122-.978-1.589-2.078-1.222-3.666l-.245-.122c-.61 1.833.734 2.688.978 3.421-.489.122-.733.367-.733.733-.122.122-.245.245-.489.245-.367 0-.61-.245-.61-.611 0-.367.243-.49.488-.611h.244c-1.222-1.1-1.222-3.177-.61-4.155 1.099-1.71 4.642-1.588 4.642-3.543h-.244c-.367 1.222-1.466.61-1.955 1.466l-.61-.244c-.245.122-.734.366-.856.366-.367-1.221 1.222-1.344 1.955-1.466.366-.122.61 0 .733-.61l.122-.734c0-.366-.366-.489-.61-.366-.123 0-.367.122-.49.244-.366.244-.855.489-1.344.489-.244 0-.855 0-.977-.856.244.123.733 0 .855-.366.122-.122.122-.245 0-.367s-.244-.122-.366 0c0 .122-.123.245 0 .367zm1.588-.856c-.122.123-.122.367-.122.367.122.122.122.122.244.122h.122c0-.122.123-.122.123-.122h.122c0 .122 0 .122.122.244 0 .123.122.123.244.123.123 0 .245 0 .367-.123.122-.122.122-.122.122-.244h.122l.122-.244s-.366-.245-.733-.245c-.366 0-.61.122-.733.245l-.122-.123z"/></g><g><path fill="#fff" d="M45.339 24.295c-.122.49.367.856.855.856.489 0 1.467-.245 2.077-1.71.367-.734.367-1.711-.122-2.2-.366-.489-1.1-.733-1.466-.245.733.123.855 1.222.489 2.078-.245.855-.978 1.466-1.833 1.221z"/></g><g><path fill="#fff" d="M46.44 21.236c-3.3-1.955-6.72-6.598-5.743-13.196-.366.122-.855.122-1.222.122-.977 5.62-.366 11.73 5.743 15.762 1.222.245 2.2-1.833 1.222-2.688z"/></g><g><path fill="#fff" d="M53.526 4.865h-.367c-.855 0-1.833.367-2.932.611-1.222.367-2.689.856-4.155.856-1.344 0-2.444-.367-3.421-1.1l-.244-.245c-.856-.61-1.345-.977-2.444-.977-.978 0-1.833.855-1.833 1.833 0 .977.733 1.588 1.71 1.588.734 0 1.222-.366 1.222-.977 0-.367-.122-.733-.61-.856l.122-.488c.977.122 1.588 1.1.977 2.077.733.733 2.566 1.344 3.91 1.344 1.589 0 3.177-.611 4.399-1.1 1.1-.489 2.077-.855 2.932-.855h.367l-.244.489 2.077.733.244-.611c.122-.245.122-.367.122-.611 0-.855-.855-1.589-1.833-1.71z"/></g><g><path fill="#fff" d="M48.517 27.473l.122-.489-3.788-1.344-.122.367h-.122c-.245 0-.367.122-.49.366-.121.244 0 .489.245.611l-.122.489 3.788 1.344.244-.489h.122c.245 0 .367-.122.49-.366 0-.123-.123-.367-.367-.49z"/></g><g><path fill="#fff" d="M52.55 7.68l-.121.489h-.245l-.244.61 2.81 1.1.245-.733-.245-.122.245-.489z"/></g><g><path fill="#fff" d="M48.886 20.874l-.367-.611 4.154-10.752-.61-.123-.245.611-1.222-1.955c-.122 0-.244.123-.366.123h-.123l1.467 2.443-.49 1.1-1.832-3.177c-.122 0-.366.122-.489.122l2.078 3.544-.49 1.1-2.565-4.4c-.244.123-.489.123-.611.123l2.932 4.887-.488 1.1-3.422-5.865h-.61l3.787 6.476c-.122.244-.488 1.1-.488 1.1l-4.521-7.698c-.245 0-.49-.122-.733-.122l5.01 8.43s-.367.978-.49 1.1L42.165 8.29c-.366-.122-.61-.367-.855-.489l6.598 11.241s-.489 1.1-.489 1.222c1.222-.122 2.2 1.344 1.467 3.177-.611 1.466-1.467 1.955-2.078 1.955l1.833.733 5.62-16.129-.977-.366z"/></g><g><path fill="#fff" d="M33.726 61.81v.488h-.977v.978h-.489v-.978h-.978v.978h-.61v-.978h-.978v.978h-.489v-.978h-.855v-.489h.855v-.977h-.61c.122-.122.244-.367.366-.489h.366v-.366c.123-.123.367-.245.49-.367v.733h.977v-.733h.488v.733h.978v-.733c.122.122.367.244.489.367v.366h.366c.122.122.245.244.367.489h-.733v.977zm-2.932-.978h-.978v.977h.978zm1.466 0h-.978v.977h.978z"/></g><g><path fill="#fff" d="M13.69 48.12h.122l.489-.122.61 1.466h.49v-1.588h2.688v1.588h.488l.611-1.466.49.122h.121c-.122-1.588-1.466-2.81-3.054-2.81-1.589 0-2.933 1.222-3.055 2.81z"/></g><g><path fill="#fff" d="M41.554 54.718c0-.366.244-.61.488-.855V52.03h-1.466v2.2h-2.81v-2.2h-2.81v2.2h-2.81v-2.2h-2.811v2.2h-2.81v-2.2h-2.81v2.2h-2.81v-2.2H19.56v1.833c.244.122.489.489.489.855 0 .367-.122.611-.367.855v.367h21.872v-.367c.122-.122 0-.488 0-.855z"/></g><g><path fill="#fff" d="M29.578 57.283c-1.955.611-3.42 2.444-3.42 4.643v4.521h-5.5l-.488-9.897h9.408v.733zm-5.498 1.222c0-.367-.367-.733-.611-.855l-.122-.123-.122.123c-.123.122-.611.488-.611.855v3.177h1.466z"/></g><g><path fill="#fff" d="M26.77 61.923v.611h1.1v-.61-.49l-1.1-.244v.733z"/></g><g><path fill="#fff" d="M27.87 65.1h-1.1v1.344h1.1z"/></g><g><path fill="#fff" d="M27.87 63.15h-1.1v1.344h1.1z"/></g><g><path fill="#fff" d="M34.22 61.437v1.099h1.1v-.61c0-.245 0-.49-.123-.856z"/></g><g><path fill="#fff" d="M27.745 59.12c-.366.367-.61.855-.855 1.466l1.1.245c.122-.367.244-.611.488-.978z"/></g><g><path fill="#fff" d="M35.44 65.1h-1.1v1.344h1.1z"/></g><g><path fill="#fff" d="M34.343 59.12l-.733.733c.244.244.367.611.489.978l1.1-.245c-.245-.61-.49-1.1-.856-1.466z"/></g><g><path fill="#fff" d="M35.44 63.15h-1.1v1.344h1.1z"/></g><g><path fill="#fff" d="M31.9 56.55h-1.71l.122 2.566h1.466z"/></g><g><path fill="#fff" d="M29.698 58.99l-.122-1.1c-.489.122-.977.489-1.466.855l.733.733c.367-.244.611-.366.855-.488z"/></g><g><path fill="#fff" d="M33.848 58.625c-.366-.366-.977-.61-1.466-.855l-.122 1.1c.244.122.489.244.733.488z"/></g><g><path fill="#fff" d="M14.184 51.789l-1.344-2.81c.367-.122.733-.122 1.1-.245l.61 1.467h.123c.366-.123.855-.123 1.222-.123h.244V48.49h1.344v1.588h.244c.49 0 .856.123 1.222.123h.123l.61-1.344h.245c.366 0 .61 0 .855.122l-1.466 2.932v2.444c.733.122.733.977.122.855-1.344-.244-4.032-.244-5.376 0-.489 0-.489-.733.122-.855zm.367.489h.244c.122-.122.367-.122.61-.122v1.832h.49v-1.832h.855c.489 0 .977.122 1.344.122v-.489c-.367-.122-.855-.122-1.344-.122-.733 0-1.466 0-2.077.122h-.122z"/></g><g><path fill="#fff" d="M18.337 55.57v1.833h.856v.489c-.489 0-1.344-.123-2.322-.123h-.977l-.122 2.933h1.1c1.099 0 1.954 0 2.565-.122v.488h-.977l.122 2.933c.489-.122.733-.122.977-.245v.49c-.61.121-1.588.244-2.688.244h-1.344l-.122 3.054c-.244 0-.367 0-.489-.122l.122-2.81c-.366 0-.733-.122-1.1-.245v-.488c.612.244 1.711.366 2.811.366h1.222l-.122-2.932h-1.1c-1.222 0-2.077 0-2.688-.122v-.49c.244 0 .61 0 1.1.123l.122-2.81h-.978v-.489c.611 0 1.344-.122 2.444-.122h.978V55.57c-1.345 0-2.933 0-3.666.122L13.45 67.3c.122.244 1.1.61 3.299.61 2.322 0 3.177-.488 3.3-.61l-.612-11.608c-.244-.122-.733-.122-1.1-.122z"/></g><g><path fill="#fff" d="M42.89 47.998l.612 1.466h.489v-1.588h2.688v1.588h.488l.611-1.466.49.122h.121c-.122-1.588-1.466-2.81-3.054-2.81-1.589 0-2.933 1.222-3.055 2.81h.122z"/></g><g><path fill="#fff" d="M48.272 48.734c.367 0 .856.123 1.1.245l-1.344 2.81v2.444c.733.122.733.855.122.855-1.344-.244-4.154-.244-5.376 0-.61 0-.61-.733.122-.855v-2.444l-1.466-2.932c.244 0 .489-.123.855-.123h.245l.61 1.467h.123c.366-.123.855-.123 1.222-.123h.244V48.49h1.344v1.588h.244c.367 0 .734.123 1.1.123h.122zm-.733 3.055h-.122c-.61-.122-1.344-.122-2.077-.122-.489 0-.855.122-1.344.122v.489c.489-.122.855-.122 1.344-.122h.855v1.832h.489v-1.832c.244.122.367.122.61.122h.123z"/></g><g><path fill="#fff" d="M44.356 55.576v1.833h.977c1.1 0 1.833 0 2.444.122v.489H46.8l.122 2.81c.366 0 .733 0 .977-.122v.488c-.61 0-1.466.123-2.688.123h-1.1l-.122 2.932h1.222c1.222 0 2.2-.122 2.81-.366v.488c-.244.122-.61.122-1.1.245l.123 2.81c-.122 0-.367 0-.489.122l-.122-2.81H45.09c-1.1 0-2.077-.122-2.688-.245v-.488c.244.122.489.122.977.244l.123-2.932h-.978v-.49c.611 0 1.466.123 2.566.123h1.1l-.122-2.932h-.978c-1.1 0-1.833 0-2.321.122v-.489h.855V55.82c-.489 0-.855.122-1.222.122L41.79 67.55c.122.122.978.611 3.299.611 2.2 0 3.3-.489 3.3-.61l-.612-11.609c-.489-.366-2.077-.488-3.421-.366z"/></g><g><path fill="#fff" d="M32.51 56.55h9.408l-.488 9.897H35.93v-4.52c0-2.2-1.466-4.033-3.421-4.644zm5.498 5.132h1.467v-3.177c0-.367-.367-.733-.611-.855l-.122-.123-.123.123c-.122.122-.61.488-.61.855z"/></g><g><path fill="#fff" d="M16.498 40.79H11v-6.11h5.254v-.122c-.244-.122-.489-.366-.489-.733 0-.488.367-.855.856-.855.488 0 .855.367.855.855 0 .367-.122.611-.489.733v10.264h-.489zm.245-6.72c.244 0 .366-.123.366-.367s-.244-.366-.366-.366c-.245 0-.367.244-.367.366 0 .244.245.367.367.367zm-.122 4.276v-1.222h-1.955V35.17h-1.222v1.955h-1.955v1.222h1.955v1.955h1.222v-1.955z"/></g><g><path fill="#fff" d="M51.078 34.683v6.11H45.58v3.91h-.49V34.437c-.366-.122-.61-.366-.61-.733 0-.488.367-.855.855-.855.489 0 .856.367.856.855 0 .367-.245.611-.611.733v.245zm-5.376-.978c0-.244-.122-.366-.367-.366-.244 0-.366.122-.366.366 0 .245.122.367.366.367.122 0 .367-.122.367-.367zm4.887 1.467h-.855l-1.71 1.71-1.711-1.71h-.856v.855l1.711 1.71-1.71 1.711v.855h.855l1.71-1.71 1.711 1.71h.855v-.855l-1.71-1.71 1.71-1.711z"/></g><g><path fill="#fff" d="M25.173 44.573V27.71H36.66c.855 0 1.71.123 1.955.978.122.49.122.856-.123 1.222-.244.245-.61.489-.977.489h-9.897v1.1h.611v-.489h9.53c.611 0 .978-.244 1.344-.733.245-.367.245-1.1.123-1.589-.367-.977-1.222-1.588-2.322-1.588H24.44v18.084h1.588c-.366-.367-.733-.49-.733-.49z"/></g><g><path fill="#fff" d="M27.62 37.98v1.466h.611v-1.344h-.244c-.123-.122-.245-.122-.367-.122z"/></g><g><path fill="#fff" d="M22.614 40.424v-.122c0-.611-.122-1.222-.489-1.222h-.122c-.122 0-.366 0-.366.489v.366l-.367-.244h-.122c-.122 0-.245.244-.367.489-.122.366 0 .977.733 1.344l.123.122v.122c0 .489.122.855.488.855.245.123.367-.244.367-.366v-.367l.244.122c.122 0 .367.123.733.123h.367V40.79c-.367 0-.855 0-1.222-.123z"/></g><g><path fill="#fff" d="M22.614 30.154v-.122c0-.611-.122-1.222-.489-1.222h-.122c-.122 0-.366 0-.366.489v.366l-.367-.244c-.122 0-.122-.122-.122-.122-.122 0-.245.244-.367.489-.122.366 0 .977.733 1.344l.123.122v.122c0 .489.122.855.488.855.245.122.367-.244.367-.366v-.367l.244.122c.122 0 .367.122.733.122h.367v-1.344c-.367 0-.855 0-1.222-.122z"/></g><g><path fill="#fff" d="M37.884 46.29H28.23v-.488h-.611v1.1h10.141c.611 0 1.344-.245 1.589-.611.122-.122.122-.367 0-.611-.245.489-.855.61-1.466.61z"/></g><g><path fill="#fff" d="M27.62 42.38v.489h.611v-.489h-.611z"/></g><g><path fill="#fff" d="M25.79 28.45v15.64c.244.122.489.244.733.489v-.367c0-.489.244-.855.489-1.1V41.89c-.245-.244-.489-.733-.489-1.1 0-.488.244-.854.489-1.099v-2.077c-.245-.244-.489-.733-.489-1.1 0-.488.244-.855.489-1.1v-1.221c-.245-.245-.489-.733-.489-1.1 0-.489.244-.855.489-1.1v-2.199h.244c-.489-.61-.977-1.1-1.466-1.344z"/></g><g><path fill="#fff" d="M37.52 29.796c.245 0 .367-.122.489-.244s.122-.367 0-.611c-.122-.367-.367-.611-1.344-.611H26.89c.367.367.855.733 1.222 1.466z"/></g><g><path fill="#fff" d="M38.25 45.917c.244 0 .733-.245.855-.733V31.01c-.244.244-.488.367-.855.489z"/></g><g><path fill="#fff" d="M27.987 34.56h-.367v.489h.611v-.489h-.244z"/></g><g><path fill="#fff" d="M29.33 35.655c.245-.244.367-.61.367-.978 0-.366-.122-.733-.366-.977a1.472 1.472 0 0 1-.611.61v.734c.244.122.489.367.61.611z"/></g><g><path fill="#fff" d="M29.33 43.595c.245-.244.367-.61.367-.978 0-.366-.122-.733-.366-.977a1.472 1.472 0 0 1-.611.61v.734c.244.122.489.244.61.611z"/></g><g><path fill="#fff" d="M28.846 36.513c0-.489-.366-.733-.733-.733-.489 0-.733.367-.733.733 0 .489.367.733.733.733.367 0 .733-.366.733-.733z"/></g><g><path fill="#fff" d="M28.846 40.793c0-.489-.366-.733-.733-.733-.489 0-.733.367-.733.733 0 .489.367.733.733.733.367.122.733-.244.733-.733z"/></g><g><path fill="#fff" d="M27.983 32.24c-.489 0-.733.367-.733.733 0 .489.367.733.733.733.489 0 .733-.366.733-.733.122-.366-.244-.733-.733-.733z"/></g><g><path fill="#fff" d="M28.846 44.333c0-.489-.366-.733-.733-.733-.489 0-.733.367-.733.733 0 .489.367.733.733.733.367 0 .733-.366.733-.733z"/></g><g><path fill="#fff" d="M36.542 33.95l-2.322 2.322 2.2 2.199 1.343-1.344v-1.955z"/></g><g><path fill="#fff" d="M37.765 32.85l-.855.733.855.855z"/></g><g><path fill="#fff" d="M28.722 45.918h4.521l-1.833-1.833-.733.733-.366-.366.733-.733-.367-.367.367-.366.366.366 1.955-1.833-2.2-2.2-.977.978-.366-.366.977-.978-.977-.977.366-.367.978.978 2.321-2.322-2.199-2.2-.244.245-.367-.366.245-.245-.856-.855.367-.367.855.856 2.077-1.833H28.6v.122c.489.245.855.733.855 1.344.49.367.856.978.856 1.71 0 .734-.245 1.223-.856 1.711 0 .611-.366 1.1-.855 1.345v1.588c.489.244.855.733.855 1.344.49.367.856.978.856 1.71 0 .612-.245 1.223-.856 1.711v.122c0 .611-.366 1.1-.855 1.344v.367z"/></g><g><path fill="#fff" d="M34.83 31.5l1.71 1.833 1.222-1.222V31.5z"/></g><g><path fill="#fff" d="M37.76 37.86l-1.1.977 1.1 1.1z"/></g><g><path fill="#fff" d="M37.758 42.132v-1.588L36.414 39.2l-2.444 2.2 2.2 2.32z"/></g><g><path fill="#fff" d="M37.762 42.87l-1.222 1.1 1.222 1.344z"/></g><g><path fill="#fff" d="M31.65 33.7l2.2 2.199 2.32-2.322-2.076-2.077z"/></g><g><path fill="#fff" d="M31.53 38.952l2.077 2.199 2.444-2.322-2.2-2.199z"/></g><g><path fill="#fff" d="M35.812 43.97l-2.2-2.2-1.832 1.955 2.077 2.2z"/></g><g><path fill="#fff" d="M36.178 44.33l-1.588 1.588h3.055z"/></g></g></g></g></g></svg>