<svg xmlns="http://www.w3.org/2000/svg" width="277" height="73" viewBox="0 0 277 73"><g><g><g/><g><g><path fill="#fff" d="M72.41 30.71c0-2.862 1.494-4.35 3.793-4.35 1.265 0 1.954.229 2.529.572v1.489h-1.15c-.23-.916-.46-1.374-1.379-1.374-1.264 0-1.954.916-1.954 3.663 0 2.863.805 3.55 2.07 3.55.919 0 1.263-.458 1.493-1.374h1.035v1.488c-.46.344-1.38.687-2.529.687-2.644-.115-3.908-1.717-3.908-4.35z"/></g><g><path fill="#fff" d="M82.414 34.947c-1.725 0-2.874-1.145-2.874-3.091 0-1.947 1.15-3.206 2.989-3.206 1.724 0 2.873 1.145 2.873 3.091-.115 2.175-1.38 3.206-2.988 3.206zm0-5.61c-.92 0-1.265.801-1.265 2.404 0 1.717.345 2.519 1.38 2.519.804 0 1.264-.802 1.264-2.519-.115-1.717-.575-2.404-1.38-2.404z"/></g><g><path fill="#fff" d="M88.164 33.462c0 .687.115.801.804.916v.457h-3.103v-.457c.69 0 .805-.115.805-.802v-5.61c0-.916-.23-1.03-.92-1.03v-.573l1.954-.343h.23c.115.229.23.572.23 1.145z"/></g><g><path fill="#fff" d="M95.287 34.604c-.23.115-.575.23-1.034.23-.805 0-1.035-.344-1.15-.802-.23.343-.69.916-1.609.916-1.15 0-1.954-.573-1.954-1.717 0-1.374 1.15-1.947 2.989-1.947h.46v-.572c0-.916-.23-1.374-.92-1.374-.805 0-1.035.458-1.15 1.145h-1.034v-1.145c.575-.343 1.494-.687 2.414-.687 1.379 0 2.184.573 2.184 2.06v2.52c0 .801.114.915.804.915zm-4.598-6.983l2.184-2.061.805 1.26-2.759 1.144zm1.954 4.236c-1.034 0-1.609.343-1.609 1.145 0 .801.345 1.03.92 1.03.46 0 .804-.229 1.15-.687v-1.488h-.46z"/></g><g><path fill="#fff" d="M95.63 34.373c.69 0 .805-.114.805-.801v-2.863c0-.915-.115-1.03-.805-1.03v-.458l2.069-.572h.23v4.808c0 .687.115.802.804.802v.457H95.63zm1.494-6.411c-.46 0-.92-.458-.92-.916s.46-.916.92-.916c.575 0 .92.458.92.916s-.46.916-.92.916z"/></g><g><path fill="#fff" d="M99.31 34.489v-1.26h1.034c.115.802.46 1.145 1.265 1.145.69 0 1.15-.229 1.15-.916 0-.572-.346-.801-.92-.915l-.805-.23c-.92-.228-1.494-.8-1.494-1.717 0-1.26 1.034-1.946 2.299-1.946 1.034 0 1.609.229 1.954.458v1.145h-.92c-.115-.687-.46-.916-1.15-.916-.574 0-1.034.343-1.034.801s.23.687.805.802l.805.229c1.149.229 1.724.801 1.724 1.831 0 1.26-.92 1.947-2.53 1.947-1.263 0-1.953-.344-2.183-.458z"/></g><g><path fill="#fff" d="M107.818 29.563h-1.264v3.435c0 .916.115 1.145.69 1.145.23 0 .46 0 .69-.115l.114.573a3.07 3.07 0 0 1-1.38.343c-1.034 0-1.608-.458-1.608-1.717v-3.664h-.69v-.572l.805-.344c.115-.572.23-1.145.574-1.603l.92-.114c-.115.458-.115 1.145-.115 1.717h1.494z"/></g><g><path fill="#fff" d="M113.562 34.03c-.574.573-1.379.917-2.298.917-1.84 0-2.874-1.145-2.874-3.206 0-1.946 1.15-3.091 2.759-3.091 1.724 0 2.528 1.03 2.528 2.862v.458h-3.793c0 1.488.575 2.06 1.724 2.06.69 0 1.265-.114 1.725-.457zm-1.379-2.747c0-1.488-.345-1.946-1.034-1.946-.69 0-1.035.458-1.15 1.946z"/></g><g><path fill="#fff" d="M122.872 33.454c0 .687.115.801.69.801v.458h-2.989v-.343c.69 0 .805-.115.805-.802v-2.862c0-.687-.345-1.03-.805-1.03-.574 0-1.034.229-1.38.572v3.206c0 .572.116.801.806.801v.458h-2.989v-.343c.69 0 .805-.115.805-.802v-2.862c0-.916-.115-1.03-.805-1.03v-.458l1.724-.458h.23c.115.114.23.572.23 1.03.575-.572 1.15-1.03 2.069-1.03.92 0 1.724.572 1.724 1.717v2.977z"/></g><g><path fill="#fff" d="M129.887 34.603c-.23.115-.575.23-1.034.23-.805 0-1.035-.344-1.15-.802-.23.343-.69.916-1.609.916-1.15 0-1.954-.573-1.954-1.718 0-1.373 1.15-1.946 2.989-1.946h.46v-.572c0-.916-.23-1.374-.92-1.374-.805 0-1.035.458-1.15 1.145h-1.034v-1.145c.575-.344 1.494-.687 2.414-.687 1.379 0 2.184.572 2.184 2.06v2.52c0 .8.115.915.804.915zm-2.758-2.747c-1.035 0-1.61.343-1.61 1.144 0 .802.345 1.03.92 1.03.46 0 .804-.228 1.15-.686v-1.488h-.46z"/></g><g><path fill="#fff" d="M139.192 26.47l.115 2.06h-.69c-.23-1.03-.345-1.373-1.034-1.373h-.805v6.182c0 .687.23.916 1.034.916v.458h-3.563v-.458c.805 0 1.035-.114 1.035-.916v-6.182h-.805c-.805 0-.805.343-1.034 1.374h-.805l.115-2.061z"/></g><g><path fill="#fff" d="M143.218 28.65c.115 0 .345 0 .46.114l-.345 1.489c-.115-.115-.345-.115-.575-.115-.92 0-1.264.344-1.264 1.374v1.946c0 .687.115.802 1.034.802v.458h-3.218v-.344c.69 0 .805-.114.805-.801V30.71c0-.916-.115-1.03-.805-1.03v-.459l1.724-.458h.23c.115.23.23.687.345 1.489.23-1.03.92-1.603 1.61-1.603z"/></g><g><path fill="#fff" d="M143.79 34.833v-.458c.69 0 .805-.114.805-.8v-2.863c0-.916-.115-1.03-.805-1.03v-.458l2.069-.458h.23v4.808c0 .687.115.801.804.801v.458zm0-7.212l2.184-2.061.805 1.26-2.76 1.144z"/></g><g><path fill="#fff" d="M150.344 34.947c-1.725 0-2.874-1.145-2.874-3.091 0-1.947 1.15-3.206 2.989-3.206 1.724 0 2.873 1.145 2.873 3.091 0 2.175-1.38 3.206-2.988 3.206zm0-5.61c-.92 0-1.265.801-1.265 2.404 0 1.717.345 2.519 1.38 2.519.804 0 1.264-.802 1.264-2.519s-.46-2.404-1.38-2.404z"/></g><g><path fill="#fff" d="M159.882 33.454c0 .687.115.801.69.801v.458h-2.989v-.343c.69 0 .805-.115.805-.802v-2.862c0-.687-.345-1.03-.805-1.03-.574 0-1.034.229-1.38.572v3.206c0 .572.116.801.806.801v.458h-2.989v-.343c.69 0 .805-.115.805-.802v-2.862c0-.916-.115-1.03-.805-1.03v-.458l1.724-.458h.23c.115.114.23.572.23 1.03.575-.572 1.15-1.03 2.069-1.03.92 0 1.724.572 1.724 1.717v2.977z"/></g><g><path fill="#fff" d="M164.024 34.948c-1.725 0-2.874-1.145-2.874-3.091 0-1.947 1.15-3.206 2.989-3.206 1.724 0 2.873 1.145 2.873 3.091 0 2.176-1.264 3.206-2.988 3.206zm-1.38-7.327l2.184-2.061.805 1.26-2.759 1.144zm1.38 1.717c-.92 0-1.265.801-1.265 2.404 0 1.718.345 2.519 1.38 2.519.804 0 1.264-.801 1.264-2.519 0-1.717-.46-2.404-1.38-2.404z"/></g><g><path fill="#fff" d="M167.59 34.831v-.458c.69 0 .805-.114.805-.801v-2.863c0-.915-.115-1.03-.805-1.03v-.458l2.069-.458h.23v4.809c0 .687.115.801.804.801v.458zm1.494-6.87c-.46 0-.92-.457-.92-.915s.46-.916.92-.916c.575 0 .92.458.92.916a.905.905 0 0 1-.92.916z"/></g><g><path fill="#fff" d="M173.684 34.95c-1.38 0-2.414-.916-2.414-3.091 0-2.061 1.034-3.206 2.644-3.206.574 0 1.15.23 1.494.687v-1.488c0-.916-.23-1.03-.805-1.03v-.459l2.07-.343h.23v7.098c0 .916.114 1.03.804 1.03v.458l-1.724.458h-.23c0-.114-.23-.458-.345-1.03-.345.458-1.035.916-1.724.916zm.46-.916c.46 0 .92-.229 1.264-.687v-3.32c-.345-.343-.805-.572-1.264-.572-.805 0-1.38.458-1.38 2.175.115 1.832.46 2.404 1.38 2.404z"/></g><g><path fill="#fff" d="M183.452 34.03c-.574.573-1.379.917-2.298.917-1.84 0-2.874-1.145-2.874-3.206 0-1.946 1.15-3.091 2.759-3.091 1.724 0 2.528 1.03 2.528 2.862v.458h-3.793c0 1.488.575 2.06 1.724 2.06.575 0 1.15-.114 1.725-.457zm-1.494-2.747c0-1.488-.345-1.946-1.034-1.946-.69 0-1.035.458-1.15 1.946z"/></g><g><path fill="#fff" d="M184.595 36.55l-.345-.459c.805-.229 1.15-.572 1.15-.916 0-.229-.116-.343-.46-.458-.23-.114-.575-.343-.575-.801s.46-.916.92-.916c.69 0 1.149.572 1.149 1.374.115 1.03-.575 1.832-1.84 2.175z"/></g><g><path fill="#fff" d="M189.66 34.255c.69 0 .92-.229.92-.916v-5.495c0-.687-.115-.916-.92-.916v-.458h3.448c1.954 0 2.874.687 2.874 2.175 0 1.03-.575 1.603-1.61 1.832 1.38.229 2.07 1.03 2.07 2.06 0 1.49-1.15 2.176-2.874 2.176h-3.908zm3.448-4.121c1.035 0 1.38-.344 1.38-1.489s-.345-1.488-1.495-1.488h-.92v2.977zm.23 4.007c1.15 0 1.494-.458 1.494-1.603s-.344-1.603-1.609-1.603h-1.15v3.206z"/></g><g><path fill="#fff" d="M202.987 34.603c-.23.115-.575.23-1.034.23-.805 0-1.035-.344-1.15-.802-.23.343-.69.916-1.609.916-1.15 0-1.954-.573-1.954-1.718 0-1.373 1.15-1.946 3.103-1.946h.46v-.572c0-.916-.23-1.374-.92-1.374-.804 0-1.034.458-1.149 1.145H197.7v-1.145c.574-.344 1.494-.687 2.414-.687 1.379 0 2.183.572 2.183 2.06v2.52c-.114.8 0 .915.69.915zm-2.644-2.747c-1.034 0-1.609.343-1.609 1.144 0 .802.345 1.03.92 1.03.46 0 .804-.228 1.15-.686v-1.488h-.46z"/></g><g><path fill="#fff" d="M203.45 34.831v-.458c.69 0 .805-.114.805-.801v-2.863c0-.915-.115-1.03-.805-1.03v-.458l2.069-.458h.23v4.809c0 .687.115.801.804.801v.458zm1.38-6.87c-.46 0-.92-.457-.92-.915s.46-.916.92-.916c.574 0 .919.458.919.916a.905.905 0 0 1-.92.916z"/></g><g><path fill="#fff" d="M209.194 33.462c0 .687.115.801.804.916v.457h-3.103v-.457c.69 0 .805-.115.805-.802v-5.61c0-.916-.23-1.03-.92-1.03v-.573l1.954-.343h.23c.115.229.23.572.23 1.145z"/></g><g><path fill="#fff" d="M215.752 34.03c-.574.573-1.379.917-2.298.917-1.84 0-2.874-1.145-2.874-3.206 0-1.946 1.15-3.091 2.759-3.091 1.724 0 2.528 1.03 2.528 2.862v.458h-3.793c0 1.488.575 2.06 1.724 2.06.575 0 1.265-.114 1.725-.457zm-1.379-2.747c0-1.488-.345-1.946-1.034-1.946-.69 0-1.15.458-1.15 1.946z"/></g><g><path fill="#fff" d="M223.453 32.432h-2.644l-.345 1.145c0 .114-.115.229-.115.343 0 .344.23.344.805.344v.458h-2.644v-.458c.575 0 .69-.23.92-.916l2.298-6.87h1.265l2.299 6.87c.23.572.344.916.92.916v.458h-3.22v-.458c.575 0 .805-.115.805-.458 0-.115 0-.23-.115-.344zm-2.414-.801h2.184l-.575-1.947c-.23-.801-.46-1.488-.46-1.831h-.115c-.115.343-.23.915-.46 1.831zm0-5.954l2.414-1.717.69 1.374-2.76.801z"/></g><g><path fill="#fff" d="M229.658 29.563h-1.264v3.435c0 .916.115 1.145.69 1.145.23 0 .46 0 .69-.115l.114.573a3.07 3.07 0 0 1-1.38.343c-1.034 0-1.608-.458-1.608-1.717v-3.664h-.69v-.572l.805-.344c.115-.572.23-1.145.574-1.603l.92-.114c-.115.458-.115 1.145-.115 1.717h1.494z"/></g><g><path fill="#fff" d="M232.529 29.684c.575-.573 1.15-1.03 2.069-1.03.92 0 1.724.572 1.724 1.716v3.092c0 .687.115.801.69.801v.458h-2.989v-.343c.69 0 .805-.115.805-.802v-2.862c0-.687-.345-1.03-.805-1.03-.574 0-1.034.229-1.38.572v3.206c0 .572.116.801.806.801v.458h-2.989v-.343c.69 0 .805-.115.805-.802v-5.61c0-.916-.23-1.03-.805-1.03v-.573l1.954-.343h.23c.115.229.23.572.23 1.145v2.519z"/></g><g><path fill="#fff" d="M243.217 34.603c-.23.115-.575.23-1.034.23-.805 0-1.035-.344-1.15-.802-.23.343-.69.916-1.609.916-1.15 0-1.954-.573-1.954-1.718 0-1.373 1.15-1.946 3.103-1.946h.46v-.572c0-.916-.23-1.374-.92-1.374-.804 0-1.034.458-1.149 1.145h-1.034v-1.145c.574-.344 1.494-.687 2.414-.687 1.379 0 2.184.572 2.184 2.06v2.52c-.115.8 0 .915.69.915zm-2.758-2.747c-1.035 0-1.61.343-1.61 1.144 0 .802.345 1.03.92 1.03.46 0 .804-.228 1.15-.686v-1.488h-.46z"/></g><g><path fill="#fff" d="M246.09 30.71c0-2.862 1.494-4.35 3.793-4.35 1.264 0 1.954.229 2.529.572v1.489h-1.15c-.23-.916-.46-1.374-1.379-1.374-1.264 0-1.954.916-1.954 3.663 0 2.863.805 3.55 2.07 3.55.919 0 1.263-.458 1.493-1.374h1.035v1.488c-.46.344-1.38.687-2.529.687-2.644-.115-3.908-1.717-3.908-4.35z"/></g><g><path fill="#fff" d="M255.294 33.462c0 .687.115.801.804.916v.457h-3.103v-.457c.69 0 .805-.115.805-.802v-5.61c0-.916-.23-1.03-.92-1.03v-.573l1.954-.343h.23c.115.229.23.572.23 1.145z"/></g><g><path fill="#fff" d="M256.55 34.373c.69 0 .805-.114.805-.801v-2.863c0-.915-.115-1.03-.805-1.03v-.458l2.069-.572h.23v4.808c0 .687.115.802.804.802v.457h-3.103zm1.38-6.411c-.46 0-.92-.458-.92-.916s.46-.916.92-.916c.574 0 .919.458.919.916a.905.905 0 0 1-.92.916z"/></g><g><path fill="#fff" d="M265.867 34.603c-.23.115-.575.23-1.034.23-.805 0-1.035-.344-1.15-.802-.23.343-.69.916-1.609.916-1.15 0-1.954-.573-1.954-1.718 0-1.373 1.15-1.946 2.989-1.946h.46v-.572c0-.916-.23-1.374-.92-1.374-.805 0-1.035.458-1.15 1.145h-1.034v-1.145c.575-.344 1.494-.687 2.414-.687 1.379 0 2.184.572 2.184 2.06v2.52c0 .8.114.915.804.915zm-2.644-2.747c-1.034 0-1.609.343-1.609 1.144 0 .802.345 1.03.92 1.03.46 0 .804-.228 1.15-.686v-1.488h-.46z"/></g><g><path fill="#fff" d="M269.658 29.563h-1.264v3.435c0 .916.115 1.145.69 1.145.23 0 .46 0 .69-.115l.114.573a3.07 3.07 0 0 1-1.38.343c-1.034 0-1.608-.458-1.608-1.717v-3.664h-.69v-.572l.805-.344c.115-.572.23-1.145.574-1.603l.92-.114c-.115.458-.115 1.145-.115 1.717h1.494z"/></g><g><path fill="#fff" d="M272.419 29.684c.575-.573 1.15-1.03 2.069-1.03.92 0 1.724.572 1.724 1.716v3.092c0 .687.115.801.69.801v.458h-2.989v-.343c.69 0 .805-.115.805-.802v-2.862c0-.687-.345-1.03-.805-1.03-.574 0-1.034.229-1.38.572v3.206c0 .572.116.801.806.801v.458h-2.989v-.343c.69 0 .805-.115.805-.802v-5.61c0-.916-.23-1.03-.805-1.03v-.573l1.954-.343h.23c.115.229.23.572.23 1.145v2.519z"/></g><g><path fill="#fff" d="M81.61 3.35l.23 3.435h-1.38c-.345-1.718-.575-2.29-1.839-2.29h-1.15v10.418c0 1.26.46 1.488 1.725 1.488v.802h-5.977v-.801c1.264 0 1.724-.23 1.724-1.489V4.61h-1.15c-1.264 0-1.379.573-1.839 2.29H70.69l.23-3.435h10.69z"/></g><g><path fill="#fff" d="M88.852 7.01c.23 0 .574 0 .69.114l-.46 2.634c-.23-.115-.46-.115-.92-.115-1.61 0-2.069.573-2.069 2.29v3.32c0 1.145.23 1.374 1.724 1.374v.801H82.3v-.801c1.15-.115 1.38-.23 1.38-1.374V10.33c0-1.488-.23-1.717-1.38-1.717V7.81l2.989-.801h.344c.115.343.46 1.26.46 2.519.575-1.603 1.61-2.519 2.759-2.519z"/></g><g><path fill="#fff" d="M90.46 16.628c1.15-.114 1.38-.229 1.38-1.374v-4.922c0-1.489-.23-1.718-1.38-1.718v-.801l3.448-.801h.345v8.128c0 1.145.115 1.374 1.265 1.374v.801H90.46zm2.414-10.761c-.805 0-1.494-.687-1.494-1.489 0-.801.69-1.488 1.609-1.488.92 0 1.494.687 1.494 1.488 0 .802-.69 1.489-1.61 1.489z"/></g><g><path fill="#fff" d="M107.015 15.139c0 1.144.23 1.373 1.264 1.373v.802h-5.057v-.802c1.15 0 1.38-.229 1.38-1.373v-4.694c0-1.26-.46-1.718-1.38-1.718-1.035 0-1.724.458-2.414 1.03v5.496c0 1.03.115 1.26 1.264 1.374v.801H96.9v-.801c1.15-.115 1.38-.23 1.38-1.374V10.33c0-1.488-.23-1.717-1.38-1.717V7.81l2.989-.801h.344c.115.229.46 1.03.46 1.832.92-.916 1.954-1.832 3.563-1.832 1.61 0 2.874.916 2.874 2.862v5.267z"/></g><g><path fill="#fff" d="M109.54 16.628c1.15-.114 1.38-.229 1.38-1.374v-4.922c0-1.489-.23-1.718-1.38-1.718v-.801l3.448-.801h.345v8.128c0 1.145.115 1.374 1.264 1.374v.801h-5.057zm2.414-10.761c-.805 0-1.494-.687-1.494-1.489 0-.801.69-1.488 1.609-1.488.92 0 1.494.687 1.494 1.488 0 .802-.69 1.489-1.61 1.489z"/></g><g><path fill="#fff" d="M121.722 8.61h-2.184v5.725c0 1.488.23 2.06 1.265 2.06.344 0 .69-.114 1.149-.228l.23.916c-.69.457-1.494.686-2.414.686-1.724 0-2.644-.686-2.644-2.862V8.61h-1.264v-.915l1.38-.458a7.77 7.77 0 0 1 .919-2.748l1.61-.229c-.116.687-.23 1.946-.23 2.977h2.413z"/></g><g><path fill="#fff" d="M124.14 19.948c1.723-.344 2.988-.801 3.677-2.633l-.919.114c-.23-1.03-.575-1.946-1.15-3.663l-1.609-4.35c-.345-1.031-.574-1.26-1.379-1.375V7.24h5.057v.801c-.919 0-1.264.23-1.264.573 0 .114.115.343.115.458l1.38 4.236c.344 1.03.46 1.832.574 2.175h.115c0-.229.23-1.03.46-1.946l1.38-4.465c.114-.23.114-.344.114-.458 0-.458-.23-.573-1.264-.687V7.24h4.023v.801c-.805.115-1.035.23-1.495 1.26l-2.873 8.128c-.92 2.405-1.954 3.778-4.253 4.122z"/></g><g><path fill="#fff" d="M139.43 10.562c0-4.923 2.529-7.442 6.322-7.442 2.069 0 3.333.458 4.253.916v2.519h-1.84c-.344-1.489-.919-2.29-2.413-2.29-2.07 0-3.333 1.488-3.333 6.068 0 4.923 1.379 5.953 3.448 5.953 1.609 0 2.184-.687 2.529-2.29h1.724V16.4c-.805.573-2.3 1.03-4.253 1.03-4.253.23-6.437-2.403-6.437-6.868z"/></g><g><path fill="#fff" d="M156.663 17.657c-2.989 0-4.943-1.946-4.943-5.266 0-3.32 1.954-5.381 4.943-5.381 2.988 0 4.942 1.946 4.942 5.266.115 3.55-2.184 5.381-4.942 5.381zm0-9.502c-1.61 0-2.184 1.26-2.184 4.121 0 2.977.574 4.236 2.299 4.236 1.494 0 2.183-1.373 2.183-4.236 0-2.976-.804-4.121-2.298-4.121z"/></g><g><path fill="#fff" d="M167.008 15.143c0 1.145.23 1.374 1.38 1.489v.801h-5.173v-.801c1.15-.115 1.38-.23 1.38-1.374V5.641c0-1.488-.346-1.717-1.495-1.717v-.802l3.333-.572h.345c.115.343.345.916.345 2.06v10.534z"/></g><g><path fill="#fff" d="M173.563 15.143c0 1.145.23 1.374 1.38 1.489v.801h-5.288v-.801c1.15-.115 1.38-.23 1.38-1.374V5.641c0-1.488-.346-1.717-1.495-1.717v-.802l3.333-.572h.345c.115.343.345.916.345 2.06z"/></g><g><path fill="#fff" d="M185.176 16.169c-1.035.916-2.3 1.488-3.908 1.488-2.989 0-4.828-1.946-4.828-5.38 0-3.32 1.954-5.267 4.598-5.267 2.873 0 4.253 1.832 4.253 4.923v.687h-6.322c.115 2.633.92 3.549 2.988 3.549.92 0 1.954-.344 2.759-.801zm-2.3-4.809c0-2.404-.459-3.32-1.838-3.32-1.15.115-1.84.802-1.954 3.32z"/></g><g><path fill="#fff" d="M186.9 19.144c0-.686.575-1.144 1.034-1.373h1.495c-.115.229-.23.572-.23 1.03 0 1.03.575 1.603 2.299 1.603 1.954 0 2.643-.687 2.643-1.717 0-1.145-.574-1.374-2.873-1.489-.805 0-1.724-.114-2.07-.114-1.034-.115-1.378-.802-1.378-1.718 0-.915.804-1.602 2.069-1.946-1.61-.343-2.53-1.488-2.53-2.976 0-2.061 1.61-3.32 4.139-3.32.69 0 1.264.114 1.839.228.46.115.92.23 1.38.23.689 0 1.264-.344 1.838-.802l.92 1.603c-.46.343-.92.458-1.494.458-.46 0-.92-.115-1.38-.344.575.458 1.035 1.03 1.035 1.947 0 2.404-2.3 3.09-4.368 3.09h-.115c-.575.23-.92.459-.92.917 0 .229.115.458.69.458l1.954.114c2.529.115 3.908.687 3.908 2.862 0 2.29-2.069 3.435-4.828 3.435-3.333 0-5.057-.916-5.057-2.175zm5.977-8.815c0-1.603-.46-2.29-1.61-2.29-1.034 0-1.608.573-1.608 2.176 0 1.488.574 2.175 1.609 2.175 1.15.114 1.609-.573 1.609-2.06z"/></g><g><path fill="#fff" d="M206.666 16.169c-1.035.916-2.3 1.488-3.908 1.488-3.104 0-4.828-1.946-4.828-5.38 0-3.32 1.954-5.267 4.713-5.267 2.873 0 4.253 1.832 4.253 4.923v.687h-6.322c.115 2.633.92 3.549 2.988 3.549.69 0 1.724-.344 2.644-.801zm-2.414-4.809c0-2.404-.46-3.32-1.84-3.32-1.149.115-1.838.802-1.953 3.32z"/></g><g><path fill="#fff" d="M213.22 16.63c1.264 0 1.494-.343 1.494-1.488V5.754c0-1.145-.23-1.488-1.494-1.488V3.35h5.517c4.138 0 6.782 2.06 6.782 7.098 0 4.236-2.069 6.984-6.782 6.984h-5.517zm5.517-.457c2.759 0 4.023-1.03 4.023-5.61 0-4.694-1.264-5.954-3.908-5.954h-1.38v11.564z"/></g><g><path fill="#fff" d="M237.015 14.452c0 1.488.23 1.717 1.38 1.717v.687l-2.874.687h-.345c-.23-.344-.46-.916-.46-1.718-.804 1.03-1.839 1.718-3.448 1.718-1.724 0-2.874-.802-2.874-2.748V10.33c0-1.488-.23-1.717-1.264-1.717V7.81l3.333-.801h.46v7.213c0 1.145.46 1.602 1.38 1.602.919 0 1.494-.343 2.183-1.03V10.33c0-1.488-.23-1.717-1.264-1.717V7.81l3.333-.801h.46z"/></g><g><path fill="#fff" d="M240.46 17.433c.23-.458.23-1.03.23-2.404V5.641c0-1.488-.346-1.717-1.38-1.717v-.802l3.218-.572h.345c.115.343.345 1.03.345 2.06v4.008c.575-.802 1.61-1.603 3.104-1.603 2.413 0 3.908 1.717 3.908 5.152 0 3.663-1.725 5.38-4.368 5.38-1.494 0-2.529-.686-3.104-1.488-.115.458-.46 1.03-.69 1.374zm4.942-8.7a2.85 2.85 0 0 0-2.184 1.03v5.495c.575.572 1.15.916 2.184.916 1.38 0 2.184-.801 2.184-3.778-.115-2.862-.805-3.664-2.184-3.664z"/></g><g><path fill="#fff" d="M255.518 15.143c0 1.145.23 1.374 1.38 1.489v.801h-5.173v-.801c1.15-.115 1.38-.23 1.38-1.374V5.641c0-1.488-.346-1.717-1.495-1.717v-.802l3.333-.572h.345c.115.343.345.916.345 2.06v10.534z"/></g><g><path fill="#fff" d="M258.16 16.628c1.15-.114 1.38-.229 1.38-1.374v-4.922c0-1.489-.23-1.718-1.38-1.718v-.801l3.448-.801h.345v8.128c0 1.145.115 1.374 1.265 1.374v.801h-5.058zm2.529-10.761c-.805 0-1.495-.687-1.495-1.489 0-.801.69-1.488 1.61-1.488.92 0 1.494.687 1.494 1.488-.115.802-.805 1.489-1.61 1.489z"/></g><g><path fill="#fff" d="M274.71 15.139c0 1.144.23 1.373 1.264 1.373v.802h-5.057v-.802c1.15 0 1.264-.229 1.264-1.373v-4.694c0-1.26-.46-1.718-1.38-1.718-1.034 0-1.723.458-2.413 1.03v5.496c0 1.03.115 1.26 1.264 1.374v.801h-5.172v-.801c1.15-.115 1.38-.23 1.38-1.374V10.33c0-1.488-.23-1.717-1.38-1.717V7.81l2.989-.801h.344c.115.229.46 1.03.46 1.832.92-.916 1.954-1.832 3.563-1.832 1.61 0 2.874.916 2.874 2.862z"/></g><g><path fill="#0069b4" d="M75.289 44.681H72.76v-.801h6.207v.801h-2.529v7.557h-1.15z"/></g><g><path fill="#0069b4" d="M80.35 43.07h1.034v3.779c.575-.573 1.265-1.031 2.07-1.031 1.264 0 1.839.801 1.839 2.404v3.892h-1.035v-3.778c0-1.144-.345-1.602-1.15-1.602-.689 0-1.034.343-1.724.915v4.465H80.35z"/></g><g><path fill="#0069b4" d="M89.659 45.82c1.609 0 2.528 1.145 2.528 2.862v.573H88.05c.115 1.373.92 2.175 2.07 2.175.574 0 1.034-.23 1.494-.458l.344.687c-.574.343-1.149.687-2.068.687-1.61 0-2.989-1.26-2.989-3.206 0-2.06 1.264-3.32 2.759-3.32zm1.494 2.862c0-1.26-.575-1.946-1.494-1.946-.92 0-1.61.687-1.84 1.946z"/></g><g><path fill="#0069b4" d="M96.32 43.88h1.034v4.923c0 2.06.805 2.633 1.955 2.633 1.149 0 1.954-.687 1.954-2.633V43.88h1.034v4.923c0 2.633-1.264 3.549-2.988 3.549-1.725 0-2.989-.916-2.989-3.55z"/></g><g><path fill="#0069b4" d="M104.48 46.054h.92l.114.916c.575-.572 1.265-1.03 2.07-1.03 1.264 0 1.839.801 1.839 2.404v3.893h-1.035v-3.778c0-1.145-.345-1.603-1.15-1.603-.689 0-1.034.343-1.724.916v4.465h-1.034z"/></g><g><path fill="#0069b4" d="M111.95 44.794c.344 0 .69-.344.69-.687 0-.458-.346-.687-.69-.687-.345 0-.69.229-.69.687 0 .343.345.687.69.687zm-.46 7.441h1.034v-6.182h-1.034z"/></g><g><path fill="#0069b4" d="M113.68 46.05h1.034l1.15 3.55c.23.572.345 1.258.575 1.83.23-.572.344-1.258.574-1.83l1.15-3.55h1.034l-2.184 6.182h-1.264z"/></g><g><path fill="#0069b4" d="M122.879 45.82c1.609 0 2.528 1.145 2.528 2.862v.573h-4.138c.115 1.373.92 2.175 2.07 2.175.574 0 1.034-.23 1.494-.458l.344.687c-.574.343-1.149.687-2.068.687-1.61 0-2.989-1.26-2.989-3.206 0-2.06 1.38-3.32 2.759-3.32zm1.609 2.862c0-1.26-.575-1.946-1.494-1.946-.92 0-1.61.687-1.84 1.946z"/></g><g><path fill="#0069b4" d="M126.9 46.054h.92l.114 1.145c.46-.801 1.035-1.259 1.725-1.259.23 0 .46 0 .69.114l-.23.916c-.23-.114-.345-.114-.575-.114-.575 0-1.15.343-1.61 1.374v4.007H126.9z"/></g><g><path fill="#0069b4" d="M131.035 50.743c.575.458 1.034.687 1.839.687.805 0 1.264-.458 1.264-.916 0-.687-.69-.916-1.379-1.145-.92-.343-1.84-.687-1.84-1.832 0-1.03.805-1.717 2.185-1.717.804 0 1.494.343 1.954.687l-.46.687c-.46-.344-.92-.573-1.38-.573-.804 0-1.149.458-1.149.916 0 .573.69.802 1.38 1.03.92.344 1.839.688 1.839 1.832 0 1.03-.805 1.832-2.3 1.832-.919 0-1.723-.343-2.298-.801z"/></g><g><path fill="#0069b4" d="M137.01 44.794c.344 0 .69-.344.69-.687 0-.458-.23-.687-.69-.687-.345 0-.69.229-.69.687 0 .343.345.572.69.687zm-.46 7.441h1.034v-6.182h-1.034z"/></g><g><path fill="#0069b4" d="M139.89 46.853h-.92v-.801l.92-.115.114-1.717h.92v1.717h1.724v.802h-1.724v3.434c0 .802.23 1.145.92 1.145.23 0 .46-.114.69-.114l.23.801c-.346.115-.805.229-1.15.229-1.38 0-1.724-.801-1.724-2.06z"/></g><g><path fill="#0069b4" d="M144.024 53.954c.69 0 1.15-.572 1.38-1.374l.115-.458-2.529-6.182h1.034l1.265 3.435c.23.572.46 1.144.575 1.717.23-.573.344-1.145.574-1.717l1.15-3.435h1.034l-2.299 6.755c-.46 1.26-1.034 2.175-2.299 2.175-.23 0-.574 0-.69-.115l.23-.801h.46z"/></g><g><path fill="#0069b4" d="M154.944 45.82c1.494 0 2.873 1.145 2.873 3.206 0 2.06-1.38 3.205-2.873 3.205-1.495 0-2.874-1.145-2.874-3.205 0-1.947 1.38-3.206 2.874-3.206zm0 5.61c1.034 0 1.839-.916 1.839-2.404 0-1.374-.69-2.405-1.84-2.405-1.034 0-1.839.916-1.839 2.405.115 1.488.805 2.404 1.84 2.404z"/></g><g><path fill="#0069b4" d="M162.298 43.995c-.23-.115-.46-.115-.69-.115-.574 0-.919.458-.919 1.145v1.03h1.264v.802h-1.264v5.38h-1.034v-5.38h-.805v-.801l.805-.115v-1.03c0-1.26.574-2.061 1.839-2.061.345 0 .804.114 1.034.229z"/></g><g><path fill="#0069b4" d="M168.044 43.88c2.529 0 3.908 1.488 3.908 4.122 0 2.633-1.38 4.236-3.908 4.236h-2.184V43.88zm-.115 7.442c1.954 0 2.988-1.26 2.988-3.32 0-2.061-1.034-3.32-2.988-3.32h-.92v6.64z"/></g><g><path fill="#0069b4" d="M173.565 46.05h1.034v3.778c0 1.145.345 1.603 1.15 1.603.69 0 1.034-.344 1.724-1.03V46.05h1.034v6.182h-.919l-.115-.916c-.575.687-1.15 1.145-2.069 1.145-1.264 0-1.954-.801-1.954-2.404V46.05z"/></g><g><path fill="#0069b4" d="M181.725 43.07v3.664c.574-.458 1.264-.916 1.954-.916 1.609 0 2.413 1.259 2.413 3.09 0 2.062-1.264 3.32-2.643 3.32-.575 0-1.265-.228-1.724-.8l-.115.572h-.805v-8.93zm1.494 8.358c1.034 0 1.724-.916 1.724-2.405 0-1.374-.46-2.29-1.61-2.29-.574 0-1.034.344-1.609.802v3.206c.575.572 1.15.687 1.495.687z"/></g><g><path fill="#0069b4" d="M187.7 43.07h1.034v7.9c0 .343.115.458.345.458h.23l.115.8c-.115.115-.345.115-.575.115-.804 0-1.149-.458-1.149-1.373z"/></g><g><path fill="#0069b4" d="M191.5 44.794c.344 0 .69-.344.69-.687 0-.458-.346-.687-.69-.687-.345 0-.69.229-.69.687 0 .343.345.687.69.687zm-.46 7.441h1.034v-6.182h-1.034z"/></g><g><path fill="#0069b4" d="M194.14 46.054h.92l.114.916c.575-.572 1.265-1.03 2.07-1.03 1.264 0 1.839.801 1.839 2.404v3.893h-1.035v-3.778c0-1.145-.345-1.603-1.15-1.603-.689 0-1.034.343-1.724.916v4.465h-1.034z"/></g><g><g><path fill="#0069b4" d="M57.012 1.518v43.047c0 23.699-28.506 28.393-28.506 28.393S0 68.264 0 44.565V1.518S11.84.03 28.506.03c16.667 0 28.506 1.488 28.506 1.488z"/></g><g><path fill="#fff" d="M7.704 7.13c.23.457.575.915 1.265.915s1.264-.343 1.494-.801c-.69.229-1.264-.23-1.494-.573-.345-.343-.69-.801-1.265-.801-.23 0-.69 0-1.034.229.46.114.805.687 1.034 1.03zm1.725.457c-1.035.344-1.38-1.145-1.84-1.374"/></g><g><path fill="#fff" d="M20.348 5.75c1.035.04 2.069-.094 3.104-.115.88-.017 1.765.075 2.644 0 .928-.079 2.036.131 2.758-.458.414-.337-.971-.468-1.494-.572-.64-.128-1.302-.082-1.954-.115-.128-.006-5.347-.232-5.402-.229-1.006.06-2.153-.105-2.989.458-.653.44-1.174 1.43-.92 2.176.421 1.228 1.438 2.381 2.644 2.862 3.296 1.313 3.964-2.13 7.242-.115.625.385.978 1.804.344 2.175-1.223.717-2.834.131-4.253.115-1.917-.022-3.836-.39-5.747-.229-1.27.107-1.77 2.858-2.069 3.206-.31.36-3.417 1.38-3.678 1.602-.458.391-.22 2.177-1.494 1.947-.31-.056-.007-.694-.23-.916-.163-.162-.46 0-.69 0-.23 0-.526-.162-.69 0-.12.12.358.092.46.229.052.068-.188.185-.114.229.2.12.468.04.69.114.035.012.032.095 0 .115-.368.22-.801.324-1.15.572-.2.142-.52.335-.46.573.048.19.38-.139.575-.115.137.017.208.212.345.229.193.024.4-.027.574-.114.049-.024-.163-.09-.115-.115.103-.051.294-.103.345 0 .39.776-.776.319-.804.458-.081.403.314.76.46 1.145.084.226-.012.687.23.687.231 0 .003-.483.114-.687.13-.237.333-.452.575-.573.45-.224.453.687.575.687.194 0 .042-.391.115-.572.014-.036.1.035.114 0 .11-.255.052-.588.23-.802.232-.276.571-.477.92-.572.519-.14 1.178.207 1.61-.114.238-.18-.85-.32-.69-.573.232-.37.893-.112 1.264-.343.117-.073-.456-.147-.345-.23.36-.268.905-.189 1.264-.457.11-.083-.406-.106-.344-.23 1.118-2.227 3.854-2.424 5.747-3.663.186-.122-.45-.158-.575-.343-.067-.1.012-.407.115-.344.644.402 1.159.982 1.724 1.489.584.523 1.027 1.243 1.724 1.602.478.247 1.128-.125 1.61.115.58.29 1.076.8 1.379 1.374.13.246.037.725-.23.801-.456.13-.907-.31-1.38-.343-.107-.008-.13.186-.23.229-.179.076-.486-.06-.574.114-.071.141.348.003.46.115.111.11-.035.408.115.458.293.097.613-.158.92-.115.084.012-.052.172-.116.23-.363.328-.877.508-1.15.915-.094.142.214.288.23.458.024.231-.322.583-.114.687.22.11.355-.349.574-.458.25-.124.531-.28.805-.229.387.072.722.333 1.035.572.194.15.24.682.46.573.215-.108-.23-.446-.23-.687 0-.39.028-.812.23-1.145.351-.584.637.51.804.344.138-.138-.1-.379-.115-.573-.024-.304-.097-.626 0-.916.104-.312.534-.475.575-.801.02-.157-.483.042-.46-.115.042-.295.6-.39.575-.687-.027-.323-.658-.364-.69-.687-.024-.243.575-.213.575-.458 0-.244-.401-.285-.575-.457-.173-.173-.215-.573-.46-.573-.245 0-.245.454-.46.573a.615.615 0 0 1-.574 0c-.897-.53-1.712-1.188-2.529-1.832-.108-.086-.366-.324-.23-.344 1.43-.21 4.7.722 5.173-1.946.137-.774-.78-1.367-1.15-2.06-.281-.528-.22-1.479-.805-1.604-.487-.104-.306 1.26-.804 1.26-.543 0-.491-1.26-1.035-1.26-.498 0-.307 1.229-.804 1.26-.514.032-.521-1.177-1.035-1.145-.497.03-.307 1.228-.804 1.26-.514.031-.52-1.167-1.035-1.146-.71.03-1.024 1.39-1.724 1.26-3.555-.664-1.71-1.797-1.494-3.091.018-.107-.29-.14-.23-.23.088-.13.302-.125.46-.114.924.066 1.832.307 2.758.344z"/></g><g><path fill="#fff" d="M21.032 15.593c-.345-.23-.805-.916-1.035-1.603-.23 0-.574.114-.804.229-.23.229-.575 1.03-.575 1.03s-.69.115-.92 1.145l.23-.114c-.23.801 0 1.374.23 1.832-.345.114-.69.343-.92.572-.23 0-.23-.458-.46-.687-.114-.114-.459-.229-.689 0h-.575l.46.229s0 .114-.115.114c.23.115.46.23.575.344l-.115.229c-.69-.344-1.38-.23-1.38.229v.114l-.459.458.575-.114c.115.114.23.229.46.229-.575.458-.115 1.145.344 1.26l.345.686v-.687c.46-.114.575-.458.69-.687.115.115.23.115.345.115l.23.572.114-.572s.115 0 .115-.115c.345-.229.23-.687.23-.687s.575.115.92-.343c.46.114.804.114 1.264 0l-.345-.344s.575 0 .92-.229c-.115-.343-.115-.458-.115-.686h.115c.23 0 .575-.115.575-.458 0-.23-.23-.458-.46-.458h-.23c-.23-.802 0-1.374.46-1.603z"/></g><g><path fill="#fff" d="M8.393 13.427c-.23-.573-.23-1.374 0-2.061h-.805c0-.801-1.264-.916-1.264-1.145.23-.458.574-.229.92-.572a.552.552 0 0 0 0-.802l.23-.458-1.035.687-.115-.114c.115-.115.69-.573.46-.916-.115-.115-.23-.23-.345-.23l-.23-.686-.115.572c-.23.115-.345.23-.46.344.23.114.345.572.23.801 0 .115-.23.344-.23.458h.115c0 .115-.115.23-.23.23s-.115-.344 0-.459c.115-.229.23-.458 0-.801-.115-.23-.46-.23-.69-.115l-.46-.229.23.687c-.114.573.115.916.115.916-.114 0-.23.115-.344.23l-.69-.344.46.687v.229c.115.343.574.458.69.458-.116.343.114.915.46.915 0 .344.114.916.574 1.26l.115-.573c.115.115.575.802.69.916l.114-.458s.46.802 1.61.573z"/></g><g><path fill="#fff" d="M9.772 5.527c-.69.23-.804-.229-.69-.572.575-.23 1.38-.23 1.38-.23l.46-.572c.344-.343 1.149-.114 1.724 0 .345 0 .804.115.804.115 0-.229.115-.458.575-.458.46 0 .575.343.575.458 0 .114.115.343-.115.572h.69c0 .687-.23.916-.46 1.03.23.115.574.802.115 1.031.23.23.344 1.03-.345 1.26.23.343.23.8.23 1.259.115.801.23 1.488 1.034 1.488.23.344.115.802-.23 1.03-.345.115-.69.115-1.034-.114-.345-.343-.345-.916-.23-1.26h-.345c-.46 1.375.805 1.604 1.035 2.52.23.686-.115 1.259-.69 1.259 0-1.718-1.84-1.718-1.38-3.893l-.344-.114c-.805 2.06 1.38 2.976 1.15 4.121 0 .573-.46.916-.805.916-.115 0-.23 0-.345-.114-.115-.115-.115-.344-.115-.458.115 0 .23.114.23.114 0 .115 0 .115.115 0 .115-.114.115-.229 0-.343-1.38-.802-1.84-2.633-1.495-3.664l-.23-.114c-.69 1.602.115 3.09.92 3.778v.572c.115.458-.23.916-.69 1.03a.735.735 0 0 1-.69 0c-.114 0-.23-.114-.23-.228 0-.115 0-.344.116-.458.115-.115.23-.23.345-.23v.115c-.115 0-.115.115 0 .115s.23-.115.23-.23c.114-.915-1.495-1.946-1.15-3.434l-.23-.114c-.575 1.717.69 2.518.92 3.205-.46.115-.69.344-.69.687-.115.115-.23.23-.46.23-.345 0-.574-.23-.574-.573 0-.344.23-.458.46-.573h.23c-1.15-1.03-1.15-2.976-.575-3.892 1.034-1.603 4.367-1.489 4.367-3.32h-.23c-.344 1.144-1.379.572-1.839 1.373l-.574-.229c-.23.115-.69.344-.805.344-.345-1.145 1.15-1.26 1.84-1.374.344-.114.574 0 .689-.572l.115-.687c0-.344-.345-.458-.575-.344-.115 0-.345.115-.46.23-.345.228-.804.457-1.264.457-.23 0-.805 0-.92-.801.23.114.69 0 .805-.344.115-.114.115-.229 0-.343-.115-.115-.23-.115-.345 0 0 .114-.115.229 0 .343zm1.38-.458c.114.115.114.115.23.115h.114c0-.115.115-.115.115-.115h.115c0 .115 0 .115.115.23 0 .114.115.114.23.114s.23 0 .345-.115c.115-.114.115-.114.115-.229h.115l.115-.229s-.345-.229-.69-.229-.575.115-.69.23l-.115-.115c-.115.114-.115.343-.115.343z"/></g><g><path fill="#fff" d="M41.958 22.35c-.115.459.345.802.804.802.46 0 1.38-.229 1.954-1.603.345-.687.345-1.602-.114-2.06-.345-.458-1.035-.687-1.38-.23.69.115.805 1.145.46 1.947-.23.801-.92 1.374-1.724 1.145z"/></g><g><path fill="#fff" d="M42.985 19.494c-3.104-1.831-6.322-6.182-5.403-12.364-.344.114-.804.114-1.149.114-.92 5.267-.345 10.991 5.402 14.77 1.15.228 2.07-1.718 1.15-2.52z"/></g><g><path fill="#fff" d="M49.653 4.151h-.345c-.805 0-1.724.344-2.759.573-1.15.343-2.528.801-3.908.801-1.264 0-2.299-.343-3.218-1.03l-.23-.23c-.805-.572-1.264-.915-2.299-.915-.92 0-1.724.801-1.724 1.717s.69 1.489 1.61 1.489c.689 0 1.149-.344 1.149-.916 0-.344-.115-.687-.575-.802l.115-.458c.92.115 1.494 1.03.92 1.947.69.687 2.413 1.259 3.678 1.259 1.494 0 2.988-.572 4.137-1.03 1.035-.458 1.955-.802 2.76-.802h.344l-.23.458 1.954.687.23-.572c.115-.23.115-.344.115-.573 0-.801-.805-1.488-1.724-1.603z"/></g><g><path fill="#fff" d="M44.943 25.327l.115-.458-3.563-1.259-.115.343h-.115c-.23 0-.345.115-.46.344-.115.229 0 .458.23.572l-.115.458 3.563 1.26.23-.458h.115c.23 0 .345-.115.46-.344 0-.114-.115-.343-.345-.458z"/></g><g><path fill="#fff" d="M48.735 6.78l-.115.458h-.23l-.23.572 2.644 1.03.23-.686-.23-.115.23-.458z"/></g><g><path fill="#fff" d="M45.286 19.15l-.344-.572L48.85 8.503l-.575-.115-.23.573-1.15-1.832c-.114 0-.23.114-.344.114h-.115l1.38 2.29-.46 1.03-1.725-2.976c-.115 0-.345.114-.46.114l1.955 3.32-.46 1.03-2.414-4.12c-.23.114-.46.114-.575.114l2.759 4.58-.46 1.03-3.218-5.496h-.575l3.563 6.068c-.115.23-.46 1.03-.46 1.03l-4.252-7.212c-.23 0-.46-.115-.69-.115l4.713 7.9s-.345.916-.46 1.03l-5.632-9.502c-.345-.115-.575-.343-.805-.458l6.207 10.533s-.46 1.03-.46 1.145c1.15-.115 2.07 1.259 1.38 2.976-.575 1.374-1.38 1.832-1.955 1.832l1.725.687 5.287-15.112-.92-.344z"/></g><g><path fill="#fff" d="M31.038 57.5v.459h-.92v.916h-.46v-.916h-.92v.916h-.574v-.916h-.92v.916h-.46v-.916h-.804V57.5h.805v-.916h-.575c.115-.115.23-.344.345-.458h.345v-.344c.114-.114.344-.229.46-.343v.687h.919v-.687h.46v.687h.92v-.687c.114.114.344.229.459.343v.344h.345c.115.114.23.229.345.458h-.69v.916zm-2.76-.915h-.919v.916h.92zm1.38 0h-.92v.916h.92z"/></g><g><path fill="#fff" d="M12.18 44.673h.115l.46-.114.574 1.374h.46v-1.489h2.529v1.489h.46l.574-1.374.46.114h.115c-.115-1.488-1.38-2.633-2.873-2.633-1.495 0-2.76 1.145-2.874 2.633z"/></g><g><path fill="#fff" d="M38.39 50.859c0-.344.23-.573.46-.802V48.34h-1.38v2.06h-2.643v-2.06h-2.644v2.06h-2.644v-2.06h-2.644v2.06h-2.643v-2.06h-2.644v2.06h-2.644v-2.06H17.7v1.717c.23.115.46.458.46.802 0 .343-.115.572-.345.801v.344H38.39v-.344c.115-.114 0-.458 0-.801z"/></g><g><path fill="#fff" d="M27.13 53.267c-1.838.572-3.218 2.29-3.218 4.35v4.236H18.74l-.46-9.273h8.85zm-5.172 1.145c0-.344-.345-.687-.575-.802l-.114-.114-.115.114c-.115.115-.575.458-.575.802v2.976h1.38z"/></g><g><path fill="#fff" d="M24.48 57.617v.572h1.034v-.572-.458l-1.034-.229v.687z"/></g><g><path fill="#fff" d="M25.514 60.59H24.48v1.26h1.034z"/></g><g><path fill="#fff" d="M25.514 58.76H24.48v1.26h1.034z"/></g><g><path fill="#fff" d="M31.49 57.153v1.031h1.034v-.573c0-.229 0-.458-.114-.801z"/></g><g><path fill="#fff" d="M25.405 54.98c-.345.343-.575.801-.805 1.374l1.034.229c.115-.344.23-.573.46-.916z"/></g><g><path fill="#fff" d="M32.644 60.59H31.61v1.26h1.034z"/></g><g><path fill="#fff" d="M31.61 54.98l-.69.687c.23.229.345.572.46.916l1.034-.23c-.23-.572-.46-1.03-.804-1.373z"/></g><g><path fill="#fff" d="M32.644 58.76H31.61v1.26h1.034z"/></g><g><path fill="#fff" d="M29.31 52.58H27.7l.115 2.404h1.38z"/></g><g><path fill="#fff" d="M27.244 54.87l-.115-1.03c-.46.114-.92.458-1.379.801l.69.687a6.6 6.6 0 0 1 .804-.458z"/></g><g><path fill="#fff" d="M31.154 54.521c-.345-.343-.92-.572-1.38-.801l-.114 1.03c.23.115.46.23.69.458z"/></g><g><path fill="#fff" d="M12.644 48.111l-1.264-2.633c.345-.115.69-.115 1.034-.229l.575 1.374h.115c.345-.115.805-.115 1.15-.115h.23V45.02h1.264v1.488h.23c.46 0 .804.115 1.15.115h.114l.575-1.26h.23c.345 0 .574 0 .804.115l-1.379 2.748v2.29c.69.114.69.915.115.8-1.264-.228-3.793-.228-5.058 0-.46 0-.46-.686.115-.8zm.345.458h.23c.115-.114.345-.114.575-.114v1.717h.46v-1.717h.804c.46 0 .92.114 1.265.114v-.458c-.345-.114-.805-.114-1.265-.114-.69 0-1.38 0-1.954.114h-.115z"/></g><g><path fill="#fff" d="M16.548 51.66v1.717h.804v.458c-.46 0-1.264-.114-2.184-.114h-.92l-.114 2.747h1.034c1.035 0 1.84 0 2.414-.114v.458h-.92l.116 2.748c.46-.115.69-.115.92-.23v.459a13.61 13.61 0 0 1-2.53.229h-1.264l-.115 2.862c-.23 0-.345 0-.46-.115l.115-2.633c-.345 0-.69-.114-1.034-.229v-.458c.574.23 1.609.344 2.643.344h1.15l-.115-2.748h-1.035c-1.149 0-1.954 0-2.528-.115v-.458c.23 0 .574 0 1.034.115l.115-2.633h-.92v-.458c.575 0 1.265-.115 2.3-.115h.919V51.66c-1.264 0-2.759 0-3.448.114l-.575 10.877c.115.229 1.034.572 3.103.572 2.184 0 2.989-.458 3.104-.572l-.575-10.877c-.23-.114-.69-.114-1.034-.114z"/></g><g><path fill="#fff" d="M39.655 44.559l.574 1.374h.46v-1.489h2.529v1.489h.46l.574-1.374.46.114h.115c-.115-1.488-1.38-2.633-2.873-2.633-1.495 0-2.76 1.145-2.874 2.633h.115z"/></g><g><path fill="#fff" d="M44.717 45.249c.345 0 .804.114 1.034.229l-1.264 2.633v2.29c.69.114.69.801.115.801-1.264-.229-3.908-.229-5.058 0-.574 0-.574-.687.115-.801v-2.29l-1.379-2.748c.23 0 .46-.114.805-.114h.23l.574 1.374h.115c.345-.115.805-.115 1.15-.115h.23V45.02h1.264v1.488h.23c.345 0 .69.115 1.034.115h.115zm-.69 2.862h-.115c-.574-.114-1.264-.114-1.954-.114-.46 0-.804.114-1.264.114v.458c.46-.114.804-.114 1.264-.114h.805v1.717h.46v-1.717c.23.114.344.114.574.114h.115z"/></g><g><path fill="#fff" d="M41.034 51.663v1.717h.92c1.034 0 1.723 0 2.298.115v.458h-.92l.116 2.633c.344 0 .69 0 .92-.115v.458c-.576 0-1.38.115-2.53.115h-1.034l-.115 2.747h1.15c1.149 0 2.068-.114 2.643-.343v.458c-.23.114-.575.114-1.034.229l.115 2.633c-.115 0-.345 0-.46.115l-.115-2.634h-1.265a13.61 13.61 0 0 1-2.528-.229v-.457c.23.114.46.114.92.228l.114-2.747h-.92v-.458c.575 0 1.38.114 2.414.114h1.035l-.115-2.747h-.92c-1.034 0-1.724 0-2.183.114v-.458h.804v-1.717c-.46 0-.804.114-1.15.114l-.574 10.877c.115.114.92.572 3.103.572 2.07 0 3.104-.458 3.104-.572l-.575-10.877c-.46-.343-1.954-.458-3.218-.343z"/></g><g><path fill="#fff" d="M29.89 52.58h8.85l-.46 9.273h-5.172v-4.236c0-2.06-1.379-3.778-3.218-4.35zm5.172 4.808h1.38v-2.976c0-.344-.345-.687-.575-.802l-.115-.114-.115.114c-.115.115-.575.458-.575.802z"/></g><g><path fill="#fff" d="M14.832 37.807H9.66v-5.724h4.943v-.115c-.23-.114-.46-.343-.46-.687 0-.458.345-.801.804-.801.46 0 .805.343.805.801 0 .344-.115.573-.46.687v9.617h-.46zm.23-6.297c.23 0 .345-.114.345-.343 0-.23-.23-.344-.345-.344-.23 0-.345.23-.345.344 0 .229.23.343.345.343zm-.115 4.007v-1.144h-1.839V32.54h-1.15v1.832H10.12v1.144h1.839v1.832h1.15v-1.832z"/></g><g><path fill="#fff" d="M47.357 32.087v5.725h-5.173v3.663h-.46v-9.617c-.344-.114-.574-.343-.574-.687 0-.458.345-.801.805-.801.46 0 .804.343.804.801 0 .344-.23.573-.575.687v.23zm-5.058-.916c0-.229-.115-.343-.344-.343-.23 0-.345.114-.345.343 0 .23.115.344.345.344.115 0 .344-.115.344-.344zm4.598 1.374h-.804l-1.61 1.603-1.609-1.603h-.804v.802l1.609 1.602-1.61 1.603v.802h.805l1.61-1.603 1.609 1.603h.804v-.802l-1.609-1.603 1.61-1.602z"/></g><g><path fill="#fff" d="M22.99 41.362v-15.8h10.804c.805 0 1.61.115 1.84.916.114.458.114.802-.115 1.145-.23.23-.575.458-.92.458h-9.31v1.03h.574v-.457h8.965c.575 0 .92-.23 1.265-.687.23-.344.23-1.03.115-1.489-.345-.916-1.15-1.488-2.184-1.488H22.3v16.944h1.494c-.345-.344-.69-.458-.69-.458z"/></g><g><path fill="#fff" d="M25.29 35.17v1.374h.575v-1.26h-.23c-.115-.114-.23-.114-.345-.114z"/></g><g><path fill="#fff" d="M20.573 37.47v-.115c0-.573-.115-1.145-.46-1.145h-.115c-.115 0-.345 0-.345.458v.343l-.344-.229h-.115c-.115 0-.23.23-.345.458-.115.344 0 .916.69 1.26l.114.114v.115c0 .458.115.801.46.801.23.115.345-.229.345-.343v-.344l.23.115c.115 0 .345.114.69.114h.344v-1.26c-.344 0-.804 0-1.149-.114z"/></g><g><path fill="#fff" d="M20.573 27.85v-.115c0-.573-.115-1.145-.46-1.145h-.115c-.115 0-.345 0-.345.458v.343l-.344-.229c-.115 0-.115-.114-.115-.114-.115 0-.23.229-.345.458-.115.343 0 .916.69 1.26l.114.114v.114c0 .458.115.802.46.802.23.114.345-.23.345-.344v-.343l.23.114c.115 0 .345.115.69.115h.344v-1.26c-.344 0-.804 0-1.149-.114z"/></g><g><path fill="#fff" d="M34.945 42.962h-9.08v-.458h-.575v1.03h9.54c.575 0 1.265-.228 1.494-.572.116-.114.116-.343 0-.572-.23.458-.804.572-1.379.572z"/></g><g><path fill="#fff" d="M25.29 39.3v.458h.575V39.3h-.575z"/></g><g><path fill="#fff" d="M23.56 26.25v14.654c.23.115.46.23.69.458v-.343c0-.458.23-.802.46-1.03v-1.145c-.23-.23-.46-.687-.46-1.03 0-.459.23-.802.46-1.031v-1.947c-.23-.228-.46-.686-.46-1.03 0-.458.23-.801.46-1.03V31.63c-.23-.23-.46-.687-.46-1.03 0-.458.23-.802.46-1.03v-2.062h.23c-.46-.572-.92-1.03-1.38-1.259z"/></g><g><path fill="#fff" d="M34.6 27.504c.23 0 .345-.115.46-.23.115-.114.115-.343 0-.572-.115-.343-.345-.572-1.265-.572H24.6c.345.343.805.687 1.15 1.374z"/></g><g><path fill="#fff" d="M35.29 42.617c.23 0 .69-.229.805-.687V28.65c-.23.229-.46.343-.805.458z"/></g><g><path fill="#fff" d="M25.635 31.97h-.345v.458h.575v-.458h-.23z"/></g><g><path fill="#fff" d="M26.895 33.002c.23-.23.345-.573.345-.916 0-.344-.115-.687-.345-.916a1.382 1.382 0 0 1-.575.572v.687c.23.115.46.344.575.573z"/></g><g><path fill="#fff" d="M26.895 40.442c.23-.23.345-.573.345-.916 0-.344-.115-.687-.345-.916a1.382 1.382 0 0 1-.575.572v.687c.23.115.46.23.575.573z"/></g><g><path fill="#fff" d="M26.44 33.797c0-.458-.346-.687-.69-.687-.46 0-.69.343-.69.687 0 .458.345.687.69.687.344 0 .69-.344.69-.687z"/></g><g><path fill="#fff" d="M26.44 37.807c0-.458-.346-.687-.69-.687-.46 0-.69.343-.69.687 0 .458.345.687.69.687.344.114.69-.23.69-.687z"/></g><g><path fill="#fff" d="M25.63 29.79c-.46 0-.69.343-.69.687 0 .458.345.687.69.687.46 0 .69-.344.69-.687.114-.344-.23-.687-.69-.687z"/></g><g><path fill="#fff" d="M26.44 41.127c0-.458-.346-.687-.69-.687-.46 0-.69.343-.69.687 0 .458.345.687.69.687.344 0 .69-.344.69-.687z"/></g><g><path fill="#fff" d="M33.674 31.4l-2.184 2.175 2.069 2.061 1.264-1.26v-1.831z"/></g><g><path fill="#fff" d="M34.825 30.37l-.805.687.805.801z"/></g><g><path fill="#fff" d="M26.325 42.62h4.253l-1.724-1.718-.69.687-.345-.343.69-.687-.345-.344.345-.343.345.343 1.839-1.717-2.07-2.06-.919.915-.345-.343.92-.916-.92-.916.345-.344.92.916 2.184-2.175-2.07-2.06-.23.228-.344-.343.23-.23-.805-.8.345-.344.805.801 1.954-1.717H26.21v.114c.46.23.805.687.805 1.26a2 2 0 0 1 .804 1.603c0 .687-.23 1.145-.804 1.602 0 .573-.345 1.03-.805 1.26v1.488c.46.23.805.687.805 1.26a2 2 0 0 1 .804 1.602c0 .573-.23 1.145-.804 1.603v.115c0 .572-.345 1.03-.805 1.259v.343z"/></g><g><path fill="#fff" d="M32.07 29.11l1.61 1.717 1.149-1.145v-.572z"/></g><g><path fill="#fff" d="M34.824 35.06l-1.034.916 1.034 1.03z"/></g><g><path fill="#fff" d="M34.823 39.068v-1.489L33.56 36.32l-2.299 2.06 2.069 2.176z"/></g><g><path fill="#fff" d="M34.83 39.75l-1.15 1.03 1.15 1.26z"/></g><g><path fill="#fff" d="M29.08 31.17l2.069 2.062 2.184-2.176-1.954-1.946z"/></g><g><path fill="#fff" d="M28.97 36.095l1.954 2.061 2.299-2.175-2.07-2.061z"/></g><g><path fill="#fff" d="M32.993 40.78l-2.069-2.06-1.724 1.832 1.954 2.06z"/></g><g><path fill="#fff" d="M33.334 41.13l-1.494 1.488h2.874z"/></g></g></g></g></g></svg>