<svg xmlns="http://www.w3.org/2000/svg" width="237" height="22" viewBox="0 0 237 22"><g><g><g><path fill="#0069b4" d="M13.16.92l.265 3.956H11.84c-.396-1.978-.66-2.637-2.112-2.637h-1.32v12c0 1.45.528 1.714 1.98 1.714v.923H3.524v-.923c1.452 0 1.98-.264 1.98-1.714V2.37h-1.32c-1.452 0-1.584.659-2.112 2.637H.62l.264-3.956h12.277z"/></g><g><path fill="#0069b4" d="M21.474 5.14c.264 0 .66 0 .792.132l-.528 3.033c-.264-.132-.528-.132-1.056-.132-1.848 0-2.376.66-2.376 2.637v3.825c0 1.318.264 1.582 1.98 1.582v.923H13.95v-.923c1.32-.132 1.584-.264 1.584-1.582v-5.67c0-1.715-.264-1.979-1.584-1.979v-.923l3.432-.923h.396c.132.396.528 1.45.528 2.901.66-1.846 1.848-2.901 3.168-2.901z"/></g><g><path fill="#0069b4" d="M23.32 16.214c1.32-.132 1.584-.264 1.584-1.582v-5.67c0-1.715-.264-1.979-1.584-1.979V6.06l3.96-.923h.396V14.5c0 1.319.132 1.582 1.452 1.582v.923H23.32zM26.092 3.82c-.924 0-1.716-.792-1.716-1.715S25.168.39 26.224.39s1.716.791 1.716 1.714c0 .923-.792 1.715-1.848 1.715z"/></g><g><path fill="#0069b4" d="M42.336 14.503c0 1.318.264 1.582 1.452 1.582v.923H37.98v-.923c1.32 0 1.584-.264 1.584-1.582V9.096c0-1.45-.528-1.978-1.584-1.978-1.188 0-1.98.527-2.772 1.187v6.33c0 1.186.132 1.45 1.452 1.582v.923h-5.94v-.923c1.32-.132 1.584-.264 1.584-1.582v-5.67c0-1.715-.264-1.979-1.584-1.979v-.923l3.432-.923h.396c.132.264.528 1.187.528 2.11 1.056-1.055 2.244-2.11 4.092-2.11 1.848 0 3.3 1.055 3.3 3.297v6.066z"/></g><g><path fill="#0069b4" d="M45.24 16.214c1.32-.132 1.584-.264 1.584-1.582v-5.67c0-1.715-.264-1.979-1.584-1.979V6.06l3.96-.923h.396V14.5c0 1.319.132 1.582 1.452 1.582v.923H45.24zM48.012 3.82c-.924 0-1.716-.792-1.716-1.715S47.088.39 48.144.39s1.716.791 1.716 1.714c0 .923-.792 1.715-1.848 1.715z"/></g><g><path fill="#0069b4" d="M59.232 6.981h-2.508v6.593c0 1.715.264 2.374 1.452 2.374.396 0 .792-.132 1.32-.264l.264 1.055c-.792.528-1.716.791-2.772.791-1.98 0-3.036-.79-3.036-3.296V6.98H52.5V5.926l1.584-.527a8.968 8.968 0 0 1 1.056-3.165l1.848-.264c-.132.791-.264 2.242-.264 3.429h2.772z"/></g><g><path fill="#0069b4" d="M62.004 20.037c1.98-.395 3.432-.923 4.224-3.033l-1.056.132c-.264-1.187-.66-2.241-1.32-4.22l-1.848-5.01c-.396-1.187-.66-1.451-1.584-1.583V5.4h5.808v.923c-1.056 0-1.452.264-1.452.66 0 .131.132.395.132.527l1.584 4.879c.396 1.187.528 2.11.66 2.506h.132c0-.264.264-1.187.528-2.242l1.584-5.143c.132-.264.132-.396.132-.528 0-.527-.264-.659-1.452-.79V5.4h4.62v.923c-.924.132-1.188.264-1.716 1.45l-3.3 9.363c-1.056 2.77-2.244 4.352-4.884 4.748z"/></g><g><path fill="#0069b4" d="M79.56 9.231c0-5.67 2.904-8.571 7.26-8.571 2.376 0 3.828.527 4.884 1.055v2.901h-2.112c-.396-1.714-1.056-2.637-2.772-2.637-2.376 0-3.828 1.714-3.828 6.989 0 5.67 1.584 6.857 3.96 6.857 1.848 0 2.508-.791 2.904-2.637h1.98v2.769c-.924.659-2.64 1.186-4.884 1.186-4.884.264-7.392-2.769-7.392-7.912z"/></g><g><path fill="#0069b4" d="M99.356 17.404c-3.432 0-5.676-2.242-5.676-6.066s2.244-6.198 5.676-6.198 5.677 2.242 5.677 6.066c.131 4.088-2.509 6.198-5.677 6.198zm0-10.945c-1.848 0-2.508 1.45-2.508 4.747 0 3.429.66 4.88 2.64 4.88 1.716 0 2.508-1.583 2.508-4.88 0-3.429-.924-4.747-2.64-4.747z"/></g><g><path fill="#0069b4" d="M111.238 14.505c0 1.32.264 1.583 1.584 1.715v.923h-5.94v-.923c1.32-.132 1.584-.264 1.584-1.583V3.56c0-1.714-.396-1.978-1.716-1.978V.66L110.578 0h.396c.132.396.396 1.055.396 2.374v12.131z"/></g><g><path fill="#0069b4" d="M118.76 14.505c0 1.32.264 1.583 1.584 1.715v.923h-6.072v-.923c1.32-.132 1.584-.264 1.584-1.583V3.56c0-1.714-.396-1.978-1.716-1.978V.66L117.968 0h.396c.132.396.396 1.055.396 2.374z"/></g><g><path fill="#0069b4" d="M132.092 15.69c-1.188 1.054-2.64 1.714-4.488 1.714-3.432 0-5.544-2.242-5.544-6.198 0-3.824 2.244-6.066 5.28-6.066 3.3 0 4.884 2.11 4.884 5.67v.792h-7.26c.132 3.033 1.056 4.087 3.432 4.087 1.056 0 2.244-.395 3.168-.923zm-2.64-5.539c0-2.77-.528-3.824-2.112-3.824-1.32.132-2.112.923-2.244 3.824z"/></g><g><path fill="#0069b4" d="M134.08 19.122c0-.791.66-1.319 1.188-1.583h1.716c-.132.264-.264.66-.264 1.187 0 1.187.66 1.846 2.64 1.846 2.244 0 3.036-.79 3.036-1.978 0-1.318-.66-1.582-3.3-1.714-.924 0-1.98-.132-2.376-.132-1.188-.132-1.584-.923-1.584-1.978s.924-1.846 2.376-2.242c-1.848-.395-2.904-1.714-2.904-3.428 0-2.374 1.848-3.824 4.752-3.824.792 0 1.452.131 2.112.263.528.132 1.056.264 1.584.264.792 0 1.452-.396 2.112-.923l1.056 1.846c-.528.396-1.056.528-1.716.528a3.518 3.518 0 0 1-1.584-.396c.66.527 1.188 1.187 1.188 2.242 0 2.769-2.64 3.56-5.016 3.56h-.132c-.66.264-1.056.528-1.056 1.055 0 .264.132.528.792.528l2.244.131c2.904.132 4.488.792 4.488 3.297 0 2.638-2.376 3.956-5.544 3.956-3.828 0-5.808-1.055-5.808-2.505zm6.864-10.154c0-1.846-.528-2.637-1.848-2.637-1.188 0-1.848.659-1.848 2.505 0 1.714.66 2.506 1.848 2.506 1.32.131 1.848-.66 1.848-2.374z"/></g><g><path fill="#0069b4" d="M156.782 15.69c-1.188 1.054-2.64 1.714-4.488 1.714-3.564 0-5.544-2.242-5.544-6.198 0-3.824 2.244-6.066 5.412-6.066 3.3 0 4.884 2.11 4.884 5.67v.792h-7.26c.132 3.033 1.056 4.087 3.432 4.087.792 0 1.98-.395 3.036-.923zm-2.772-5.539c0-2.77-.528-3.824-2.112-3.824-1.32.132-2.112.923-2.244 3.824z"/></g><g><path fill="#0069b4" d="M164.31 16.217c1.452 0 1.716-.396 1.716-1.715V3.69c0-1.318-.264-1.714-1.716-1.714V.92h6.336c4.752 0 7.789 2.374 7.789 8.176 0 4.879-2.377 8.044-7.789 8.044h-6.336zm6.336-.528c3.168 0 4.62-1.187 4.62-6.461 0-5.407-1.452-6.857-4.488-6.857h-1.584v13.318z"/></g><g><path fill="#0069b4" d="M191.632 13.711c0 1.715.264 1.978 1.584 1.978v.792l-3.3.79h-.396c-.264-.395-.528-1.054-.528-1.977-.924 1.187-2.112 1.978-3.96 1.978-1.98 0-3.3-.923-3.3-3.165V8.964c0-1.714-.264-1.978-1.452-1.978v-.923l3.828-.923h.528v8.308c0 1.318.528 1.846 1.584 1.846s1.716-.396 2.508-1.187V8.964c0-1.714-.264-1.978-1.452-1.978v-.923l3.828-.923h.528z"/></g><g><path fill="#0069b4" d="M195.59 17.143c.264-.528.264-1.187.264-2.77V3.56c0-1.714-.396-1.978-1.584-1.978V.66L197.966 0h.396c.132.396.396 1.187.396 2.374v4.615c.66-.923 1.848-1.846 3.564-1.846 2.772 0 4.489 1.978 4.489 5.934 0 4.22-1.98 6.198-5.017 6.198-1.716 0-2.904-.791-3.564-1.715-.132.528-.528 1.187-.792 1.583zm5.676-10.022c-1.056 0-1.98.527-2.508 1.187v6.33c.66.659 1.32 1.054 2.508 1.054 1.584 0 2.508-.923 2.508-4.351-.132-3.297-.924-4.22-2.508-4.22z"/></g><g><path fill="#0069b4" d="M212.888 14.505c0 1.32.264 1.583 1.584 1.715v.923h-5.94v-.923c1.32-.132 1.584-.264 1.584-1.583V3.56c0-1.714-.396-1.978-1.716-1.978V.66L212.228 0h.396c.132.396.396 1.055.396 2.374v12.131z"/></g><g><path fill="#0069b4" d="M215.92 16.214c1.32-.132 1.584-.264 1.584-1.582v-5.67c0-1.715-.264-1.979-1.584-1.979V6.06l3.96-.923h.396V14.5c0 1.319.132 1.582 1.452 1.582v.923h-5.808zm2.904-12.395c-.924 0-1.716-.792-1.716-1.715S217.9.39 218.956.39s1.716.791 1.716 1.714c-.132.923-.924 1.715-1.848 1.715z"/></g><g><path fill="#0069b4" d="M234.928 14.503c0 1.318.265 1.582 1.453 1.582v.923h-5.809v-.923c1.32 0 1.452-.264 1.452-1.582V9.096c0-1.45-.528-1.978-1.584-1.978-1.188 0-1.98.527-2.772 1.187v6.33c0 1.186.132 1.45 1.452 1.582v.923h-5.94v-.923c1.32-.132 1.584-.264 1.584-1.582v-5.67c0-1.715-.264-1.979-1.584-1.979v-.923l3.432-.923h.396c.132.264.528 1.187.528 2.11 1.056-1.055 2.244-2.11 4.092-2.11 1.848 0 3.3 1.055 3.3 3.297z"/></g></g></g></svg>