<svg xmlns="http://www.w3.org/2000/svg" width="27" height="27" viewBox="0 0 27 27"><g><g><g><path fill="#3893f1" d="M26.119 13.29c0 7.074-5.735 12.809-12.81 12.809C6.235 26.099.5 20.364.5 13.289.5 6.215 6.235.48 13.31.48c7.074 0 12.809 5.735 12.809 12.81z"/></g><g><g/><g><path fill="#fff" d="M8.66 16.353c.993.005 1.894-.223 2.728-.859-.875-.113-1.462-.532-1.766-1.34l.721-.03c-.854-.373-1.338-.978-1.415-1.935.272.073.514.14.751.207.01-.015.02-.036.036-.051-.345-.342-.633-.71-.726-1.185-.092-.47-.036-.92.232-1.365 1.055 1.21 2.337 1.913 3.953 2.012 0-.238-.026-.45.005-.657.103-.766.51-1.309 1.225-1.593.705-.28 1.37-.155 1.95.33.15.125.273.146.438.084.304-.114.602-.228.927-.347-.088.414-.381.678-.633 1.003.283-.077.56-.155.844-.232.015.015.03.036.046.051-.216.233-.417.487-.659.693-.195.166-.268.331-.273.585-.056 2.41-1.688 4.887-4.519 5.363-1.276.218-2.49.026-3.633-.594-.083-.042-.155-.094-.232-.14z"/></g></g></g></g></svg>