<svg xmlns="http://www.w3.org/2000/svg" width="112" height="110" viewBox="0 0 112 110"><defs><mask id="786zb" width="2" height="2" x="-1" y="-1"><path fill="#fff" d="M14.38 5h83v82h-83z"/><path d="M97.38 46c0 22.644-18.58 41-41.5 41s-41.5-18.356-41.5-41S32.96 5 55.88 5s41.5 18.356 41.5 41z"/></mask><filter id="786za" width="131" height="139" x="-9.62" y="-19" filterUnits="userSpaceOnUse"><feOffset dy="9" in="SourceGraphic" result="FeOffset21386Out"/><feGaussianBlur in="FeOffset21386Out" result="FeGaussianBlur21387Out" stdDeviation="5.6 5.6"/></filter></defs><g><g><g><g filter="url(#786za)"><path fill="none" d="M97.38 46c0 22.644-18.58 41-41.5 41s-41.5-18.356-41.5-41S32.96 5 55.88 5s41.5 18.356 41.5 41z" mask="url(&quot;#786zb&quot;)"/><path fill="#262f46" fill-opacity=".06" d="M97.38 46c0 22.644-18.58 41-41.5 41s-41.5-18.356-41.5-41S32.96 5 55.88 5s41.5 18.356 41.5 41z"/></g><path fill="#fff" d="M97.38 46c0 22.644-18.58 41-41.5 41s-41.5-18.356-41.5-41S32.96 5 55.88 5s41.5 18.356 41.5 41z"/></g><g><path fill="#0069b4" d="M65.365 47.611c-1.616 1.13-2.636 2.358-2.412 4.42.174 1.572.075 3.193 0 4.79-.025.417-.448.785-.696 1.203-.249-.393-.721-.786-.746-1.179-.075-2.038-.15-4.101.025-6.14.074-.908.572-1.841 1.119-2.603.572-.761 1.417-1.326 2.387-2.21a532.12 532.12 0 0 0-4.949-2.161.567.567 0 0 0-.348-.025c-.845.221-3.083 3.12-3.083 4.003v8.473c0 .32.1.712-.05.958-.174.344-.522.59-.82.884-.249-.295-.647-.565-.672-.86-.1-1.006-.05-2.038-.05-3.07 0-1.4-.174-2.799.025-4.174.373-2.505-.571-4.347-2.56-5.747-.349-.246-.995-.393-1.368-.246-1.418.54-2.76 1.204-4.6 2.014 1.044.884 1.939 1.474 2.56 2.235.523.663.995 1.572 1.045 2.382.15 2.088.1 4.175.025 6.263-.025.393-.473.786-.746 1.179-.249-.393-.696-.786-.696-1.18-.075-1.596-.174-3.216 0-4.788.223-2.039-.796-3.291-2.512-4.494v5.108c0 1.4.05 2.775-.05 4.175-.024.393-.497.786-.746 1.179-.248-.393-.67-.81-.696-1.204-.05-3.07-.05-6.14-.025-9.21 0-1.645.82-2.8 2.288-3.511 1.218-.59 2.487-1.105 3.73-1.646 1.343-.59 1.591-1.645.597-2.677-1.07-1.13-1.617-2.48-1.816-4.052-.149-1.203-.72-2.382-.746-3.585-.024-3.39 2.71-6.017 6.167-6.091 1.74-.05 3.481-.123 5.048.909 1.815 1.179 2.884 2.8 2.984 4.96.025.516-.299 1.057-.423 1.597-.124.467-.323.909-.298 1.375.025 1.94-.547 3.61-1.94 5.01-.895.884-.597 2.014.572 2.53l3.506 1.547c1.79.761 2.66 2.087 2.636 4.027-.025 2.874 0 5.723-.025 8.596 0 .565.2 1.424-.72 1.424-.97 0-.797-.884-.797-1.498-.025-2.824-.025-5.648-.025-8.472 0-.099-.024-.172-.099-.418zM50.346 33.564c.174-.025.298-.025.398-.074.547-.27 1.144-1.056 1.69-.221.523.786-.447 1.031-.82 1.498-.298.417-.547 1.08-.447 1.547.547 2.579 3.207 4.249 5.719 3.66 2.66-.64 4.227-3.095 3.605-5.846h-1.566c-2.04-.049-3.979-.466-5.545-1.817-.299-.27-.324-.86-.473-1.302.473.05 1.045-.049 1.393.172 2.188 1.548 4.55 1.744 7.186 1.18-.05-1.867-.77-3.39-2.387-4.2-2.238-1.105-4.6-1.155-6.764.196-1.865 1.203-2.312 3.07-1.989 5.207zm5.545 11.91c.771-1.571 3.158-1.915 2.387-4.027H53.48c-.77 2.136 1.616 2.431 2.412 4.027z"/></g><g><path fill="#0069b4" d="M32.61 49.62c.075.173.075.246.1.246 2.462 1.744 2.66 4.273 2.362 6.901-.05.418-.472.81-.721 1.204-.249-.393-.671-.762-.721-1.18-.124-.834-.025-1.718-.025-2.578 0-1.35-.199-1.694-1.69-2.726v4.347c0 .442.099.933-.05 1.35-.1.32-.498.517-.771.787-.224-.246-.672-.492-.672-.737-.05-2.333-.149-4.666.1-6.975.074-.761.994-1.498 1.666-2.112.472-.417 1.143-.614 1.74-.909 1.467-.712 1.79-2.21.498-3.29-2.238-1.867-2.288-7.736.124-9.505.348-.245.547-.86.547-1.326.075-1.842 1.442-3.217 3.233-3.217 1.765.025 3.058 1.375 3.133 3.168.025.467.199 1.056.547 1.326 2.486 1.891 2.486 7.613.124 9.603-1.119.933-.895 2.284.249 3.143.273.221.348.688.522 1.056-.348.099-.746.344-1.07.246-1.367-.369-2.76.614-2.784 2.038-.025 1.965 0 3.93-.025 5.894 0 .614.224 1.523-.721 1.548-1.02.049-.746-.885-.771-1.474-.025-1.916 0-3.856-.025-5.771 0-1.842-1.567-2.825-3.183-2.014-.522.32-1.094.638-1.716.958zm9.599-8.865c-1.492-.393-2.984-.516-4.203-1.154-1.044-.54-1.69-.59-2.735-.074-.995.467-1.02.982-.721 1.793.671 1.793 2.362 2.849 4.277 2.652a3.759 3.759 0 0 0 3.382-3.217zm.024-2.014c.075-2.407-1.541-4.126-3.854-4.15-2.263-.05-3.978 1.547-3.929 3.733.423-.246.87-.418 1.194-.713.796-.81 1.393-.663 2.163.099 1.219 1.203 2.736 1.449 4.427 1.031zm-2.436 6.73h-2.984c-.547 1.571.671 2.062 1.541 2.873.796-.86 2.064-1.351 1.443-2.874zm-3.059-12.305c.622-.049 1.094-.122 1.592-.122.472 0 .97.073 1.541.122 0-1.031-.447-1.62-1.392-1.694-1.07-.098-1.666.442-1.74 1.694z"/></g><g><path fill="#0069b4" d="M79.785 49.206c-1.045.663-1.666 1.35-1.641 2.529.05 1.72.05 3.438-.025 5.157-.025.393-.423.762-.622 1.13-.274-.368-.77-.737-.796-1.13-.074-1.866-.224-3.782.05-5.624.174-1.203 1.044-2.284 1.666-3.56-.423-.222-1.094-.59-1.766-.934a89.444 89.444 0 0 0-2.163-1.031c-1.169.835-1.964 1.743-1.865 3.389.174 2.53.075 5.059 0 7.613-.025.442-.497.86-.746 1.277-.248-.442-.72-.86-.72-1.302-.075-2.701-.026-5.403-.026-8.104 0-1.596-.87-2.505-2.511-2.677-.672-.074-.945-.737-.448-1.252.87-.909.522-1.597.025-2.579-1.044-2.087-2.163-4.249-1.716-6.704.348-2.014 1.592-3.39 3.63-3.709 1.344-.196 2.835-.172 4.153.147 2.388.59 4.029 3.88 3.134 6.042-.672 1.645-1.517 3.217-2.214 4.863-.323.785-.248 1.522.647 1.964 1.144.54 2.288 1.154 3.456 1.695 1.467.687 2.188 1.744 2.164 3.389-.05 2.333 0 4.666-.025 7 0 .588.05 1.3-.796 1.178-.298-.05-.671-.761-.696-1.179-.075-2.087-.025-4.175-.025-6.262-.075-.393-.1-.786-.124-1.326zM68.645 39.16c.05 1.891 1.318 3.242 3.108 3.29 1.716.05 3.108-1.227 3.307-2.97.075-.713-.075-1.106-.895-1.253-1.02-.172-2.014-.467-2.96-.81-1.342-.443-2.585.368-2.56 1.743zm-.672-2.48c.324-.123.622-.172.746-.32.97-1.105 1.965-.835 3.183-.319 1.194.516 2.536.663 3.88.982.173-3.045-1.22-4.175-4.601-4.052-2.163.074-3.456 1.498-3.208 3.709zm5.819 7.195h-3.979c.771.86 1.343 1.498 2.04 2.284.67-.786 1.218-1.449 1.939-2.284z"/></g></g></g></svg>