<svg xmlns="http://www.w3.org/2000/svg" width="112" height="110" viewBox="0 0 112 110"><defs><mask id="aol8b" width="2" height="2" x="-1" y="-1"><path fill="#fff" d="M14.08 5h83v82h-83z"/><path d="M97.08 46c0 22.644-18.58 41-41.5 41s-41.5-18.356-41.5-41S32.66 5 55.58 5s41.5 18.356 41.5 41z"/></mask><filter id="aol8a" width="131" height="139" x="-9.92" y="-19" filterUnits="userSpaceOnUse"><feOffset dy="9" in="SourceGraphic" result="FeOffset21511Out"/><feGaussianBlur in="FeOffset21511Out" result="FeGaussianBlur21512Out" stdDeviation="5.6 5.6"/></filter></defs><g><g><g><g><g filter="url(#aol8a)"><path fill="none" d="M97.08 46c0 22.644-18.58 41-41.5 41s-41.5-18.356-41.5-41S32.66 5 55.58 5s41.5 18.356 41.5 41z" mask="url(&quot;#aol8b&quot;)"/><path fill="#262f46" fill-opacity=".06" d="M97.08 46c0 22.644-18.58 41-41.5 41s-41.5-18.356-41.5-41S32.66 5 55.58 5s41.5 18.356 41.5 41z"/></g><path fill="#fff" d="M97.08 46c0 22.644-18.58 41-41.5 41s-41.5-18.356-41.5-41S32.66 5 55.58 5s41.5 18.356 41.5 41z"/></g></g><g><g/><g><path fill="#0069b4" d="M65.336 44.551c.577 0 1.115.098 1.596-.039.365-.098.787-.41.941-.744.231-.509.5-.979 1.019-.685.288.157.596.9.461 1.155-.365.744-.942 1.37-1.422 2.036h-.384c.211.157.46.294.653.49 3.344 3.172 5.267 7.107 5.824 11.708.423 3.544-1.23 5.795-4.67 6.442-1.154.215-2.346.372-3.537.372-5.709.039-11.398.02-17.107.02-.576 0-1.172-.04-1.153-.803.02-.764.634-.764 1.21-.764h3.73c.019-.098.077-.176.057-.196-1.672-1.664-1.826-3.76-1.441-5.913.672-3.818 2.23-7.225 4.901-10.005 1.076-1.116 2.422-1.977 3.767-3.054-.211-.666-.346-1.547-1.48-1.938-.884-.294-1.23-1.214-1.134-2.174.096-1.018.673-1.605 1.576-2.036.98-.45 1.884-1.018 2.807-1.566.115-.078.192-.333.192-.51.02-2.055 0-4.11 0-6.225h-4.594v1.918c.02.764-.327 1.136-1.096 1.136H44.328c-.711 0-1.077-.333-1.077-1.077v-1.997h-4.536V63.72h2.25c.557 0 1.095.059 1.114.764.02.705-.48.822-1.057.803-.923-.02-1.865-.04-2.787 0-.846.039-1.153-.372-1.134-1.195.02-2.055 0-4.111 0-6.167v-27.9c0-1.469.096-1.567 1.518-1.567h2.98c.941 0 1.768.06 2.517-.9.404-.529 1.557-.548 2.384-.646.826-.079 1.518-.02 2.133-.881.788-1.116 2.518-.98 3.345.156.423.607.884.744 1.518.705.48-.04.98-.078 1.442.02.519.117 1.23.254 1.441.626.596 1.097 1.5.92 2.403.92 1.115 0 2.249.04 3.363-.02.865-.038 1.211.353 1.192 1.215-.019 2.114 0 4.248-.019 6.363 0 .529.173.763.653.998a26.433 26.433 0 0 1 2.98 1.684c1.441.96 1.326 3.27-.27 3.936-.903.43-1.191.979-1.345 1.918zm-3.21 19.286c2.172-.118 3.96-.196 5.747-.314.423-.02.827-.097 1.23-.176 2.441-.49 3.614-1.919 3.383-4.385-.423-4.464-2.325-8.204-5.574-11.239-2.345-2.193-6.439-2.193-8.784-.02-3.19 2.957-5.093 6.599-5.554 10.945-.308 2.84.845 4.347 3.613 4.719 2.076.294 4.19.352 5.94.47zM44.828 31.57h10.725c0-.783.019-1.527-.02-2.27 0-.196-.134-.451-.288-.588-.5-.47-2.73-.215-3.152.333-1.076 1.39-2.749 1.37-3.825-.04-.423-.548-2.69-.743-3.171-.273-.135.117-.25.332-.25.509-.02.763-.02 1.546-.02 2.33zM62.51 44.512c.884.255 1.25-.215 1.441-.979.116-.43.308-.861.442-1.292.173-.548.462-.842 1.096-.881.288-.02.538-.47.826-.724-.288-.235-.538-.51-.845-.725-.346-.235-.827-.294-1.077-.587-1.172-1.332-2.595-1.332-3.767.039-.23.274-.692.352-1.019.568-.307.195-.595.45-.884.665.289.274.558.549.865.803.327.274.769.49 1 .822.25.353.365.823.48 1.273.173.803.538 1.331 1.442 1.018zm-11.244-16.74c-.481-.391-.77-.783-1.02-.763-.268.02-.71.41-.73.665 0 .255.366.705.635.764.25.039.576-.313 1.115-.666z"/></g><g><path fill="#0069b4" d="M53.55 39.816a624.801 624.801 0 0 1-3.902 4.073c-.904.94-1.115.92-2.018-.02-.654-.665-1.269-1.37-2.057-2.212a2812.943 2812.943 0 0 0-3.344 3.524c-.231.235-.423.568-.692.646-.327.118-.73.04-1.115.04.02-.373-.115-.862.057-1.117.539-.685 1.192-1.272 1.807-1.899.846-.842 1.692-1.684 2.518-2.565.538-.567 1.038-.567 1.557.02.711.803 1.403 1.586 2.076 2.35a722.472 722.472 0 0 0 4.075-4.19c-.23-.314-.712-.686-.712-1.038 0-.725.673-.705 1.23-.725 2.576-.02 2.595-.039 2.538 2.487-.02.47-.365.94-.558 1.41-.423-.216-.845-.45-1.46-.783z"/></g><g><path fill="#0069b4" d="M45.578 50.82h4.306c.519 0 1.018.098 1.018.744.02.685-.48.842-1.057.842h-8.63c-.576 0-1.115-.216-1-.862.058-.293.654-.665 1.039-.685 1.46-.078 2.902-.04 4.324-.04z"/></g><g><path fill="#0069b4" d="M45.556 49.276h-4.113c-.577 0-1.192-.04-1.211-.764-.039-.763.576-.822 1.153-.822h8.438c.538 0 1.095.04 1.115.744.019.764-.558.822-1.154.822-1.422.02-2.825.02-4.228.02z"/></g><g><path fill="#0069b4" d="M44.072 53.951c.96 0 1.922-.059 2.864.04.326.038.615.47.903.724-.307.274-.596.763-.903.763a72.693 72.693 0 0 1-5.843 0c-.308-.02-.615-.49-.923-.763.308-.255.596-.705.923-.744 1-.079 1.999-.02 2.979-.02z"/></g><g><path fill="#0069b4" d="M44.092 57.061h2.768c.538 0 1.057.137.941.764-.057.313-.557.763-.865.763a72.684 72.684 0 0 1-5.843 0c-.307-.02-.615-.509-.903-.783.308-.254.596-.685.923-.724.98-.079 1.98-.02 2.979-.02z"/></g><g><path fill="#0069b4" d="M45.867 64.58c-.48.332-.808.743-1.019.685-.307-.079-.519-.49-.788-.744.27-.255.519-.646.826-.686.231-.058.52.372.98.744z"/></g><g><path fill="#0069b4" d="M64.814 56.502c-.077.215-.154.685-.404 1.038-.5.705-1.365 1.135-1.288 2.212 0 .118-.519.411-.75.372-.23-.039-.595-.391-.595-.626-.02-.686-.23-1.136-.808-1.508-.403-.254-.71-.724-.288-1.233.404-.47.807-.314 1.269 0 .25.156.653.215.922.117.173-.059.385-.548.308-.705-.135-.274-.442-.568-.73-.626-1.115-.196-1.942-.705-2.21-1.86-.25-1.116.191-1.958 1.095-2.604.211-.137.326-.529.346-.803.057-.548.211-1.077.788-.96.307.079.538.627.769 1 .192.293.307.645.557.9.365.391.942.724.538 1.37-.404.646-.884.372-1.384.02-.211-.137-.634-.157-.865-.04-.173.099-.384.568-.288.705.173.275.5.568.826.647 1.404.352 2.192 1.135 2.192 2.584z"/></g></g></g></g></svg>