<svg xmlns="http://www.w3.org/2000/svg" width="112" height="110" viewBox="0 0 112 110"><defs><mask id="okx5b" width="2" height="2" x="-1" y="-1"><path fill="#fff" d="M14.8 5h83v82h-83z"/><path d="M97.8 46c0 22.644-18.58 41-41.5 41S14.8 68.644 14.8 46 33.38 5 56.3 5s41.5 18.356 41.5 41z"/></mask><filter id="okx5a" width="131" height="139" x="-9.2" y="-19" filterUnits="userSpaceOnUse"><feOffset dy="9" in="SourceGraphic" result="FeOffset21423Out"/><feGaussianBlur in="FeOffset21423Out" result="FeGaussianBlur21424Out" stdDeviation="5.6 5.6"/></filter></defs><g><g><g><g filter="url(#okx5a)"><path fill="none" d="M97.8 46c0 22.644-18.58 41-41.5 41S14.8 68.644 14.8 46 33.38 5 56.3 5s41.5 18.356 41.5 41z" mask="url(&quot;#okx5b&quot;)"/><path fill="#262f46" fill-opacity=".06" d="M97.8 46c0 22.644-18.58 41-41.5 41S14.8 68.644 14.8 46 33.38 5 56.3 5s41.5 18.356 41.5 41z"/></g><path fill="#fff" d="M97.8 46c0 22.644-18.58 41-41.5 41S14.8 68.644 14.8 46 33.38 5 56.3 5s41.5 18.356 41.5 41z"/></g><g><g/><g><path fill="#1b62ac" d="M65.475 42.044c-1.076.157-1.318.897-1.34 1.84-.065 1.973-.11 3.948-.285 5.922a6.277 6.277 0 0 1-.658 2.243c-.176.337-.769.427-1.186.65-.153-.403-.505-.896-.395-1.21.856-2.378.768-4.846.725-7.314-.022-1.346.263-2.535 1.426-3.41-.79-1.054-1.47-2.176-2.326-3.096-1.471-1.57-4.237-.942-4.94 1.19-.504 1.547-1.097 3.185-.417 4.89.242.583.132 1.234-.548 1.323-.33.045-.988-.381-1.098-.718-1.23-3.97-4.193-5.9-7.902-6.281-3.622-.382-7.178-.673-10.515-2.423.022 2.782 2.722 5.451 5.663 5.653.725.045 1.471.023 2.196.023.68 0 1.339.09 1.317.964 0 .808-.659.808-1.274.853-2.963.224-5.663-.426-7.858-2.85.285 3.321 3.402 6.215 6.717 6.372 1.317.067 2.634.023 3.951.023.659 0 1.23.18 1.23.942 0 .807-.637.875-1.274.875-2.502-.045-5.049.314-7.441-.853 2.085 2.423 4.675 3.814 7.77 4.15 1.274.135 2.547.09 3.842.135.637.023 1.251.112 1.23.92-.023.83-.66.942-1.274.875-1.317-.112-2.502.27-3.688.807-2.436 1.122-5.005 1.638-7.683 1.616h-1.756c1.295 2.625 2.48 5.003 3.732 7.538 1.23-.965 2.327-1.818 3.424-2.67 1.69-1.301 3.578-2.02 5.686-2.042 2.173-.044 4.214-.493 6.08-1.637.527-.314 1.076-.471 1.427.134.395.673 0 1.1-.57 1.436a12.923 12.923 0 0 1-6.586 1.84c-1.976.022-3.71.673-5.268 1.93a230.53 230.53 0 0 1-3.644 2.87c-.878.674-1.34.584-1.822-.38a713.13 713.13 0 0 1-4.566-9.199c-.483-.987-.11-1.57 1.01-1.615 1.58-.045 3.16.022 4.72-.112 1.163-.09 2.326-.426 3.621-.673-1.712-.92-3.314-1.548-4.697-2.535-4.083-2.917-6.147-7-6.235-12.092-.021-1.57-.021-3.141 0-4.711.022-1.055.615-1.459 1.515-.943 3.337 2.02 6.959 2.76 10.8 2.872 2.59.09 4.873 1.189 6.849 2.939.351.314.702.606.878.763.659-1.19 1.098-2.49 1.954-3.433 2.129-2.31 5.553-1.907 7.42.718.68.965 1.426 1.862 2.238 2.939.483-1.615.9-2.984 1.34-4.42l-.791-.269c-2.48-.807-3.863-2.916-3.688-5.563.066-1.077.593-1.548 1.58-1.593 2.218-.112 3.908.763 5.027 2.737.132.246.286.493.615 1.121.68-1.099 1.383-1.951 1.756-2.916 1.032-2.625 4.017-3.926 6.542-2.782.856.382 1.12.965.922 1.885-.571 2.804-3.227 4.531-5.971 3.836-.637-.157-1.12-.135-1.537.426-1.053 1.413-2.085 2.827-3.248 4.375 1.36-.09 2.37-.18 3.358-.202.856-.023 1.207.538 1.295 1.346.351 2.782-1.449 5.34-4.127 5.833-.35.067-.702.112-1.163.18.088.605.285 1.143.241 1.682-.044.404-.373.762-.57 1.166-.374-.269-1.01-.47-1.076-.807-.307-1.301-.461-2.625-.68-4.083zm2.019.022c2.151.314 3.885-1.458 3.468-3.477zm-3.161-11.89c-.066 1.907 1.054 3.343 2.766 3.634.636.113.878-.067.812-.762-.175-1.75-1.712-3.051-3.578-2.872zm8.78.045c1.888.695 3.644-.314 3.842-2.131"/></g><g><path fill="#1b62ac" d="M60.885 40.383c-.57.38-.965.852-1.229.785-.33-.09-.57-.584-.856-.92.307-.247.593-.718.9-.718.307 0 .637.426 1.185.853z"/></g><g><path fill="#1b62ac" d="M60.253 56.579c-.373-.606-.812-1.01-.746-1.257.11-.358.592-.583.922-.852.241.314.68.628.702.942 0 .292-.439.606-.878 1.167z"/></g></g></g></g></svg>