<svg xmlns="http://www.w3.org/2000/svg" width="112" height="110" viewBox="0 0 112 110"><defs><mask id="s61yb" width="2" height="2" x="-1" y="-1"><path fill="#fff" d="M14.42 5h83v82h-83z"/><path d="M97.42 46c0 22.644-18.58 41-41.5 41s-41.5-18.356-41.5-41S33 5 55.92 5s41.5 18.356 41.5 41z"/></mask><filter id="s61ya" width="131" height="139" x="-9.58" y="-19" filterUnits="userSpaceOnUse"><feOffset dy="9" in="SourceGraphic" result="FeOffset21466Out"/><feGaussianBlur in="FeOffset21466Out" result="FeGaussianBlur21467Out" stdDeviation="5.6 5.6"/></filter></defs><g><g><g><g filter="url(#s61ya)"><path fill="none" d="M97.42 46c0 22.644-18.58 41-41.5 41s-41.5-18.356-41.5-41S33 5 55.92 5s41.5 18.356 41.5 41z" mask="url(&quot;#s61yb&quot;)"/><path fill="#262f46" fill-opacity=".06" d="M97.42 46c0 22.644-18.58 41-41.5 41s-41.5-18.356-41.5-41S33 5 55.92 5s41.5 18.356 41.5 41z"/></g><path fill="#fff" d="M97.42 46c0 22.644-18.58 41-41.5 41s-41.5-18.356-41.5-41S33 5 55.92 5s41.5 18.356 41.5 41z"/></g><g><g/><g><path fill="#0069b4" d="M77.953 46.936c-.076 1.357-1.11 2.366-2.525 2.405-1.818.039-3.635.02-5.452.02H58.44c.249.465.383.775.555 1.066a2346.5 2346.5 0 0 1 5.356 9.407c1.244 2.192.153 4.151-2.334 4.17-4.055.02-8.092.02-12.147 0-2.45-.019-3.54-1.978-2.334-4.112 1.779-3.122 3.577-6.245 5.356-9.388.172-.31.325-.62.593-1.125H48.11c-.306 0-.67.078-.938-.058-.306-.135-.688-.465-.708-.737-.019-.29.287-.698.574-.853.326-.175.746-.117 1.129-.117h26.477c.65 0 1.51.156 1.51-.834 0-.95-.841-.872-1.51-.872H37.263c-.192 0-.383-.02-.574 0-.555.038-1.09.29-.957.911.058.31.612.698.976.757.86.116 1.722.02 2.582.038.593 0 1.09.253 1.053.95-.039.66-.536.796-1.11.796-.918-.02-1.856.02-2.774-.02-1.951-.096-3.042-1.9-2.296-3.723.134-.33.058-.757.02-1.125-.039-.446-.25-.873-.25-1.32-.037-2.967-.018-5.954-.018-8.922.019-1.687 1.014-2.715 2.678-2.754.976-.02 1.951 0 3.042 0 0-.679-.02-1.222 0-1.765.019-1.183.516-1.707 1.722-1.726 1.339-.02 2.678-.02 4.017 0 1.224.019 1.74.543 1.76 1.765v1.707h2.793c1.932.019 2.927 1.028 2.927 3.006v9.407c0 .02.019.04.076.136 0 0 21.58.02 22.708.136 1.435.155 2.353 1.377 2.315 2.774zm-36.54-15.518h3.884v-1.59h-3.883zm9.68 6.653c-1.644.35-3.175.66-4.686 1.028-.191.04-.402.35-.497.582-.536 1.397-1.378 2.076-2.583 2.056-1.167-.02-1.99-.717-2.487-2.036-.096-.253-.344-.563-.574-.621-1.473-.369-2.965-.679-4.61-1.028v5.14c0 .601.306.912.88.912h13.276c.555 0 1.225.02 1.263-.699.076-1.765.019-3.51.019-5.334zm-8.78-.213c.249.756.402 1.377.689 1.94.057.116.765.077.822-.04.249-.562.383-1.182.593-1.9zm8.82-3.53c-.04-.737-.383-1.067-1.072-1.067H36.88c-.612-.02-1.186.058-1.224.853-.02.699 0 1.397 0 2.115 1.76.388 3.386.737 5.127 1.125-.058-1.203.63-1.339 1.492-1.3.708.039 1.415.058 2.104 0 .937-.077 1.626.136 1.703 1.28 1.148-.252 2.238-.504 3.328-.737 1.818-.407 1.799-.407 1.722-2.27zm5.68 15.886c-.63-1.106-1.166-1.087-1.817.038-1.97 3.472-3.96 6.925-5.93 10.397-.612 1.067-.344 1.571.861 1.571 2.009.02 4.017 0 6.026 0 1.97 0 3.96.02 5.93 0 1.244-.02 1.53-.485.919-1.552-1.99-3.491-3.998-6.982-5.988-10.454z"/></g><g><path fill="#0069b4" d="M44.586 48.562c-.593.35-.956.757-1.263.699-.306-.04-.535-.544-.803-.835.306-.271.593-.737.9-.756.305 0 .63.446 1.166.892z"/></g><g><path fill="#0069b4" d="M66.883 45.293c-.326 0-.632 0-.938-.02a.88.88 0 0 1-.535-.213 2.685 2.685 0 0 0-1.894-.737H58.58V32.24h1.894v-1.92h1.913V28.4l.153-.02c.153-.019.325-.019.478-.019 1.052 0 1.952.31 2.755.931.88.679 1.435 1.552 1.684 2.677 1.11-.62 2.295-.718 3.405-.718.268 0 .516 0 .784.02.268 0 .517.019.784.019.268 0 .498 0 .727-.02h.173v1.96h1.894v11.133h-4.937c-.745 0-1.377.252-1.931.757a.954.954 0 0 1-.517.213c-.306-.039-.631-.039-.956-.039zm-3.233-2.308c.822 0 1.492.213 1.99.601.343.272.707.388 1.147.388.076 0 .153 0 .249-.02h.287c.038 0 .076-.019.114-.019.153-.038.306-.077.402-.155a3.916 3.916 0 0 1 2.353-.795h3.731v-8.418h-.613v7.817h-3.118c-.88 0-1.722.252-2.525.776a1.413 1.413 0 0 1-.765.232c-.268 0-.536-.077-.765-.232-.804-.524-1.627-.776-2.507-.776h-3.156v-8.806h-.593v9.407h3.769zm7.25-10.397h-.784a4.507 4.507 0 0 0-2.334.699c-.172.116-.23.213-.23.426V41.666c1.129-.601 2.296-.66 3.329-.66H72.01v-8.418H70.9zm-7.92 8.457c.937 0 1.99.04 3.003.505-.573-1.416-1.664-2.095-3.328-2.095h-.287v-7.836h-.306c-.134 0-.268 0-.306.019-.02.039-.02.175-.02.291v9.136h.594c.248-.02.459-.02.65-.02zm.708-11.288v8.262c0 .156.019.175.191.214.861.155 1.645.562 2.334 1.222l.038.039v-1.785c0-1.61 0-3.278-.019-4.907-.019-1.3-.899-2.502-2.162-2.93a1.112 1.112 0 0 0-.382-.115s.019 0 0 0z"/></g></g></g></g></svg>