<svg xmlns="http://www.w3.org/2000/svg" width="26" height="27" viewBox="0 0 26 27"><g><g><g><path fill="#d71b16" d="M25.909 13.29c0 7.074-5.735 12.809-12.81 12.809C6.025 26.099.29 20.364.29 13.289.29 6.215 6.025.48 13.1.48c7.074 0 12.809 5.735 12.809 12.81z"/></g><g><g/><g><path fill="#fff" d="M13.106 16.391zm-3.333-.26a.917.917 0 0 1-.816-.825 17.945 17.945 0 0 1 0-4.09.944.944 0 0 1 .835-.831c1.7-.208 3.403-.261 5.107-.144.515.034 1.035.09 1.55.151a.923.923 0 0 1 .806.817c.13 1.141.164 2.283.063 3.432-.018.212-.033.427-.055.639-.049.45-.379.816-.813.85-1.117.095-2.234.174-3.344.261-1.117-.087-2.227-.166-3.333-.26zm2.635-4.306v2.87l2.112-1.437-2.112-1.433z"/></g></g></g></g></svg>